VotoSerifGX-ExtendedBoldDisplay.ufo
<glyph name="ampersand" format="2">
  <advance width="984"/>
  <unicode hex="0026"/>
  <outline>
    <contour>
      <point x="393" y="-10" type="curve" smooth="yes"/>
      <point x="485" y="-10"/>
      <point x="564" y="2"/>
      <point x="630" y="38" type="curve"/>
      <point x="670" y="0" type="line"/>
      <point x="965" y="0" type="line"/>
      <point x="965" y="10" type="line"/>
      <point x="963" y="10" type="line" smooth="yes"/>
      <point x="931" y="10"/>
      <point x="890" y="46"/>
      <point x="827" y="106" type="curve" smooth="yes"/>
      <point x="744" y="181" type="line"/>
      <point x="765" y="229"/>
      <point x="782" y="293"/>
      <point x="782" y="332" type="curve" smooth="yes"/>
      <point x="787" y="403"/>
      <point x="837" y="422"/>
      <point x="907" y="422" type="curve" smooth="yes"/>
      <point x="936" y="422" type="line"/>
      <point x="936" y="432" type="line"/>
      <point x="660" y="432" type="line"/>
      <point x="660" y="380" type="line" smooth="yes"/>
      <point x="660" y="342"/>
      <point x="660" y="305"/>
      <point x="657" y="268" type="curve"/>
      <point x="494" y="424" type="line"/>
      <point x="581" y="447"/>
      <point x="663" y="470"/>
      <point x="663" y="569" type="curve" smooth="yes"/>
      <point x="663" y="650"/>
      <point x="592" y="724"/>
      <point x="428" y="724" type="curve" smooth="yes"/>
      <point x="267" y="724"/>
      <point x="187" y="665"/>
      <point x="187" y="560" type="curve" smooth="yes"/>
      <point x="187" y="494"/>
      <point x="214" y="462"/>
      <point x="285" y="387" type="curve"/>
      <point x="166" y="386"/>
      <point x="55" y="323"/>
      <point x="55" y="190" type="curve" smooth="yes"/>
      <point x="55" y="54"/>
      <point x="204" y="-10"/>
    </contour>
    <contour>
      <point x="431" y="-1" type="curve" smooth="yes"/>
      <point x="411" y="-1"/>
      <point x="271" y="-17"/>
      <point x="271" y="233" type="curve" smooth="yes"/>
      <point x="271" y="292"/>
      <point x="277" y="336"/>
      <point x="303" y="367" type="curve"/>
      <point x="598" y="69" type="line"/>
      <point x="566" y="32"/>
      <point x="517" y="-1"/>
    </contour>
    <contour>
      <point x="481" y="438" type="curve"/>
      <point x="385" y="529"/>
      <point x="369" y="543"/>
      <point x="369" y="597" type="curve" smooth="yes"/>
      <point x="369" y="684"/>
      <point x="410" y="714"/>
      <point x="445" y="714" type="curve" smooth="yes"/>
      <point x="472" y="714"/>
      <point x="516" y="701"/>
      <point x="516" y="583" type="curve" smooth="yes"/>
      <point x="516" y="552"/>
      <point x="520" y="481"/>
    </contour>
  </outline>
</glyph>
<glyph name="two" format="2">
  <advance width="662"/>
  <unicode hex="0032"/>
  <outline>
    <contour>
      <point x="37" y="0" type="line"/>
      <point x="619" y="0" type="line"/>
      <point x="627" y="254" type="line"/>
      <point x="617" y="254" type="line"/>
      <point x="616" y="249" type="line" smooth="yes"/>
      <point x="606" y="170"/>
      <point x="582" y="146"/>
      <point x="496" y="146" type="curve" smooth="yes"/>
      <point x="82" y="146" type="line"/>
      <point x="257" y="235" type="line" smooth="yes"/>
      <point x="534" y="378"/>
      <point x="597" y="431"/>
      <point x="597" y="528" type="curve" smooth="yes"/>
      <point x="597" y="676"/>
      <point x="478" y="724"/>
      <point x="313" y="724" type="curve" smooth="yes"/>
      <point x="103" y="724"/>
      <point x="37" y="643"/>
      <point x="37" y="564" type="curve" smooth="yes"/>
      <point x="37" y="483"/>
      <point x="120" y="458"/>
      <point x="212" y="458" type="curve"/>
      <point x="212" y="652"/>
      <point x="235" y="714"/>
      <point x="305" y="714" type="curve" smooth="yes"/>
      <point x="371" y="714"/>
      <point x="398" y="656"/>
      <point x="398" y="551" type="curve" smooth="yes"/>
      <point x="398" y="326"/>
      <point x="332" y="311"/>
      <point x="192" y="223" type="curve" smooth="yes"/>
      <point x="37" y="127" type="line"/>
    </contour>
  </outline>
</glyph>
<glyph name="eight" format="2">
  <advance width="662"/>
  <unicode hex="0038"/>
  <outline>
    <contour>
      <point x="320" y="-10" type="curve" smooth="yes"/>
      <point x="524" y="-10"/>
      <point x="636" y="72"/>
      <point x="636" y="206" type="curve" smooth="yes"/>
      <point x="636" y="311"/>
      <point x="568" y="343"/>
      <point x="422" y="402" type="curve"/>
      <point x="538" y="421"/>
      <point x="613" y="485"/>
      <point x="613" y="564" type="curve" smooth="yes"/>
      <point x="613" y="647"/>
      <point x="528" y="724"/>
      <point x="333" y="724" type="curve" smooth="yes"/>
      <point x="136" y="724"/>
      <point x="52" y="648"/>
      <point x="52" y="531" type="curve" smooth="yes"/>
      <point x="52" y="431"/>
      <point x="116" y="398"/>
      <point x="244" y="336" type="curve"/>
      <point x="138" y="342"/>
      <point x="26" y="290"/>
      <point x="26" y="173" type="curve" smooth="yes"/>
      <point x="26" y="82"/>
      <point x="106" y="-10"/>
    </contour>
    <contour>
      <point x="322" y="0" type="curve" smooth="yes"/>
      <point x="239" y="0"/>
      <point x="203" y="54"/>
      <point x="203" y="147" type="curve" smooth="yes"/>
      <point x="203" y="212"/>
      <point x="218" y="261"/>
      <point x="268" y="324" type="curve"/>
      <point x="382" y="267"/>
      <point x="439" y="239"/>
      <point x="439" y="134" type="curve" smooth="yes"/>
      <point x="439" y="50"/>
      <point x="402" y="0"/>
    </contour>
    <contour>
      <point x="396" y="412" type="curve"/>
      <point x="280" y="455"/>
      <point x="239" y="461"/>
      <point x="239" y="572" type="curve" smooth="yes"/>
      <point x="239" y="662"/>
      <point x="270" y="714"/>
      <point x="342" y="714" type="curve" smooth="yes"/>
      <point x="405" y="714"/>
      <point x="436" y="667"/>
      <point x="436" y="552" type="curve" smooth="yes"/>
      <point x="436" y="477"/>
      <point x="426" y="444"/>
    </contour>
  </outline>
</glyph>
<glyph name="B" format="2">
  <advance width="840"/>
  <unicode hex="0042"/>
  <anchor x="420" y="0" name="bottom"/>
  <anchor x="420" y="714" name="top"/>
  <anchor x="820" y="714" name="topright"/>
  <outline>
    <contour>
      <point x="25" y="0" type="line"/>
      <point x="442" y="0" type="line" smooth="yes"/>
      <point x="689" y="0"/>
      <point x="805" y="67"/>
      <point x="805" y="191" type="curve" smooth="yes"/>
      <point x="805" y="335"/>
      <point x="677" y="390"/>
      <point x="466" y="380" type="curve"/>
      <point x="466" y="382" type="line"/>
      <point x="669" y="383"/>
      <point x="771" y="425"/>
      <point x="771" y="542" type="curve" smooth="yes"/>
      <point x="771" y="651"/>
      <point x="663" y="714"/>
      <point x="407" y="714" type="curve" smooth="yes"/>
      <point x="25" y="714" type="line"/>
      <point x="25" y="704" type="line"/>
      <point x="82" y="704" type="line" smooth="yes"/>
      <point x="104" y="704"/>
      <point x="132" y="691"/>
      <point x="132" y="652" type="curve" smooth="yes"/>
      <point x="132" y="61" type="line" smooth="yes"/>
      <point x="132" y="35"/>
      <point x="118" y="10"/>
      <point x="86" y="10" type="curve" smooth="yes"/>
      <point x="25" y="10" type="line"/>
    </contour>
    <contour>
      <point x="364" y="10" type="line"/>
      <point x="364" y="368" type="line"/>
      <point x="427" y="368" type="line" smooth="yes"/>
      <point x="511" y="368"/>
      <point x="557" y="306"/>
      <point x="557" y="196" type="curve" smooth="yes"/>
      <point x="557" y="77"/>
      <point x="511" y="10"/>
      <point x="425" y="10" type="curve" smooth="yes"/>
    </contour>
    <contour>
      <point x="364" y="378" type="line"/>
      <point x="364" y="704" type="line"/>
      <point x="394" y="704" type="line" smooth="yes"/>
      <point x="482" y="704"/>
      <point x="529" y="644"/>
      <point x="529" y="534" type="curve" smooth="yes"/>
      <point x="529" y="436"/>
      <point x="483" y="378"/>
      <point x="397" y="378" type="curve" smooth="yes"/>
    </contour>
  </outline>
</glyph>
<glyph name="H" format="2">
  <advance width="978"/>
  <unicode hex="0048"/>
  <anchor x="489" y="0" name="bottom"/>
  <anchor x="489" y="357" name="center"/>
  <anchor x="489" y="714" name="top"/>
  <anchor x="958" y="714" name="topright"/>
  <outline>
    <contour>
      <point x="24" y="0" type="line"/>
      <point x="450" y="0" type="line"/>
      <point x="450" y="10" type="line"/>
      <point x="407" y="10" type="line" smooth="yes"/>
      <point x="381" y="10"/>
      <point x="364" y="43"/>
      <point x="364" y="55" type="curve" smooth="yes"/>
      <point x="364" y="368" type="line"/>
      <point x="614" y="368" type="line"/>
      <point x="614" y="62" type="line" smooth="yes"/>
      <point x="614" y="42"/>
      <point x="596" y="10"/>
      <point x="565" y="10" type="curve" smooth="yes"/>
      <point x="528" y="10" type="line"/>
      <point x="528" y="0" type="line"/>
      <point x="954" y="0" type="line"/>
      <point x="954" y="10" type="line"/>
      <point x="892" y="10" type="line" smooth="yes"/>
      <point x="870" y="10"/>
      <point x="846" y="41"/>
      <point x="846" y="58" type="curve" smooth="yes"/>
      <point x="846" y="658" type="line" smooth="yes"/>
      <point x="846" y="683"/>
      <point x="868" y="704"/>
      <point x="892" y="704" type="curve" smooth="yes"/>
      <point x="954" y="704" type="line"/>
      <point x="954" y="714" type="line"/>
      <point x="528" y="714" type="line"/>
      <point x="528" y="704" type="line"/>
      <point x="564" y="704" type="line" smooth="yes"/>
      <point x="598" y="704"/>
      <point x="614" y="683"/>
      <point x="614" y="658" type="curve" smooth="yes"/>
      <point x="614" y="378" type="line"/>
      <point x="364" y="378" type="line"/>
      <point x="364" y="661" type="line" smooth="yes"/>
      <point x="364" y="683"/>
      <point x="381" y="704"/>
      <point x="407" y="704" type="curve" smooth="yes"/>
      <point x="450" y="704" type="line"/>
      <point x="450" y="714" type="line"/>
      <point x="24" y="714" type="line"/>
      <point x="24" y="704" type="line"/>
      <point x="76" y="704" type="line" smooth="yes"/>
      <point x="100" y="704"/>
      <point x="132" y="684"/>
      <point x="132" y="655" type="curve" smooth="yes"/>
      <point x="132" y="55" type="line" smooth="yes"/>
      <point x="132" y="43"/>
      <point x="108" y="10"/>
      <point x="86" y="10" type="curve" smooth="yes"/>
      <point x="24" y="10" type="line"/>
    </contour>
  </outline>
</glyph>
<glyph name="I" format="2">
  <advance width="497"/>
  <unicode hex="0049"/>
  <anchor x="248" y="0" name="bottom"/>
  <anchor x="248" y="714" name="top"/>
  <anchor x="477" y="714" name="topright"/>
  <outline>
    <contour>
      <point x="24" y="0" type="line"/>
      <point x="473" y="0" type="line"/>
      <point x="473" y="10" type="line"/>
      <point x="429" y="10" type="line" smooth="yes"/>
      <point x="381" y="10"/>
      <point x="365" y="21"/>
      <point x="365" y="54" type="curve" smooth="yes"/>
      <point x="365" y="654" type="line" smooth="yes"/>
      <point x="365" y="692"/>
      <point x="381" y="704"/>
      <point x="429" y="704" type="curve" smooth="yes"/>
      <point x="473" y="704" type="line"/>
      <point x="473" y="714" type="line"/>
      <point x="24" y="714" type="line"/>
      <point x="24" y="704" type="line"/>
      <point x="66" y="704" type="line" smooth="yes"/>
      <point x="116" y="704"/>
      <point x="132" y="692"/>
      <point x="132" y="655" type="curve" smooth="yes"/>
      <point x="132" y="51" type="line" smooth="yes"/>
      <point x="132" y="19"/>
      <point x="116" y="10"/>
      <point x="66" y="10" type="curve" smooth="yes"/>
      <point x="24" y="10" type="line"/>
    </contour>
  </outline>
</glyph>
<glyph name="N" format="2">
  <advance width="940"/>
  <unicode hex="004E"/>
  <anchor x="470" y="0" name="bottom"/>
  <anchor x="470" y="714" name="top"/>
  <anchor x="907" y="714" name="topright"/>
  <outline>
    <contour>
      <point x="24" y="0" type="line"/>
      <point x="327" y="0" type="line"/>
      <point x="327" y="10" type="line"/>
      <point x="238" y="10" type="line" smooth="yes"/>
      <point x="198" y="10"/>
      <point x="182" y="9"/>
      <point x="182" y="67" type="curve" smooth="yes"/>
      <point x="182" y="661" type="line"/>
      <point x="729" y="0" type="line"/>
      <point x="794" y="0" type="line"/>
      <point x="794" y="647" type="line" smooth="yes"/>
      <point x="794" y="685"/>
      <point x="822" y="704"/>
      <point x="851" y="704" type="curve" smooth="yes"/>
      <point x="931" y="704" type="line"/>
      <point x="931" y="714" type="line"/>
      <point x="638" y="714" type="line"/>
      <point x="638" y="704" type="line"/>
      <point x="728" y="704" type="line" smooth="yes"/>
      <point x="752" y="704"/>
      <point x="784" y="690"/>
      <point x="784" y="651" type="curve" smooth="yes"/>
      <point x="784" y="238" type="line"/>
      <point x="383" y="714" type="line"/>
      <point x="24" y="714" type="line"/>
      <point x="24" y="704" type="line"/>
      <point x="113" y="704" type="line" smooth="yes"/>
      <point x="134" y="704"/>
      <point x="172" y="704"/>
      <point x="172" y="651" type="curve" smooth="yes"/>
      <point x="172" y="67" type="line" smooth="yes"/>
      <point x="172" y="9"/>
      <point x="138" y="10"/>
      <point x="103" y="10" type="curve" smooth="yes"/>
      <point x="24" y="10" type="line"/>
    </contour>
  </outline>
</glyph>
<glyph name="x" format="2">
  <advance width="812"/>
  <unicode hex="0078"/>
  <anchor x="406" y="0" name="bottom"/>
  <anchor x="406" y="536" name="top"/>
  <anchor x="792" y="536" name="topright"/>
  <outline>
    <contour>
      <point x="18" y="0" type="line"/>
      <point x="362" y="0" type="line"/>
      <point x="362" y="10" type="line"/>
      <point x="279" y="10" type="line" smooth="yes"/>
      <point x="218" y="10"/>
      <point x="183" y="26"/>
      <point x="183" y="54" type="curve" smooth="yes"/>
      <point x="183" y="67"/>
      <point x="191" y="82"/>
      <point x="205" y="94" type="curve" smooth="yes"/>
      <point x="344" y="231" type="line"/>
      <point x="410" y="141" type="line" smooth="yes"/>
      <point x="438" y="101"/>
      <point x="456" y="68"/>
      <point x="456" y="46" type="curve" smooth="yes"/>
      <point x="456" y="23"/>
      <point x="434" y="10"/>
      <point x="380" y="10" type="curve" smooth="yes"/>
      <point x="373" y="10" type="line"/>
      <point x="373" y="0" type="line"/>
      <point x="801" y="0" type="line"/>
      <point x="801" y="10" type="line"/>
      <point x="777" y="10" type="line" smooth="yes"/>
      <point x="744" y="10"/>
      <point x="699" y="25"/>
      <point x="670" y="69" type="curve" smooth="yes"/>
      <point x="495" y="319" type="line"/>
      <point x="627" y="449" type="line" smooth="yes"/>
      <point x="683" y="508"/>
      <point x="701" y="526"/>
      <point x="753" y="526" type="curve" smooth="yes"/>
      <point x="770" y="526" type="line"/>
      <point x="770" y="536" type="line"/>
      <point x="486" y="536" type="line"/>
      <point x="486" y="526" type="line"/>
      <point x="529" y="526" type="line" smooth="yes"/>
      <point x="590" y="526"/>
      <point x="625" y="510"/>
      <point x="625" y="482" type="curve" smooth="yes"/>
      <point x="625" y="469"/>
      <point x="617" y="454"/>
      <point x="603" y="442" type="curve" smooth="yes"/>
      <point x="489" y="327" type="line"/>
      <point x="403" y="450" type="line" smooth="yes"/>
      <point x="393" y="463"/>
      <point x="385" y="480"/>
      <point x="385" y="494" type="curve" smooth="yes"/>
      <point x="385" y="512"/>
      <point x="399" y="526"/>
      <point x="441" y="526" type="curve" smooth="yes"/>
      <point x="451" y="526" type="line"/>
      <point x="451" y="536" type="line"/>
      <point x="40" y="536" type="line"/>
      <point x="40" y="526" type="line"/>
      <point x="64" y="526" type="line" smooth="yes"/>
      <point x="104" y="526"/>
      <point x="155" y="504"/>
      <point x="180" y="468" type="curve" smooth="yes"/>
      <point x="338" y="240" type="line"/>
      <point x="181" y="87" type="line" smooth="yes"/>
      <point x="125" y="28"/>
      <point x="107" y="10"/>
      <point x="55" y="10" type="curve" smooth="yes"/>
      <point x="18" y="10" type="line"/>
    </contour>
  </outline>
</glyph>
<glyph name="yen" format="2">
  <advance width="652"/>
  <unicode hex="00A5"/>
  <outline>
    <contour>
      <point x="125" y="0" type="line"/>
      <point x="541" y="0" type="line"/>
      <point x="541" y="10" type="line"/>
      <point x="522" y="10" type="line" smooth="yes"/>
      <point x="457" y="10"/>
      <point x="442" y="50"/>
      <point x="442" y="78" type="curve" smooth="yes"/>
      <point x="442" y="168" type="line"/>
      <point x="605" y="168" type="line"/>
      <point x="605" y="178" type="line"/>
      <point x="442" y="178" type="line"/>
      <point x="442" y="286" type="line"/>
      <point x="605" y="286" type="line"/>
      <point x="605" y="296" type="line"/>
      <point x="440" y="296" type="line"/>
      <point x="567" y="627" type="line" smooth="yes"/>
      <point x="589" y="685"/>
      <point x="608" y="704"/>
      <point x="644" y="704" type="curve" smooth="yes"/>
      <point x="646" y="704" type="line"/>
      <point x="646" y="714" type="line"/>
      <point x="432" y="714" type="line"/>
      <point x="432" y="704" type="line"/>
      <point x="479" y="704" type="line" smooth="yes"/>
      <point x="529" y="704"/>
      <point x="558" y="693"/>
      <point x="558" y="653" type="curve" smooth="yes"/>
      <point x="558" y="641"/>
      <point x="554" y="626"/>
      <point x="546" y="604" type="curve" smooth="yes"/>
      <point x="469" y="393" type="line" smooth="yes"/>
      <point x="457" y="362"/>
      <point x="446" y="341"/>
      <point x="436" y="313" type="curve"/>
      <point x="428" y="339"/>
      <point x="416" y="369"/>
      <point x="407" y="395" type="curve" smooth="yes"/>
      <point x="336" y="606" type="line" smooth="yes"/>
      <point x="326" y="633"/>
      <point x="316" y="659"/>
      <point x="316" y="673" type="curve" smooth="yes"/>
      <point x="316" y="703"/>
      <point x="341" y="704"/>
      <point x="355" y="704" type="curve" smooth="yes"/>
      <point x="364" y="704" type="line"/>
      <point x="364" y="714" type="line"/>
      <point x="5" y="714" type="line"/>
      <point x="5" y="704" type="line"/>
      <point x="15" y="704" type="line" smooth="yes"/>
      <point x="65" y="704"/>
      <point x="85" y="691"/>
      <point x="99" y="652" type="curve" smooth="yes"/>
      <point x="226" y="296" type="line"/>
      <point x="61" y="296" type="line"/>
      <point x="61" y="286" type="line"/>
      <point x="225" y="286" type="line"/>
      <point x="225" y="178" type="line"/>
      <point x="61" y="178" type="line"/>
      <point x="61" y="168" type="line"/>
      <point x="225" y="168" type="line"/>
      <point x="225" y="79" type="line" smooth="yes"/>
      <point x="225" y="58"/>
      <point x="210" y="10"/>
      <point x="146" y="10" type="curve" smooth="yes"/>
      <point x="125" y="10" type="line"/>
    </contour>
  </outline>
</glyph>
<glyph name="section" format="2">
  <advance width="634"/>
  <unicode hex="00A7"/>
  <outline>
    <contour>
      <point x="336" y="-111" type="curve" smooth="yes"/>
      <point x="470" y="-111"/>
      <point x="567" y="-39"/>
      <point x="567" y="67" type="curve" smooth="yes"/>
      <point x="567" y="127"/>
      <point x="536" y="169"/>
      <point x="497" y="201" type="curve"/>
      <point x="585" y="245"/>
      <point x="597" y="280"/>
      <point x="597" y="312" type="curve" smooth="yes"/>
      <point x="597" y="368"/>
      <point x="574" y="412"/>
      <point x="402" y="481" type="curve" smooth="yes"/>
      <point x="348" y="495"/>
      <point x="217" y="522"/>
      <point x="217" y="655" type="curve" smooth="yes"/>
      <point x="217" y="737"/>
      <point x="276" y="751"/>
      <point x="314" y="751" type="curve" smooth="yes"/>
      <point x="407" y="751"/>
      <point x="422" y="712"/>
      <point x="422" y="554" type="curve"/>
      <point x="517" y="554"/>
      <point x="553" y="601"/>
      <point x="553" y="648" type="curve" smooth="yes"/>
      <point x="553" y="706"/>
      <point x="473" y="760"/>
      <point x="334" y="760" type="curve" smooth="yes"/>
      <point x="186" y="760"/>
      <point x="90" y="695"/>
      <point x="90" y="600" type="curve" smooth="yes"/>
      <point x="90" y="539"/>
      <point x="125" y="494"/>
      <point x="169" y="461" type="curve"/>
      <point x="93" y="443"/>
      <point x="64" y="400"/>
      <point x="64" y="356" type="curve" smooth="yes"/>
      <point x="64" y="208"/>
      <point x="246" y="175"/>
      <point x="324" y="143" type="curve" smooth="yes"/>
      <point x="340" y="143"/>
      <point x="454" y="113"/>
      <point x="454" y="6" type="curve" smooth="yes"/>
      <point x="454" y="-42"/>
      <point x="419" y="-102"/>
      <point x="342" y="-102" type="curve" smooth="yes"/>
      <point x="267" y="-102"/>
      <point x="205" y="-46"/>
      <point x="205" y="120" type="curve"/>
      <point x="106" y="120"/>
      <point x="79" y="85"/>
      <point x="79" y="35" type="curve" smooth="yes"/>
      <point x="79" y="2"/>
      <point x="88" y="-111"/>
    </contour>
    <contour>
      <point x="487" y="207" type="curve"/>
      <point x="438" y="244"/>
      <point x="375" y="268"/>
      <point x="323" y="290" type="curve" smooth="yes"/>
      <point x="269" y="310"/>
      <point x="164" y="353"/>
      <point x="164" y="425" type="curve" smooth="yes"/>
      <point x="164" y="437"/>
      <point x="167" y="442"/>
      <point x="175" y="457" type="curve"/>
      <point x="226" y="419"/>
      <point x="288" y="397"/>
      <point x="332" y="380" type="curve" smooth="yes"/>
      <point x="394" y="358"/>
      <point x="499" y="318"/>
      <point x="499" y="245" type="curve" smooth="yes"/>
      <point x="499" y="236"/>
      <point x="495" y="225"/>
    </contour>
  </outline>
</glyph>
<glyph name="twosuperior" format="2">
  <advance width="487"/>
  <unicode hex="00B2"/>
  <outline>
    <contour>
      <point x="37" y="387" type="line"/>
      <point x="442" y="387" type="line"/>
      <point x="449" y="571" type="line"/>
      <point x="438" y="571" type="line"/>
      <point x="438" y="570" type="line" smooth="yes"/>
      <point x="433" y="528"/>
      <point x="418" y="513"/>
      <point x="373" y="513" type="curve" smooth="yes"/>
      <point x="63" y="513" type="line"/>
      <point x="267" y="585" type="line" smooth="yes"/>
      <point x="372" y="607"/>
      <point x="442" y="654"/>
      <point x="442" y="715" type="curve" smooth="yes"/>
      <point x="442" y="784"/>
      <point x="355" y="825"/>
      <point x="245" y="825" type="curve" smooth="yes"/>
      <point x="103" y="825"/>
      <point x="41" y="777"/>
      <point x="41" y="723" type="curve" smooth="yes"/>
      <point x="41" y="690"/>
      <point x="51" y="675"/>
      <point x="163" y="675" type="curve"/>
      <point x="163" y="778"/>
      <point x="180" y="815"/>
      <point x="231" y="815" type="curve" smooth="yes"/>
      <point x="279" y="815"/>
      <point x="299" y="785"/>
      <point x="299" y="718" type="curve" smooth="yes"/>
      <point x="299" y="672"/>
      <point x="282" y="613"/>
      <point x="180" y="573" type="curve" smooth="yes"/>
      <point x="37" y="512" type="line"/>
    </contour>
  </outline>
</glyph>
<glyph name="periodcentered" format="2">
  <advance width="379"/>
  <unicode hex="00B7"/>
  <outline>
    <contour>
      <point x="190" y="258" type="curve" smooth="yes"/>
      <point x="241" y="258"/>
      <point x="286" y="282"/>
      <point x="286" y="353" type="curve" smooth="yes"/>
      <point x="286" y="427"/>
      <point x="241" y="449"/>
      <point x="190" y="449" type="curve" smooth="yes"/>
      <point x="135" y="449"/>
      <point x="93" y="427"/>
      <point x="93" y="353" type="curve" smooth="yes"/>
      <point x="93" y="282"/>
      <point x="135" y="258"/>
    </contour>
  </outline>
</glyph>
<glyph name="onesuperior" format="2">
  <advance width="487"/>
  <unicode hex="00B9"/>
  <outline>
    <contour>
      <point x="58" y="387" type="line"/>
      <point x="434" y="387" type="line"/>
      <point x="434" y="397" type="line"/>
      <point x="379" y="397" type="line" smooth="yes"/>
      <point x="350" y="397"/>
      <point x="327" y="419"/>
      <point x="327" y="453" type="curve" smooth="yes"/>
      <point x="327" y="819" type="line"/>
      <point x="197" y="819" type="line"/>
      <point x="143" y="755" type="line" smooth="yes"/>
      <point x="118" y="722"/>
      <point x="67" y="720"/>
      <point x="26" y="720" type="curve"/>
      <point x="26" y="671"/>
      <point x="53" y="655"/>
      <point x="74" y="655" type="curve" smooth="yes"/>
      <point x="95" y="655"/>
      <point x="113" y="669"/>
      <point x="175" y="781" type="curve"/>
      <point x="175" y="453" type="line" smooth="yes"/>
      <point x="175" y="419"/>
      <point x="141" y="397"/>
      <point x="112" y="397" type="curve" smooth="yes"/>
      <point x="58" y="397" type="line"/>
    </contour>
  </outline>
</glyph>
<glyph name="ordmasculine" format="2">
  <advance width="544"/>
  <unicode hex="00BA"/>
  <outline>
    <contour>
      <point x="272" y="380" type="curve" smooth="yes"/>
      <point x="422" y="380"/>
      <point x="503" y="436"/>
      <point x="503" y="550" type="curve" smooth="yes"/>
      <point x="503" y="664"/>
      <point x="415" y="719"/>
      <point x="274" y="719" type="curve" smooth="yes"/>
      <point x="120" y="719"/>
      <point x="41" y="664"/>
      <point x="41" y="550" type="curve" smooth="yes"/>
      <point x="41" y="436"/>
      <point x="125" y="380"/>
    </contour>
    <contour>
      <point x="273" y="390" type="curve" smooth="yes"/>
      <point x="219" y="390"/>
      <point x="203" y="429"/>
      <point x="203" y="550" type="curve" smooth="yes"/>
      <point x="203" y="671"/>
      <point x="219" y="709"/>
      <point x="272" y="709" type="curve" smooth="yes"/>
      <point x="326" y="709"/>
      <point x="342" y="671"/>
      <point x="342" y="550" type="curve" smooth="yes"/>
      <point x="342" y="429"/>
      <point x="326" y="390"/>
    </contour>
  </outline>
</glyph>
<glyph name="Aring" format="2">
  <advance width="919"/>
  <unicode hex="00C5"/>
  <anchor x="459" y="0" name="bottom"/>
  <anchor x="459" y="870" name="top"/>
  <outline>
    <contour>
      <point x="8" y="0" type="line"/>
      <point x="282" y="0" type="line"/>
      <point x="282" y="10" type="line"/>
      <point x="200" y="10" type="line" smooth="yes"/>
      <point x="162" y="10"/>
      <point x="152" y="25"/>
      <point x="152" y="43" type="curve" smooth="yes"/>
      <point x="152" y="62"/>
      <point x="162" y="84"/>
      <point x="170" y="106" type="curve" smooth="yes"/>
      <point x="228" y="263" type="line"/>
      <point x="511" y="263" type="line"/>
      <point x="578" y="86" type="line" smooth="yes"/>
      <point x="586" y="65"/>
      <point x="589" y="51"/>
      <point x="589" y="40" type="curve" smooth="yes"/>
      <point x="589" y="20"/>
      <point x="577" y="10"/>
      <point x="541" y="10" type="curve" smooth="yes"/>
      <point x="506" y="10" type="line"/>
      <point x="506" y="0" type="line"/>
      <point x="919" y="0" type="line"/>
      <point x="919" y="10" type="line"/>
      <point x="924" y="10" type="line" smooth="yes"/>
      <point x="878" y="10"/>
      <point x="835" y="33"/>
      <point x="815" y="82" type="curve" smooth="yes"/>
      <point x="567" y="682" type="line"/>
      <point x="586" y="700"/>
      <point x="596" y="728"/>
      <point x="596" y="759" type="curve" smooth="yes"/>
      <point x="596" y="824"/>
      <point x="554" y="870"/>
      <point x="467" y="870" type="curve" smooth="yes"/>
      <point x="378" y="870"/>
      <point x="334" y="824"/>
      <point x="334" y="759" type="curve" smooth="yes"/>
      <point x="334" y="725"/>
      <point x="345" y="696"/>
      <point x="369" y="675" type="curve"/>
      <point x="148" y="76" type="line" smooth="yes"/>
      <point x="125" y="15"/>
      <point x="81" y="10"/>
      <point x="51" y="10" type="curve" smooth="yes"/>
      <point x="8" y="10" type="line"/>
    </contour>
    <contour>
      <point x="231" y="273" type="line"/>
      <point x="292" y="417" type="line" smooth="yes"/>
      <point x="319" y="496"/>
      <point x="351" y="592"/>
      <point x="369" y="647" type="curve"/>
      <point x="389" y="583"/>
      <point x="428" y="455"/>
      <point x="443" y="414" type="curve" smooth="yes"/>
      <point x="508" y="273" type="line"/>
    </contour>
    <contour>
      <point x="467" y="656" type="curve" smooth="yes"/>
      <point x="389" y="656"/>
      <point x="346" y="699"/>
      <point x="346" y="759" type="curve" smooth="yes"/>
      <point x="346" y="817"/>
      <point x="389" y="860"/>
      <point x="467" y="860" type="curve" smooth="yes"/>
      <point x="543" y="860"/>
      <point x="584" y="817"/>
      <point x="584" y="759" type="curve" smooth="yes"/>
      <point x="584" y="699"/>
      <point x="543" y="656"/>
    </contour>
  </outline>
</glyph>
<glyph name="AE" format="2">
  <advance width="1201"/>
  <unicode hex="00C6"/>
  <anchor x="605" y="0" name="bottom"/>
  <anchor x="605" y="714" name="top"/>
  <outline>
    <contour>
      <point x="8" y="0" type="line"/>
      <point x="265" y="0" type="line"/>
      <point x="265" y="10" type="line"/>
      <point x="221" y="10" type="line" smooth="yes"/>
      <point x="171" y="10"/>
      <point x="150" y="19"/>
      <point x="150" y="41" type="curve" smooth="yes"/>
      <point x="150" y="55"/>
      <point x="156" y="76"/>
      <point x="173" y="102" type="curve" smooth="yes"/>
      <point x="263" y="249" type="line"/>
      <point x="545" y="249" type="line"/>
      <point x="545" y="80" type="line" smooth="yes"/>
      <point x="545" y="39"/>
      <point x="536" y="10"/>
      <point x="480" y="10" type="curve" smooth="yes"/>
      <point x="437" y="10" type="line"/>
      <point x="437" y="0" type="line"/>
      <point x="1166" y="0" type="line"/>
      <point x="1173" y="198" type="line"/>
      <point x="1163" y="198" type="line"/>
      <point x="1160" y="169" type="line" smooth="yes"/>
      <point x="1147" y="43"/>
      <point x="1116" y="10"/>
      <point x="1000" y="10" type="curve" smooth="yes"/>
      <point x="777" y="10" type="line"/>
      <point x="777" y="368" type="line"/>
      <point x="1033" y="368" type="line"/>
      <point x="1033" y="378" type="line"/>
      <point x="777" y="378" type="line"/>
      <point x="777" y="704" type="line"/>
      <point x="960" y="704" type="line" smooth="yes"/>
      <point x="1073" y="704"/>
      <point x="1107" y="671"/>
      <point x="1120" y="544" type="curve" smooth="yes"/>
      <point x="1123" y="516" type="line"/>
      <point x="1133" y="516" type="line"/>
      <point x="1125" y="714" type="line"/>
      <point x="377" y="714" type="line"/>
      <point x="377" y="704" type="line"/>
      <point x="532" y="704" type="line"/>
      <point x="154" y="89" type="line" smooth="yes"/>
      <point x="118" y="29"/>
      <point x="94" y="10"/>
      <point x="50" y="10" type="curve" smooth="yes"/>
      <point x="8" y="10" type="line"/>
    </contour>
    <contour>
      <point x="270" y="259" type="line"/>
      <point x="543" y="704" type="line"/>
      <point x="545" y="704" type="line"/>
      <point x="545" y="259" type="line"/>
    </contour>
  </outline>
</glyph>
<glyph name="multiply" format="2">
  <advance width="693"/>
  <unicode hex="00D7"/>
  <outline>
    <contour>
      <point x="91" y="137" type="line"/>
      <point x="341" y="339" type="line"/>
      <point x="589" y="137" type="line"/>
      <point x="601" y="153" type="line"/>
      <point x="354" y="350" type="line"/>
      <point x="601" y="548" type="line"/>
      <point x="589" y="564" type="line"/>
      <point x="341" y="362" type="line"/>
      <point x="91" y="564" type="line"/>
      <point x="79" y="548" type="line"/>
      <point x="326" y="350" type="line"/>
      <point x="79" y="153" type="line"/>
    </contour>
  </outline>
</glyph>
<glyph name="Thorn" format="2">
  <advance width="773"/>
  <unicode hex="00DE"/>
  <anchor x="387" y="0" name="bottom"/>
  <anchor x="387" y="714" name="top"/>
  <outline>
    <contour>
      <point x="24" y="0" type="line"/>
      <point x="473" y="0" type="line"/>
      <point x="473" y="10" type="line"/>
      <point x="409" y="10" type="line" smooth="yes"/>
      <point x="385" y="10"/>
      <point x="364" y="32"/>
      <point x="364" y="53" type="curve" smooth="yes"/>
      <point x="364" y="127" type="line"/>
      <point x="379" y="127" type="line" smooth="yes"/>
      <point x="646" y="127"/>
      <point x="746" y="249"/>
      <point x="746" y="371" type="curve" smooth="yes"/>
      <point x="746" y="504"/>
      <point x="635" y="599"/>
      <point x="405" y="599" type="curve" smooth="yes"/>
      <point x="364" y="599" type="line"/>
      <point x="364" y="661" type="line" smooth="yes"/>
      <point x="364" y="685"/>
      <point x="381" y="704"/>
      <point x="409" y="704" type="curve" smooth="yes"/>
      <point x="473" y="704" type="line"/>
      <point x="473" y="714" type="line"/>
      <point x="24" y="714" type="line"/>
      <point x="24" y="704" type="line"/>
      <point x="86" y="704" type="line" smooth="yes"/>
      <point x="108" y="704"/>
      <point x="132" y="685"/>
      <point x="132" y="655" type="curve" smooth="yes"/>
      <point x="132" y="51" type="line" smooth="yes"/>
      <point x="132" y="29"/>
      <point x="108" y="10"/>
      <point x="86" y="10" type="curve" smooth="yes"/>
      <point x="24" y="10" type="line"/>
    </contour>
    <contour>
      <point x="364" y="137" type="line"/>
      <point x="364" y="589" type="line"/>
      <point x="385" y="589" type="line" smooth="yes"/>
      <point x="473" y="589"/>
      <point x="498" y="541"/>
      <point x="498" y="369" type="curve" smooth="yes"/>
      <point x="498" y="188"/>
      <point x="472" y="137"/>
      <point x="381" y="137" type="curve" smooth="yes"/>
    </contour>
  </outline>
</glyph>
<glyph name="germandbls" format="2">
  <advance width="873"/>
  <unicode hex="00DF"/>
  <anchor x="437" y="0" name="bottom"/>
  <anchor x="437" y="778" name="top"/>
  <outline>
    <contour>
      <point x="579" y="-10" type="curve"/>
      <point x="733" y="-10"/>
      <point x="831" y="48"/>
      <point x="831" y="164" type="curve" smooth="yes"/>
      <point x="831" y="242"/>
      <point x="766" y="285"/>
      <point x="687" y="322" type="curve" smooth="yes"/>
      <point x="614" y="358"/>
      <point x="568" y="357"/>
      <point x="568" y="438" type="curve" smooth="yes"/>
      <point x="568" y="513"/>
      <point x="649" y="526"/>
      <point x="728" y="526" type="curve" smooth="yes"/>
      <point x="772" y="526" type="line"/>
      <point x="779" y="692"/>
      <point x="659" y="780"/>
      <point x="448" y="780" type="curve" smooth="yes"/>
      <point x="251" y="780"/>
      <point x="101" y="713"/>
      <point x="101" y="516" type="curve" smooth="yes"/>
      <point x="101" y="536" type="line"/>
      <point x="9" y="536" type="line"/>
      <point x="9" y="526" type="line"/>
      <point x="101" y="526" type="line"/>
      <point x="101" y="65" type="line" smooth="yes"/>
      <point x="101" y="16"/>
      <point x="98" y="10"/>
      <point x="92" y="10" type="curve" smooth="yes"/>
      <point x="-7" y="10" type="line"/>
      <point x="-7" y="0" type="line"/>
      <point x="326" y="0" type="line"/>
      <point x="326" y="625" type="line" smooth="yes"/>
      <point x="326" y="738"/>
      <point x="357" y="770"/>
      <point x="450" y="770" type="curve" smooth="yes"/>
      <point x="534" y="770"/>
      <point x="551" y="734"/>
      <point x="554" y="540" type="curve"/>
      <point x="475" y="544"/>
      <point x="378" y="517"/>
      <point x="378" y="388" type="curve" smooth="yes"/>
      <point x="378" y="335"/>
      <point x="393" y="284"/>
      <point x="508" y="227" type="curve" smooth="yes"/>
      <point x="607" y="178"/>
      <point x="649" y="150"/>
      <point x="649" y="83" type="curve" smooth="yes"/>
      <point x="649" y="10"/>
      <point x="592" y="0"/>
      <point x="582" y="0" type="curve" smooth="yes"/>
      <point x="504" y="0"/>
      <point x="482" y="47"/>
      <point x="470" y="193" type="curve"/>
      <point x="395" y="193"/>
      <point x="362" y="152"/>
      <point x="362" y="115" type="curve" smooth="yes"/>
      <point x="362" y="51"/>
      <point x="406" y="-10"/>
    </contour>
  </outline>
</glyph>
<glyph name="oslash" format="2">
  <advance width="747"/>
  <unicode hex="00F8"/>
  <anchor x="373" y="0" name="bottom"/>
  <anchor x="373" y="536" name="top"/>
  <outline>
    <contour>
      <point x="141" y="-40" type="line"/>
      <point x="154" y="-40" type="line"/>
      <point x="199" y="23" type="line"/>
      <point x="246" y="1"/>
      <point x="304" y="-10"/>
      <point x="371" y="-10" type="curve" smooth="yes"/>
      <point x="585" y="-10"/>
      <point x="697" y="84"/>
      <point x="697" y="272" type="curve" smooth="yes"/>
      <point x="697" y="395"/>
      <point x="646" y="476"/>
      <point x="557" y="517" type="curve"/>
      <point x="598" y="575" type="line"/>
      <point x="585" y="575" type="line"/>
      <point x="545" y="522" type="line"/>
      <point x="498" y="543"/>
      <point x="440" y="552"/>
      <point x="374" y="552" type="curve" smooth="yes"/>
      <point x="160" y="552"/>
      <point x="48" y="460"/>
      <point x="48" y="272" type="curve" smooth="yes"/>
      <point x="48" y="152"/>
      <point x="98" y="70"/>
      <point x="189" y="26" type="curve"/>
    </contour>
    <contour>
      <point x="373" y="0" type="curve" smooth="yes"/>
      <point x="320" y="0"/>
      <point x="293" y="39"/>
      <point x="284" y="140" type="curve"/>
      <point x="464" y="392" type="line"/>
      <point x="467" y="359"/>
      <point x="468" y="318"/>
      <point x="468" y="272" type="curve" smooth="yes"/>
      <point x="468" y="73"/>
      <point x="446" y="0"/>
    </contour>
    <contour>
      <point x="281" y="157" type="line"/>
      <point x="279" y="190"/>
      <point x="278" y="227"/>
      <point x="278" y="272" type="curve" smooth="yes"/>
      <point x="278" y="467"/>
      <point x="300" y="542"/>
      <point x="372" y="542" type="curve" smooth="yes"/>
      <point x="424" y="542"/>
      <point x="452" y="502"/>
      <point x="463" y="407" type="curve"/>
    </contour>
  </outline>
</glyph>
<glyph name="dcroat" format="2">
  <advance width="787"/>
  <unicode hex="0111"/>
  <anchor x="394" y="0" name="bottom"/>
  <anchor x="394" y="760" name="top"/>
  <outline>
    <contour>
      <point x="267" y="-10" type="curve" smooth="yes"/>
      <point x="368" y="-10"/>
      <point x="421" y="42"/>
      <point x="447" y="177" type="curve"/>
      <point x="449" y="177" type="line"/>
      <point x="449" y="0" type="line"/>
      <point x="764" y="0" type="line"/>
      <point x="764" y="10" type="line"/>
      <point x="759" y="10" type="line" smooth="yes"/>
      <point x="734" y="10"/>
      <point x="675" y="11"/>
      <point x="675" y="69" type="curve" smooth="yes"/>
      <point x="675" y="586" type="line"/>
      <point x="773" y="586" type="line"/>
      <point x="773" y="596" type="line"/>
      <point x="675" y="596" type="line"/>
      <point x="675" y="760" type="line"/>
      <point x="346" y="760" type="line"/>
      <point x="346" y="750" type="line"/>
      <point x="366" y="750" type="line" smooth="yes"/>
      <point x="414" y="750"/>
      <point x="448" y="735"/>
      <point x="448" y="679" type="curve" smooth="yes"/>
      <point x="448" y="596" type="line"/>
      <point x="281" y="596" type="line"/>
      <point x="281" y="586" type="line"/>
      <point x="448" y="586" type="line"/>
      <point x="448" y="426" type="line" smooth="yes"/>
      <point x="448" y="421"/>
      <point x="448" y="373"/>
      <point x="449" y="310" type="curve"/>
      <point x="447" y="310" type="line"/>
      <point x="424" y="445"/>
      <point x="351" y="504"/>
      <point x="254" y="504" type="curve" smooth="yes"/>
      <point x="118" y="504"/>
      <point x="46" y="402"/>
      <point x="46" y="249" type="curve" smooth="yes"/>
      <point x="46" y="97"/>
      <point x="118" y="-10"/>
    </contour>
    <contour>
      <point x="352" y="30" type="curve" smooth="yes"/>
      <point x="302" y="30"/>
      <point x="274" y="154"/>
      <point x="274" y="256" type="curve" smooth="yes"/>
      <point x="274" y="335"/>
      <point x="306" y="444"/>
      <point x="353" y="444" type="curve" smooth="yes"/>
      <point x="399" y="444"/>
      <point x="448" y="355"/>
      <point x="448" y="251" type="curve" smooth="yes"/>
      <point x="448" y="127"/>
      <point x="393" y="30"/>
    </contour>
  </outline>
</glyph>
<glyph name="eogonek" format="2">
  <advance width="697"/>
  <unicode hex="0119"/>
  <anchor x="348" y="-242" name="bottom"/>
  <anchor x="348" y="536" name="top"/>
  <outline>
    <contour>
      <point x="474" y="-240" type="curve" smooth="yes"/>
      <point x="525" y="-240"/>
      <point x="552" y="-234"/>
      <point x="589" y="-224" type="curve"/>
      <point x="589" y="-215" type="line"/>
      <point x="575" y="-221"/>
      <point x="560" y="-226"/>
      <point x="541" y="-226" type="curve" smooth="yes"/>
      <point x="479" y="-226"/>
      <point x="452" y="-174"/>
      <point x="452" y="-140" type="curve" smooth="yes"/>
      <point x="452" y="-76"/>
      <point x="481" y="-27"/>
      <point x="546" y="17" type="curve"/>
      <point x="596" y="36"/>
      <point x="632" y="67"/>
      <point x="632" y="117" type="curve" smooth="yes"/>
      <point x="632" y="161"/>
      <point x="606" y="179"/>
      <point x="560" y="187" type="curve"/>
      <point x="565" y="72"/>
      <point x="536" y="4"/>
      <point x="441" y="4" type="curve" smooth="yes"/>
      <point x="323" y="4"/>
      <point x="278" y="92"/>
      <point x="276" y="285" type="curve"/>
      <point x="654" y="285" type="line"/>
      <point x="654" y="310" type="line" smooth="yes"/>
      <point x="654" y="470"/>
      <point x="542" y="552"/>
      <point x="359" y="552" type="curve" smooth="yes"/>
      <point x="161" y="552"/>
      <point x="48" y="455"/>
      <point x="48" y="267" type="curve" smooth="yes"/>
      <point x="48" y="91"/>
      <point x="161" y="-10"/>
      <point x="381" y="-10" type="curve" smooth="yes"/>
      <point x="399" y="-10"/>
      <point x="419" y="-11"/>
      <point x="478" y="-6" type="curve"/>
      <point x="359" y="-37"/>
      <point x="304" y="-80"/>
      <point x="304" y="-136" type="curve" smooth="yes"/>
      <point x="304" y="-211"/>
      <point x="361" y="-240"/>
    </contour>
    <contour>
      <point x="276" y="295" type="line"/>
      <point x="276" y="473"/>
      <point x="305" y="542"/>
      <point x="358" y="542" type="curve" smooth="yes"/>
      <point x="414" y="542"/>
      <point x="432" y="473"/>
      <point x="432" y="295" type="curve"/>
    </contour>
  </outline>
</glyph>
<glyph name="Hbar" format="2">
  <advance width="977"/>
  <unicode hex="0126"/>
  <anchor x="488" y="0" name="bottom"/>
  <anchor x="488" y="714" name="top"/>
  <outline>
    <contour>
      <point x="24" y="0" type="line"/>
      <point x="450" y="0" type="line"/>
      <point x="450" y="10" type="line"/>
      <point x="407" y="10" type="line" smooth="yes"/>
      <point x="381" y="10"/>
      <point x="364" y="43"/>
      <point x="364" y="55" type="curve" smooth="yes"/>
      <point x="364" y="368" type="line"/>
      <point x="614" y="368" type="line"/>
      <point x="614" y="62" type="line" smooth="yes"/>
      <point x="614" y="42"/>
      <point x="596" y="10"/>
      <point x="565" y="10" type="curve" smooth="yes"/>
      <point x="528" y="10" type="line"/>
      <point x="528" y="0" type="line"/>
      <point x="954" y="0" type="line"/>
      <point x="954" y="10" type="line"/>
      <point x="892" y="10" type="line" smooth="yes"/>
      <point x="870" y="10"/>
      <point x="846" y="41"/>
      <point x="846" y="58" type="curve" smooth="yes"/>
      <point x="846" y="522" type="line"/>
      <point x="973" y="522" type="line"/>
      <point x="973" y="532" type="line"/>
      <point x="846" y="532" type="line"/>
      <point x="846" y="658" type="line" smooth="yes"/>
      <point x="846" y="683"/>
      <point x="868" y="704"/>
      <point x="892" y="704" type="curve" smooth="yes"/>
      <point x="954" y="704" type="line"/>
      <point x="954" y="714" type="line"/>
      <point x="528" y="714" type="line"/>
      <point x="528" y="704" type="line"/>
      <point x="564" y="704" type="line" smooth="yes"/>
      <point x="598" y="704"/>
      <point x="614" y="683"/>
      <point x="614" y="658" type="curve" smooth="yes"/>
      <point x="614" y="532" type="line"/>
      <point x="364" y="532" type="line"/>
      <point x="364" y="661" type="line" smooth="yes"/>
      <point x="364" y="683"/>
      <point x="381" y="704"/>
      <point x="407" y="704" type="curve" smooth="yes"/>
      <point x="450" y="704" type="line"/>
      <point x="450" y="714" type="line"/>
      <point x="24" y="714" type="line"/>
      <point x="24" y="704" type="line"/>
      <point x="76" y="704" type="line" smooth="yes"/>
      <point x="100" y="704"/>
      <point x="132" y="684"/>
      <point x="132" y="655" type="curve" smooth="yes"/>
      <point x="132" y="532" type="line"/>
      <point x="3" y="532" type="line"/>
      <point x="3" y="522" type="line"/>
      <point x="132" y="522" type="line"/>
      <point x="132" y="55" type="line" smooth="yes"/>
      <point x="132" y="43"/>
      <point x="108" y="10"/>
      <point x="86" y="10" type="curve" smooth="yes"/>
      <point x="24" y="10" type="line"/>
    </contour>
    <contour>
      <point x="364" y="378" type="line"/>
      <point x="364" y="522" type="line"/>
      <point x="614" y="522" type="line"/>
      <point x="614" y="378" type="line"/>
    </contour>
  </outline>
</glyph>
<glyph name="idotless" format="2">
  <advance width="439"/>
  <unicode hex="0131"/>
  <anchor x="219" y="0" name="bottom"/>
  <anchor x="219" y="536" name="top"/>
  <outline>
    <contour>
      <point x="14" y="0" type="line"/>
      <point x="414" y="0" type="line"/>
      <point x="414" y="10" type="line"/>
      <point x="401" y="10" type="line" smooth="yes"/>
      <point x="358" y="10"/>
      <point x="328" y="29"/>
      <point x="328" y="79" type="curve" smooth="yes"/>
      <point x="328" y="536" type="line"/>
      <point x="6" y="536" type="line"/>
      <point x="6" y="526" type="line"/>
      <point x="29" y="526" type="line" smooth="yes"/>
      <point x="71" y="526"/>
      <point x="102" y="507"/>
      <point x="102" y="461" type="curve" smooth="yes"/>
      <point x="102" y="85" type="line" smooth="yes"/>
      <point x="102" y="30"/>
      <point x="73" y="10"/>
      <point x="29" y="10" type="curve" smooth="yes"/>
      <point x="14" y="10" type="line"/>
    </contour>
  </outline>
</glyph>
<glyph name="lslash" format="2">
  <advance width="435"/>
  <unicode hex="0142"/>
  <anchor x="218" y="0" name="bottom"/>
  <anchor x="218" y="760" name="top"/>
  <outline>
    <contour>
      <point x="24" y="0" type="line"/>
      <point x="424" y="0" type="line"/>
      <point x="424" y="10" type="line"/>
      <point x="410" y="10" type="line" smooth="yes"/>
      <point x="367" y="10"/>
      <point x="337" y="29"/>
      <point x="337" y="79" type="curve" smooth="yes"/>
      <point x="337" y="455" type="line"/>
      <point x="434" y="512" type="line"/>
      <point x="434" y="522" type="line"/>
      <point x="337" y="465" type="line"/>
      <point x="337" y="760" type="line"/>
      <point x="24" y="760" type="line"/>
      <point x="24" y="750" type="line"/>
      <point x="36" y="750" type="line" smooth="yes"/>
      <point x="55" y="750"/>
      <point x="110" y="743"/>
      <point x="110" y="697" type="curve" smooth="yes"/>
      <point x="110" y="331" type="line"/>
      <point x="18" y="278" type="line"/>
      <point x="18" y="268" type="line"/>
      <point x="110" y="321" type="line"/>
      <point x="110" y="79" type="line" smooth="yes"/>
      <point x="110" y="29"/>
      <point x="80" y="10"/>
      <point x="36" y="10" type="curve" smooth="yes"/>
      <point x="24" y="10" type="line"/>
    </contour>
  </outline>
</glyph>
<glyph name="oe" format="2">
  <advance width="1116"/>
  <unicode hex="0153"/>
  <anchor x="558" y="0" name="bottom"/>
  <anchor x="558" y="536" name="top"/>
  <outline>
    <contour>
      <point x="371" y="-10" type="curve" smooth="yes"/>
      <point x="463" y="-10"/>
      <point x="535" y="21"/>
      <point x="585" y="80" type="curve"/>
      <point x="637" y="21"/>
      <point x="720" y="-10"/>
      <point x="820" y="-10" type="curve" smooth="yes"/>
      <point x="956" y="-10"/>
      <point x="1051" y="26"/>
      <point x="1051" y="117" type="curve" smooth="yes"/>
      <point x="1051" y="161"/>
      <point x="1025" y="179"/>
      <point x="979" y="187" type="curve"/>
      <point x="984" y="72"/>
      <point x="955" y="4"/>
      <point x="860" y="4" type="curve" smooth="yes"/>
      <point x="742" y="4"/>
      <point x="697" y="92"/>
      <point x="695" y="285" type="curve"/>
      <point x="1073" y="285" type="line"/>
      <point x="1073" y="310" type="line" smooth="yes"/>
      <point x="1073" y="470"/>
      <point x="961" y="552"/>
      <point x="778" y="552" type="curve" smooth="yes"/>
      <point x="694" y="552"/>
      <point x="628" y="523"/>
      <point x="582" y="470" type="curve"/>
      <point x="535" y="523"/>
      <point x="464" y="552"/>
      <point x="374" y="552" type="curve" smooth="yes"/>
      <point x="160" y="552"/>
      <point x="48" y="460"/>
      <point x="48" y="272" type="curve" smooth="yes"/>
      <point x="48" y="84"/>
      <point x="171" y="-10"/>
    </contour>
    <contour>
      <point x="373" y="0" type="curve" smooth="yes"/>
      <point x="300" y="0"/>
      <point x="278" y="73"/>
      <point x="278" y="272" type="curve" smooth="yes"/>
      <point x="278" y="467"/>
      <point x="300" y="542"/>
      <point x="372" y="542" type="curve" smooth="yes"/>
      <point x="444" y="542"/>
      <point x="468" y="467"/>
      <point x="468" y="272" type="curve" smooth="yes"/>
      <point x="468" y="73"/>
      <point x="446" y="0"/>
    </contour>
    <contour>
      <point x="695" y="295" type="line"/>
      <point x="695" y="473"/>
      <point x="724" y="542"/>
      <point x="777" y="542" type="curve" smooth="yes"/>
      <point x="833" y="542"/>
      <point x="851" y="473"/>
      <point x="851" y="295" type="curve"/>
    </contour>
  </outline>
</glyph>
<glyph name="tbar" format="2">
  <advance width="517"/>
  <unicode hex="0167"/>
  <anchor x="258" y="0" name="bottom"/>
  <anchor x="258" y="662" name="top"/>
  <anchor x="477" y="662" name="topright"/>
  <anchor x="258" y="268" name="center"/>
  <outline>
    <contour>
      <point x="32" y="295" type="line"/>
      <point x="449" y="295" type="line"/>
      <point x="449" y="305" type="line"/>
      <point x="32" y="305" type="line"/>
    </contour>
    <component base="t"/>
  </outline>
</glyph>
<glyph name="longs" format="2">
  <advance width="488"/>
  <unicode hex="017F"/>
  <anchor x="245" y="0" name="bottom"/>
  <anchor x="335" y="767" name="top"/>
  <outline>
    <contour>
      <point x="4" y="0" type="line"/>
      <point x="473" y="0" type="line"/>
      <point x="473" y="10" type="line"/>
      <point x="410" y="10" type="line" smooth="yes"/>
      <point x="367" y="10"/>
      <point x="337" y="31"/>
      <point x="337" y="79" type="curve" smooth="yes"/>
      <point x="337" y="640" type="line" smooth="yes"/>
      <point x="337" y="729"/>
      <point x="354" y="757"/>
      <point x="390" y="757" type="curve" smooth="yes"/>
      <point x="433" y="757"/>
      <point x="440" y="719"/>
      <point x="440" y="615" type="curve"/>
      <point x="544" y="615"/>
      <point x="588" y="635"/>
      <point x="588" y="679" type="curve" smooth="yes"/>
      <point x="588" y="721"/>
      <point x="555" y="767"/>
      <point x="383" y="767" type="curve" smooth="yes"/>
      <point x="191" y="767"/>
      <point x="111" y="687"/>
      <point x="111" y="557" type="curve" smooth="yes"/>
      <point x="111" y="79" type="line" smooth="yes"/>
      <point x="111" y="29"/>
      <point x="80" y="10"/>
      <point x="37" y="10" type="curve" smooth="yes"/>
      <point x="4" y="10" type="line"/>
    </contour>
  </outline>
</glyph>
<glyph name="uni0180" format="2">
  <advance width="787"/>
  <unicode hex="0180"/>
  <anchor x="394" y="0" name="bottom"/>
  <anchor x="394" y="760" name="top"/>
  <outline>
    <contour>
      <point x="518" y="-10" type="curve" smooth="yes"/>
      <point x="667" y="-10"/>
      <point x="737" y="110"/>
      <point x="737" y="258" type="curve" smooth="yes"/>
      <point x="737" y="415"/>
      <point x="667" y="517"/>
      <point x="531" y="517" type="curve" smooth="yes"/>
      <point x="434" y="517"/>
      <point x="361" y="458"/>
      <point x="338" y="323" type="curve"/>
      <point x="336" y="323" type="line"/>
      <point x="337" y="418"/>
      <point x="337" y="530"/>
      <point x="337" y="577" type="curve" smooth="yes"/>
      <point x="337" y="592" type="line"/>
      <point x="503" y="592" type="line"/>
      <point x="503" y="602" type="line"/>
      <point x="337" y="602" type="line"/>
      <point x="337" y="760" type="line"/>
      <point x="19" y="760" type="line"/>
      <point x="19" y="750" type="line"/>
      <point x="25" y="750" type="line" smooth="yes"/>
      <point x="76" y="750"/>
      <point x="110" y="735"/>
      <point x="110" y="679" type="curve" smooth="yes"/>
      <point x="110" y="602" type="line"/>
      <point x="20" y="602" type="line"/>
      <point x="20" y="592" type="line"/>
      <point x="110" y="592" type="line"/>
      <point x="110" y="69" type="line" smooth="yes"/>
      <point x="110" y="11"/>
      <point x="51" y="10"/>
      <point x="26" y="10" type="curve" smooth="yes"/>
      <point x="19" y="10" type="line"/>
      <point x="19" y="0" type="line"/>
      <point x="336" y="0" type="line"/>
      <point x="336" y="167" type="line"/>
      <point x="338" y="167" type="line"/>
      <point x="359" y="40"/>
      <point x="412" y="-10"/>
    </contour>
    <contour>
      <point x="430" y="30" type="curve" smooth="yes"/>
      <point x="381" y="30"/>
      <point x="337" y="140"/>
      <point x="337" y="260" type="curve" smooth="yes"/>
      <point x="337" y="368"/>
      <point x="384" y="456"/>
      <point x="432" y="456" type="curve" smooth="yes"/>
      <point x="479" y="456"/>
      <point x="511" y="348"/>
      <point x="511" y="265" type="curve" smooth="yes"/>
      <point x="511" y="167"/>
      <point x="483" y="30"/>
    </contour>
  </outline>
</glyph>
<glyph name="uni0181" format="2">
  <advance width="1043"/>
  <unicode hex="0181"/>
  <anchor x="502" y="0" name="bottom"/>
  <anchor x="502" y="714" name="top"/>
  <outline>
    <contour>
      <point x="228" y="0" type="line"/>
      <point x="645" y="0" type="line" smooth="yes"/>
      <point x="892" y="0"/>
      <point x="1008" y="67"/>
      <point x="1008" y="191" type="curve" smooth="yes"/>
      <point x="1008" y="335"/>
      <point x="880" y="390"/>
      <point x="669" y="380" type="curve"/>
      <point x="669" y="382" type="line"/>
      <point x="872" y="383"/>
      <point x="974" y="425"/>
      <point x="974" y="542" type="curve" smooth="yes"/>
      <point x="974" y="651"/>
      <point x="866" y="714"/>
      <point x="610" y="714" type="curve" smooth="yes"/>
      <point x="274" y="714" type="line" smooth="yes"/>
      <point x="85" y="714"/>
      <point x="9" y="629"/>
      <point x="9" y="533" type="curve" smooth="yes"/>
      <point x="9" y="469"/>
      <point x="45" y="420"/>
      <point x="109" y="420" type="curve" smooth="yes"/>
      <point x="144" y="420"/>
      <point x="167" y="431"/>
      <point x="187" y="446" type="curve"/>
      <point x="156" y="484"/>
      <point x="143" y="531"/>
      <point x="143" y="573" type="curve" smooth="yes"/>
      <point x="143" y="667"/>
      <point x="174" y="704"/>
      <point x="250" y="704" type="curve" smooth="yes"/>
      <point x="329" y="704"/>
      <point x="335" y="672"/>
      <point x="335" y="594" type="curve" smooth="yes"/>
      <point x="335" y="61" type="line" smooth="yes"/>
      <point x="335" y="35"/>
      <point x="321" y="10"/>
      <point x="289" y="10" type="curve" smooth="yes"/>
      <point x="228" y="10" type="line"/>
    </contour>
    <contour>
      <point x="567" y="10" type="line"/>
      <point x="567" y="368" type="line"/>
      <point x="630" y="368" type="line" smooth="yes"/>
      <point x="714" y="368"/>
      <point x="760" y="306"/>
      <point x="760" y="196" type="curve" smooth="yes"/>
      <point x="760" y="77"/>
      <point x="714" y="10"/>
      <point x="628" y="10" type="curve" smooth="yes"/>
    </contour>
    <contour>
      <point x="567" y="378" type="line"/>
      <point x="567" y="704" type="line"/>
      <point x="597" y="704" type="line" smooth="yes"/>
      <point x="685" y="704"/>
      <point x="732" y="644"/>
      <point x="732" y="534" type="curve" smooth="yes"/>
      <point x="732" y="436"/>
      <point x="686" y="378"/>
      <point x="600" y="378" type="curve" smooth="yes"/>
    </contour>
  </outline>
</glyph>
<glyph name="uni0185" format="2">
  <advance width="795"/>
  <unicode hex="0185"/>
  <anchor x="397" y="0" name="bottom"/>
  <anchor x="397" y="760" name="top"/>
  <outline>
    <contour>
      <point x="407" y="-10" type="curve" smooth="yes"/>
      <point x="629" y="-10"/>
      <point x="737" y="82"/>
      <point x="737" y="275" type="curve" smooth="yes"/>
      <point x="737" y="448"/>
      <point x="667" y="550"/>
      <point x="531" y="550" type="curve" smooth="yes"/>
      <point x="434" y="550"/>
      <point x="361" y="491"/>
      <point x="338" y="356" type="curve"/>
      <point x="336" y="356" type="line"/>
      <point x="337" y="451"/>
      <point x="337" y="563"/>
      <point x="337" y="610" type="curve" smooth="yes"/>
      <point x="337" y="760" type="line"/>
      <point x="19" y="760" type="line"/>
      <point x="19" y="750" type="line"/>
      <point x="25" y="750" type="line" smooth="yes"/>
      <point x="76" y="750"/>
      <point x="110" y="735"/>
      <point x="110" y="679" type="curve" smooth="yes"/>
      <point x="110" y="251" type="line" smooth="yes"/>
      <point x="110" y="84"/>
      <point x="215" y="-10"/>
    </contour>
    <contour>
      <point x="431" y="0" type="curve" smooth="yes"/>
      <point x="366" y="0"/>
      <point x="337" y="46"/>
      <point x="337" y="277" type="curve" smooth="yes"/>
      <point x="337" y="401"/>
      <point x="384" y="489"/>
      <point x="432" y="489" type="curve" smooth="yes"/>
      <point x="489" y="489"/>
      <point x="511" y="431"/>
      <point x="511" y="282" type="curve" smooth="yes"/>
      <point x="511" y="46"/>
      <point x="486" y="0"/>
    </contour>
  </outline>
</glyph>
<glyph name="uni0186" format="2">
  <advance width="827"/>
  <unicode hex="0186"/>
  <anchor x="414" y="0" name="bottom"/>
  <anchor x="414" y="714" name="top"/>
  <outline>
    <contour>
      <point x="329" y="-10" type="curve" smooth="yes"/>
      <point x="619" y="-10"/>
      <point x="770" y="152"/>
      <point x="770" y="367" type="curve" smooth="yes"/>
      <point x="770" y="581"/>
      <point x="634" y="724"/>
      <point x="351" y="724" type="curve" smooth="yes"/>
      <point x="198" y="724"/>
      <point x="56" y="688"/>
      <point x="56" y="578" type="curve" smooth="yes"/>
      <point x="56" y="524"/>
      <point x="86" y="482"/>
      <point x="208" y="482" type="curve"/>
      <point x="208" y="653"/>
      <point x="244" y="714"/>
      <point x="351" y="714" type="curve" smooth="yes"/>
      <point x="481" y="714"/>
      <point x="526" y="621"/>
      <point x="526" y="356" type="curve" smooth="yes"/>
      <point x="526" y="86"/>
      <point x="480" y="0"/>
      <point x="357" y="0" type="curve" smooth="yes"/>
      <point x="219" y="0"/>
      <point x="207" y="100"/>
      <point x="207" y="244" type="curve"/>
      <point x="75" y="244"/>
      <point x="36" y="200"/>
      <point x="36" y="141" type="curve" smooth="yes"/>
      <point x="36" y="70"/>
      <point x="113" y="-10"/>
    </contour>
  </outline>
</glyph>
<glyph name="uni0191" format="2">
  <advance width="751"/>
  <unicode hex="0191"/>
  <anchor x="375" y="-240" name="bottom"/>
  <anchor x="375" y="714" name="top"/>
  <outline>
    <contour>
      <point x="-46" y="-240" type="line"/>
      <point x="-8" y="-240" type="line" smooth="yes"/>
      <point x="262" y="-240"/>
      <point x="363" y="-141"/>
      <point x="363" y="97" type="curve" smooth="yes"/>
      <point x="363" y="346" type="line"/>
      <point x="637" y="346" type="line"/>
      <point x="637" y="356" type="line"/>
      <point x="363" y="356" type="line"/>
      <point x="363" y="704" type="line"/>
      <point x="534" y="704" type="line" smooth="yes"/>
      <point x="649" y="704"/>
      <point x="689" y="670"/>
      <point x="704" y="564" type="curve" smooth="yes"/>
      <point x="709" y="519" type="line"/>
      <point x="719" y="519" type="line"/>
      <point x="711" y="714" type="line"/>
      <point x="24" y="714" type="line"/>
      <point x="24" y="704" type="line"/>
      <point x="83" y="704" type="line" smooth="yes"/>
      <point x="109" y="704"/>
      <point x="132" y="688"/>
      <point x="132" y="658" type="curve" smooth="yes"/>
      <point x="132" y="-3" type="line" smooth="yes"/>
      <point x="132" y="-156"/>
      <point x="72" y="-230"/>
      <point x="-36" y="-230" type="curve" smooth="yes"/>
      <point x="-46" y="-230" type="line"/>
    </contour>
  </outline>
</glyph>
<glyph name="uni0197" format="2">
  <advance width="497"/>
  <unicode hex="0197"/>
  <anchor x="248" y="0" name="bottom"/>
  <anchor x="248" y="714" name="top"/>
  <outline>
    <contour>
      <point x="24" y="0" type="line"/>
      <point x="473" y="0" type="line"/>
      <point x="473" y="10" type="line"/>
      <point x="409" y="10" type="line" smooth="yes"/>
      <point x="393" y="10"/>
      <point x="365" y="37"/>
      <point x="365" y="54" type="curve" smooth="yes"/>
      <point x="365" y="367" type="line"/>
      <point x="484" y="367" type="line"/>
      <point x="484" y="377" type="line"/>
      <point x="365" y="377" type="line"/>
      <point x="365" y="654" type="line" smooth="yes"/>
      <point x="365" y="684"/>
      <point x="385" y="704"/>
      <point x="409" y="704" type="curve" smooth="yes"/>
      <point x="473" y="704" type="line"/>
      <point x="473" y="714" type="line"/>
      <point x="24" y="714" type="line"/>
      <point x="24" y="704" type="line"/>
      <point x="86" y="704" type="line" smooth="yes"/>
      <point x="98" y="704"/>
      <point x="132" y="684"/>
      <point x="132" y="655" type="curve" smooth="yes"/>
      <point x="132" y="377" type="line"/>
      <point x="11" y="377" type="line"/>
      <point x="11" y="367" type="line"/>
      <point x="132" y="367" type="line"/>
      <point x="132" y="51" type="line" smooth="yes"/>
      <point x="132" y="31"/>
      <point x="98" y="10"/>
      <point x="86" y="10" type="curve" smooth="yes"/>
      <point x="24" y="10" type="line"/>
    </contour>
  </outline>
</glyph>
<glyph name="ohorn" format="2">
  <advance width="868"/>
  <unicode hex="01A1"/>
  <anchor x="435" y="0" name="bottom"/>
  <anchor x="435" y="536" name="top"/>
  <outline>
    <contour>
      <point x="371" y="-10" type="curve" smooth="yes"/>
      <point x="585" y="-10"/>
      <point x="697" y="84"/>
      <point x="697" y="272" type="curve" smooth="yes"/>
      <point x="697" y="291"/>
      <point x="695" y="309"/>
      <point x="694" y="325" type="curve"/>
      <point x="797" y="349"/>
      <point x="878" y="419"/>
      <point x="878" y="521" type="curve" smooth="yes"/>
      <point x="878" y="592"/>
      <point x="833" y="628"/>
      <point x="776" y="628" type="curve" smooth="yes"/>
      <point x="726" y="628"/>
      <point x="687" y="599"/>
      <point x="687" y="550" type="curve" smooth="yes"/>
      <point x="687" y="462"/>
      <point x="813" y="498"/>
      <point x="813" y="430" type="curve" smooth="yes"/>
      <point x="813" y="402"/>
      <point x="788" y="364"/>
      <point x="692" y="335" type="curve"/>
      <point x="666" y="481"/>
      <point x="550" y="552"/>
      <point x="374" y="552" type="curve" smooth="yes"/>
      <point x="160" y="552"/>
      <point x="48" y="460"/>
      <point x="48" y="272" type="curve" smooth="yes"/>
      <point x="48" y="84"/>
      <point x="171" y="-10"/>
    </contour>
    <contour>
      <point x="373" y="0" type="curve" smooth="yes"/>
      <point x="300" y="0"/>
      <point x="278" y="73"/>
      <point x="278" y="272" type="curve" smooth="yes"/>
      <point x="278" y="467"/>
      <point x="300" y="542"/>
      <point x="372" y="542" type="curve" smooth="yes"/>
      <point x="444" y="542"/>
      <point x="468" y="467"/>
      <point x="468" y="272" type="curve" smooth="yes"/>
      <point x="468" y="73"/>
      <point x="446" y="0"/>
    </contour>
  </outline>
</glyph>
<glyph name="uni01A2" format="2">
  <advance width="1460"/>
  <unicode hex="01A2"/>
  <anchor x="731" y="0" name="bottom"/>
  <anchor x="731" y="714" name="top"/>
  <outline>
    <contour>
      <point x="972" y="-240" type="line"/>
      <point x="1419" y="-240" type="line"/>
      <point x="1419" y="-230" type="line"/>
      <point x="1369" y="-230" type="line" smooth="yes"/>
      <point x="1323" y="-230"/>
      <point x="1313" y="-211"/>
      <point x="1313" y="-161" type="curve" smooth="yes"/>
      <point x="1313" y="408" type="line" smooth="yes"/>
      <point x="1313" y="656"/>
      <point x="1225" y="724"/>
      <point x="1004" y="724" type="curve" smooth="yes"/>
      <point x="874" y="724"/>
      <point x="793" y="675"/>
      <point x="754" y="618" type="curve"/>
      <point x="704" y="673"/>
      <point x="617" y="725"/>
      <point x="450" y="725" type="curve" smooth="yes"/>
      <point x="189" y="725"/>
      <point x="63" y="580"/>
      <point x="63" y="359" type="curve" smooth="yes"/>
      <point x="63" y="137"/>
      <point x="189" y="-10"/>
      <point x="464" y="-10" type="curve" smooth="yes"/>
      <point x="727" y="-10"/>
      <point x="825" y="125"/>
      <point x="825" y="335" type="curve" smooth="yes"/>
      <point x="825" y="505" type="line" smooth="yes"/>
      <point x="825" y="629"/>
      <point x="849" y="708"/>
      <point x="952" y="708" type="curve" smooth="yes"/>
      <point x="1049" y="708"/>
      <point x="1077" y="636"/>
      <point x="1077" y="520" type="curve" smooth="yes"/>
      <point x="1077" y="-171" type="line" smooth="yes"/>
      <point x="1077" y="-218"/>
      <point x="1041" y="-230"/>
      <point x="1010" y="-230" type="curve" smooth="yes"/>
      <point x="972" y="-230" type="line"/>
    </contour>
    <contour>
      <point x="464" y="0" type="curve" smooth="yes"/>
      <point x="354" y="0"/>
      <point x="307" y="107"/>
      <point x="307" y="358" type="curve" smooth="yes"/>
      <point x="307" y="622"/>
      <point x="346" y="715"/>
      <point x="461" y="715" type="curve" smooth="yes"/>
      <point x="568" y="715"/>
      <point x="605" y="648"/>
      <point x="605" y="454" type="curve" smooth="yes"/>
      <point x="605" y="197" type="line" smooth="yes"/>
      <point x="605" y="60"/>
      <point x="563" y="0"/>
    </contour>
  </outline>
</glyph>
<glyph name="Uhorn" format="2">
  <advance width="1001"/>
  <unicode hex="01AF"/>
  <anchor x="501" y="0" name="bottom"/>
  <anchor x="501" y="714" name="top"/>
  <outline>
    <contour>
      <point x="462" y="-10" type="curve" smooth="yes"/>
      <point x="693" y="-10"/>
      <point x="747" y="115"/>
      <point x="747" y="220" type="curve" smooth="yes"/>
      <point x="747" y="457" type="line"/>
      <point x="912" y="463"/>
      <point x="1025" y="537"/>
      <point x="1025" y="663" type="curve" smooth="yes"/>
      <point x="1025" y="734"/>
      <point x="980" y="770"/>
      <point x="923" y="770" type="curve" smooth="yes"/>
      <point x="873" y="770"/>
      <point x="834" y="741"/>
      <point x="834" y="692" type="curve" smooth="yes"/>
      <point x="834" y="604"/>
      <point x="960" y="640"/>
      <point x="960" y="570" type="curve" smooth="yes"/>
      <point x="960" y="516"/>
      <point x="869" y="472"/>
      <point x="747" y="467" type="curve"/>
      <point x="747" y="714" type="line"/>
      <point x="593" y="714" type="line"/>
      <point x="593" y="704" type="line"/>
      <point x="665" y="704" type="line" smooth="yes"/>
      <point x="707" y="704"/>
      <point x="737" y="697"/>
      <point x="737" y="651" type="curve" smooth="yes"/>
      <point x="737" y="218" type="line" smooth="yes"/>
      <point x="737" y="96"/>
      <point x="656" y="9"/>
      <point x="520" y="9" type="curve" smooth="yes"/>
      <point x="412" y="9"/>
      <point x="361" y="68"/>
      <point x="361" y="157" type="curve" smooth="yes"/>
      <point x="361" y="647" type="line" smooth="yes"/>
      <point x="361" y="697"/>
      <point x="393" y="704"/>
      <point x="434" y="704" type="curve" smooth="yes"/>
      <point x="468" y="704" type="line"/>
      <point x="468" y="714" type="line"/>
      <point x="20" y="714" type="line"/>
      <point x="20" y="704" type="line"/>
      <point x="53" y="704" type="line" smooth="yes"/>
      <point x="94" y="704"/>
      <point x="128" y="697"/>
      <point x="128" y="651" type="curve" smooth="yes"/>
      <point x="128" y="220" type="line" smooth="yes"/>
      <point x="128" y="56"/>
      <point x="267" y="-10"/>
    </contour>
  </outline>
</glyph>
<glyph name="uhorn" format="2">
  <advance width="934"/>
  <unicode hex="01B0"/>
  <anchor x="467" y="0" name="bottom"/>
  <anchor x="437" y="536" name="top"/>
  <outline>
    <contour>
      <point x="293" y="-10" type="curve" smooth="yes"/>
      <point x="396" y="-10"/>
      <point x="450" y="30"/>
      <point x="469" y="121" type="curve"/>
      <point x="471" y="121" type="line"/>
      <point x="471" y="0" type="line"/>
      <point x="774" y="0" type="line"/>
      <point x="774" y="10" type="line"/>
      <point x="770" y="10" type="line" smooth="yes"/>
      <point x="722" y="10"/>
      <point x="695" y="13"/>
      <point x="695" y="72" type="curve" smooth="yes"/>
      <point x="695" y="316" type="line"/>
      <point x="844" y="329"/>
      <point x="946" y="401"/>
      <point x="946" y="521" type="curve" smooth="yes"/>
      <point x="946" y="592"/>
      <point x="901" y="628"/>
      <point x="844" y="628" type="curve" smooth="yes"/>
      <point x="794" y="628"/>
      <point x="755" y="599"/>
      <point x="755" y="550" type="curve" smooth="yes"/>
      <point x="755" y="462"/>
      <point x="881" y="498"/>
      <point x="881" y="428" type="curve" smooth="yes"/>
      <point x="881" y="378"/>
      <point x="804" y="336"/>
      <point x="695" y="326" type="curve"/>
      <point x="695" y="536" type="line"/>
      <point x="382" y="536" type="line"/>
      <point x="382" y="526" type="line"/>
      <point x="388" y="526" type="line" smooth="yes"/>
      <point x="443" y="526"/>
      <point x="468" y="522"/>
      <point x="468" y="463" type="curve" smooth="yes"/>
      <point x="468" y="210" type="line" smooth="yes"/>
      <point x="468" y="157"/>
      <point x="461" y="50"/>
      <point x="396" y="50" type="curve" smooth="yes"/>
      <point x="342" y="50"/>
      <point x="330" y="105"/>
      <point x="330" y="203" type="curve" smooth="yes"/>
      <point x="330" y="536" type="line"/>
      <point x="32" y="536" type="line"/>
      <point x="32" y="526" type="line"/>
      <point x="34" y="526" type="line" smooth="yes"/>
      <point x="86" y="526"/>
      <point x="102" y="525"/>
      <point x="102" y="456" type="curve" smooth="yes"/>
      <point x="102" y="179" type="line" smooth="yes"/>
      <point x="102" y="46"/>
      <point x="166" y="-10"/>
    </contour>
  </outline>
</glyph>
<glyph name="uni01B3" format="2">
  <advance width="938"/>
  <unicode hex="01B3"/>
  <anchor x="434" y="0" name="bottom"/>
  <anchor x="434" y="714" name="top"/>
  <anchor x="846" y="714" name="topright"/>
  <outline>
    <contour>
      <point x="196" y="0" type="line"/>
      <point x="676" y="0" type="line"/>
      <point x="676" y="10" type="line"/>
      <point x="620" y="10" type="line" smooth="yes"/>
      <point x="594" y="10"/>
      <point x="553" y="14"/>
      <point x="553" y="73" type="curve" smooth="yes"/>
      <point x="553" y="216" type="line"/>
      <point x="648" y="424" type="line" smooth="yes"/>
      <point x="704" y="549"/>
      <point x="733" y="592"/>
      <point x="798" y="592" type="curve" smooth="yes"/>
      <point x="849" y="592"/>
      <point x="871" y="565"/>
      <point x="874" y="536" type="curve"/>
      <point x="898" y="537"/>
      <point x="956" y="559"/>
      <point x="956" y="630" type="curve" smooth="yes"/>
      <point x="956" y="687"/>
      <point x="919" y="720"/>
      <point x="847" y="720" type="curve" smooth="yes"/>
      <point x="754" y="720"/>
      <point x="705" y="641"/>
      <point x="667" y="545" type="curve" smooth="yes"/>
      <point x="572" y="296" type="line" smooth="yes"/>
      <point x="566" y="278"/>
      <point x="552" y="239"/>
      <point x="546" y="228" type="curve"/>
      <point x="470" y="370"/>
      <point x="466" y="377"/>
      <point x="418" y="470" type="curve" smooth="yes"/>
      <point x="351" y="557" type="line" smooth="yes"/>
      <point x="329" y="599"/>
      <point x="315" y="633"/>
      <point x="315" y="655" type="curve" smooth="yes"/>
      <point x="315" y="690"/>
      <point x="349" y="704"/>
      <point x="406" y="704" type="curve" smooth="yes"/>
      <point x="426" y="704" type="line"/>
      <point x="426" y="714" type="line"/>
      <point x="5" y="714" type="line"/>
      <point x="5" y="704" type="line"/>
      <point x="3" y="704" type="line" smooth="yes"/>
      <point x="20" y="704"/>
      <point x="46" y="689"/>
      <point x="67" y="651" type="curve" smooth="yes"/>
      <point x="319" y="181" type="line"/>
      <point x="319" y="76" type="line" smooth="yes"/>
      <point x="319" y="16"/>
      <point x="279" y="10"/>
      <point x="236" y="10" type="curve" smooth="yes"/>
      <point x="196" y="10" type="line"/>
    </contour>
  </outline>
</glyph>
<glyph name="uni01BE" format="2">
  <advance width="613"/>
  <unicode hex="01BE"/>
  <anchor x="392" y="0" name="bottom"/>
  <anchor x="392" y="662" name="top"/>
  <outline>
    <contour>
      <point x="286" y="-10" type="curve" smooth="yes"/>
      <point x="483" y="-10"/>
      <point x="570" y="69"/>
      <point x="570" y="185" type="curve" smooth="yes"/>
      <point x="570" y="275"/>
      <point x="521" y="308"/>
      <point x="470" y="326" type="curve" smooth="yes"/>
      <point x="420" y="344"/>
      <point x="369" y="351"/>
      <point x="369" y="413" type="curve" smooth="yes"/>
      <point x="369" y="526" type="line"/>
      <point x="516" y="526" type="line"/>
      <point x="516" y="536" type="line"/>
      <point x="369" y="536" type="line"/>
      <point x="369" y="660" type="line"/>
      <point x="359" y="660" type="line"/>
      <point x="332" y="599"/>
      <point x="293" y="579"/>
      <point x="248" y="563" type="curve" smooth="yes"/>
      <point x="189" y="541"/>
      <point x="131" y="536"/>
      <point x="56" y="536" type="curve"/>
      <point x="56" y="526" type="line"/>
      <point x="142" y="526" type="line"/>
      <point x="142" y="388" type="line" smooth="yes"/>
      <point x="142" y="265"/>
      <point x="231" y="231"/>
      <point x="308" y="204" type="curve" smooth="yes"/>
      <point x="380" y="179"/>
      <point x="433" y="165"/>
      <point x="433" y="98" type="curve" smooth="yes"/>
      <point x="433" y="30"/>
      <point x="384" y="0"/>
      <point x="306" y="0" type="curve" smooth="yes"/>
      <point x="200" y="0"/>
      <point x="161" y="67"/>
      <point x="161" y="194" type="curve"/>
      <point x="112" y="194"/>
      <point x="42" y="182"/>
      <point x="42" y="109" type="curve" smooth="yes"/>
      <point x="42" y="32"/>
      <point x="139" y="-10"/>
    </contour>
  </outline>
</glyph>
<glyph name="uni01BF" format="2">
  <advance width="779"/>
  <unicode hex="01BF"/>
  <anchor x="389" y="-240" name="bottom"/>
  <anchor x="389" y="536" name="top"/>
  <outline>
    <contour>
      <point x="11" y="-217" type="line"/>
      <point x="443" y="-217" type="line"/>
      <point x="443" y="-207" type="line"/>
      <point x="412" y="-207" type="line" smooth="yes"/>
      <point x="387" y="-207"/>
      <point x="328" y="-206"/>
      <point x="328" y="-148" type="curve" smooth="yes"/>
      <point x="328" y="-2" type="line"/>
      <point x="718" y="72"/>
      <point x="733" y="296"/>
      <point x="733" y="345" type="curve" smooth="yes"/>
      <point x="733" y="484"/>
      <point x="664" y="550"/>
      <point x="523" y="550" type="curve" smooth="yes"/>
      <point x="426" y="550"/>
      <point x="353" y="491"/>
      <point x="330" y="356" type="curve"/>
      <point x="328" y="356" type="line"/>
      <point x="328" y="536" type="line"/>
      <point x="32" y="536" type="line"/>
      <point x="32" y="526" type="line"/>
      <point x="34" y="526" type="line" smooth="yes"/>
      <point x="104" y="526"/>
      <point x="102" y="501"/>
      <point x="102" y="455" type="curve" smooth="yes"/>
      <point x="102" y="-148" type="line" smooth="yes"/>
      <point x="102" y="-206"/>
      <point x="43" y="-207"/>
      <point x="18" y="-207" type="curve" smooth="yes"/>
      <point x="11" y="-207" type="line"/>
    </contour>
    <contour>
      <point x="328" y="8" type="curve"/>
      <point x="328" y="277" type="line" smooth="yes"/>
      <point x="328" y="401"/>
      <point x="374" y="489"/>
      <point x="442" y="489" type="curve" smooth="yes"/>
      <point x="489" y="489"/>
      <point x="509" y="467"/>
      <point x="509" y="354" type="curve" smooth="yes"/>
      <point x="509" y="297"/>
      <point x="434" y="34"/>
    </contour>
  </outline>
</glyph>
<glyph name="uni01C2" format="2">
  <advance width="643"/>
  <unicode hex="01C2"/>
  <anchor x="320" y="0" name="bottom"/>
  <anchor x="320" y="760" name="top"/>
  <outline>
    <contour>
      <point x="310" y="0" type="line"/>
      <point x="330" y="0" type="line"/>
      <point x="330" y="274" type="line"/>
      <point x="602" y="274" type="line"/>
      <point x="602" y="294" type="line"/>
      <point x="330" y="294" type="line"/>
      <point x="330" y="460" type="line"/>
      <point x="602" y="460" type="line"/>
      <point x="602" y="480" type="line"/>
      <point x="330" y="480" type="line"/>
      <point x="330" y="760" type="line"/>
      <point x="310" y="760" type="line"/>
      <point x="310" y="480" type="line"/>
      <point x="41" y="480" type="line"/>
      <point x="41" y="460" type="line"/>
      <point x="310" y="460" type="line"/>
      <point x="310" y="294" type="line"/>
      <point x="41" y="294" type="line"/>
      <point x="41" y="274" type="line"/>
      <point x="310" y="274" type="line"/>
    </contour>
  </outline>
</glyph>
<glyph name="uni01F7" format="2">
  <advance width="883"/>
  <unicode hex="01F7"/>
  <anchor x="442" y="-240" name="bottom"/>
  <anchor x="442" y="714" name="top"/>
  <outline>
    <contour>
      <point x="16" y="-240" type="line"/>
      <point x="429" y="-240" type="line"/>
      <point x="429" y="-230" type="line"/>
      <point x="397" y="-230" type="line" smooth="yes"/>
      <point x="401" y="-230"/>
      <point x="323" y="-231"/>
      <point x="323" y="-173" type="curve" smooth="yes"/>
      <point x="323" y="-8" type="line"/>
      <point x="537" y="19"/>
      <point x="807" y="70"/>
      <point x="807" y="452" type="curve" smooth="yes"/>
      <point x="807" y="607"/>
      <point x="732" y="724"/>
      <point x="536" y="724" type="curve" smooth="yes"/>
      <point x="400" y="724"/>
      <point x="354" y="674"/>
      <point x="324" y="588" type="curve"/>
      <point x="322" y="588" type="line"/>
      <point x="322" y="714" type="line"/>
      <point x="34" y="714" type="line"/>
      <point x="34" y="704" type="line"/>
      <point x="36" y="704" type="line" smooth="yes"/>
      <point x="87" y="704"/>
      <point x="102" y="692"/>
      <point x="102" y="653" type="curve" smooth="yes"/>
      <point x="102" y="-173" type="line" smooth="yes"/>
      <point x="102" y="-231"/>
      <point x="23" y="-230"/>
      <point x="29" y="-230" type="curve" smooth="yes"/>
      <point x="16" y="-230" type="line"/>
    </contour>
    <contour>
      <point x="323" y="2" type="curve"/>
      <point x="323" y="446" type="line" smooth="yes"/>
      <point x="323" y="604"/>
      <point x="361" y="699"/>
      <point x="464" y="699" type="curve" smooth="yes"/>
      <point x="539" y="699"/>
      <point x="592" y="659"/>
      <point x="592" y="329" type="curve" smooth="yes"/>
      <point x="592" y="160"/>
      <point x="531" y="50"/>
    </contour>
  </outline>
</glyph>
<glyph name="Aringacute" format="2">
  <advance width="919"/>
  <unicode hex="01FA"/>
  <anchor x="459" y="0" name="bottom"/>
  <anchor x="459" y="958" name="top"/>
  <outline>
    <contour>
      <point x="8" y="0" type="line"/>
      <point x="282" y="0" type="line"/>
      <point x="282" y="10" type="line"/>
      <point x="202" y="10" type="line" smooth="yes"/>
      <point x="170" y="10"/>
      <point x="153" y="16"/>
      <point x="153" y="39" type="curve" smooth="yes"/>
      <point x="153" y="55"/>
      <point x="158" y="73"/>
      <point x="172" y="104" type="curve" smooth="yes"/>
      <point x="238" y="263" type="line"/>
      <point x="503" y="263" type="line"/>
      <point x="578" y="86" type="line" smooth="yes"/>
      <point x="588" y="64"/>
      <point x="593" y="47"/>
      <point x="593" y="38" type="curve" smooth="yes"/>
      <point x="593" y="13"/>
      <point x="573" y="10"/>
      <point x="541" y="10" type="curve" smooth="yes"/>
      <point x="506" y="10" type="line"/>
      <point x="506" y="0" type="line"/>
      <point x="919" y="0" type="line"/>
      <point x="919" y="10" type="line"/>
      <point x="924" y="10" type="line" smooth="yes"/>
      <point x="868" y="10"/>
      <point x="840" y="27"/>
      <point x="815" y="82" type="curve" smooth="yes"/>
      <point x="569" y="602" type="line"/>
      <point x="588" y="621"/>
      <point x="598" y="650"/>
      <point x="598" y="682" type="curve" smooth="yes"/>
      <point x="598" y="750"/>
      <point x="554" y="798"/>
      <point x="464" y="798" type="curve" smooth="yes"/>
      <point x="372" y="798"/>
      <point x="326" y="750"/>
      <point x="326" y="682" type="curve" smooth="yes"/>
      <point x="326" y="645"/>
      <point x="339" y="613"/>
      <point x="366" y="592" type="curve"/>
      <point x="149" y="76" type="line" smooth="yes"/>
      <point x="128" y="27"/>
      <point x="101" y="10"/>
      <point x="51" y="10" type="curve" smooth="yes"/>
      <point x="8" y="10" type="line"/>
    </contour>
    <contour>
      <point x="243" y="273" type="line"/>
      <point x="329" y="475" type="line" smooth="yes"/>
      <point x="343" y="508"/>
      <point x="356" y="540"/>
      <point x="368" y="567" type="curve"/>
      <point x="381" y="539"/>
      <point x="394" y="507"/>
      <point x="409" y="473" type="curve" smooth="yes"/>
      <point x="498" y="273" type="line"/>
    </contour>
    <contour>
      <point x="464" y="574" type="curve" smooth="yes"/>
      <point x="383" y="574"/>
      <point x="338" y="619"/>
      <point x="338" y="682" type="curve" smooth="yes"/>
      <point x="338" y="743"/>
      <point x="383" y="788"/>
      <point x="464" y="788" type="curve" smooth="yes"/>
      <point x="543" y="788"/>
      <point x="586" y="743"/>
      <point x="586" y="682" type="curve" smooth="yes"/>
      <point x="586" y="619"/>
      <point x="543" y="574"/>
    </contour>
    <contour>
      <point x="372" y="830" type="line"/>
      <point x="392" y="830" type="line"/>
      <point x="474" y="859"/>
      <point x="611" y="922"/>
      <point x="652" y="950" type="curve"/>
      <point x="652" y="958" type="line"/>
      <point x="483" y="958" type="line"/>
      <point x="451" y="922"/>
      <point x="409" y="881"/>
      <point x="372" y="850" type="curve"/>
    </contour>
  </outline>
</glyph>
<glyph name="uni0221" format="2">
  <advance width="925"/>
  <unicode hex="0221"/>
  <anchor x="463" y="0" name="bottom"/>
  <anchor x="463" y="760" name="top"/>
  <outline>
    <contour>
      <point x="560" y="-79" type="line"/>
      <point x="573" y="-49"/>
      <point x="583" y="-19"/>
      <point x="593" y="4" type="curve"/>
      <point x="634" y="-6"/>
      <point x="680" y="-10"/>
      <point x="721" y="-10" type="curve" smooth="yes"/>
      <point x="844" y="-10"/>
      <point x="930" y="34"/>
      <point x="930" y="107" type="curve" smooth="yes"/>
      <point x="930" y="170"/>
      <point x="881" y="209"/>
      <point x="804" y="209" type="curve" smooth="yes"/>
      <point x="758" y="209"/>
      <point x="716" y="196"/>
      <point x="675" y="165" type="curve"/>
      <point x="675" y="760" type="line"/>
      <point x="336" y="760" type="line"/>
      <point x="336" y="750" type="line"/>
      <point x="356" y="750" type="line" smooth="yes"/>
      <point x="418" y="750"/>
      <point x="448" y="736"/>
      <point x="448" y="679" type="curve" smooth="yes"/>
      <point x="448" y="609" type="line" smooth="yes"/>
      <point x="448" y="556"/>
      <point x="448" y="443"/>
      <point x="449" y="367" type="curve"/>
      <point x="447" y="367" type="line"/>
      <point x="423" y="482"/>
      <point x="358" y="550"/>
      <point x="251" y="550" type="curve" smooth="yes"/>
      <point x="109" y="550"/>
      <point x="46" y="445"/>
      <point x="46" y="272" type="curve" smooth="yes"/>
      <point x="46" y="96"/>
      <point x="118" y="-10"/>
      <point x="259" y="-10" type="curve" smooth="yes"/>
      <point x="374" y="-10"/>
      <point x="422" y="49"/>
      <point x="447" y="156" type="curve"/>
      <point x="449" y="156" type="line"/>
      <point x="441" y="75"/>
      <point x="502" y="28"/>
      <point x="583" y="7" type="curve"/>
      <point x="574" y="-17"/>
      <point x="561" y="-46"/>
      <point x="549" y="-77" type="curve"/>
    </contour>
    <contour>
      <point x="351" y="32" type="curve" smooth="yes"/>
      <point x="295" y="32"/>
      <point x="274" y="165"/>
      <point x="274" y="262" type="curve" smooth="yes"/>
      <point x="274" y="363"/>
      <point x="300" y="487"/>
      <point x="355" y="487" type="curve" smooth="yes"/>
      <point x="407" y="487"/>
      <point x="448" y="388"/>
      <point x="448" y="258" type="curve" smooth="yes"/>
      <point x="448" y="123"/>
      <point x="400" y="32"/>
    </contour>
    <contour>
      <point x="800" y="16" type="curve" smooth="yes"/>
      <point x="707" y="16"/>
      <point x="681" y="55"/>
      <point x="675" y="151" type="curve"/>
      <point x="715" y="184"/>
      <point x="758" y="199"/>
      <point x="804" y="199" type="curve" smooth="yes"/>
      <point x="874" y="199"/>
      <point x="918" y="164"/>
      <point x="918" y="107" type="curve" smooth="yes"/>
      <point x="918" y="51"/>
      <point x="872" y="16"/>
    </contour>
  </outline>
</glyph>
<glyph name="uni0224" format="2">
  <advance width="840"/>
  <unicode hex="0224"/>
  <anchor x="421" y="-227" name="bottom"/>
  <anchor x="421" y="714" name="top"/>
  <outline>
    <contour>
      <point x="671" y="-235" type="curve"/>
      <point x="781" y="-244"/>
      <point x="838" y="-192"/>
      <point x="838" y="-111" type="curve" smooth="yes"/>
      <point x="838" y="-23"/>
      <point x="762" y="10"/>
      <point x="646" y="10" type="curve" smooth="yes"/>
      <point x="302" y="10" type="line"/>
      <point x="755" y="704" type="line"/>
      <point x="755" y="714" type="line"/>
      <point x="85" y="714" type="line"/>
      <point x="76" y="462" type="line"/>
      <point x="85" y="462" type="line"/>
      <point x="88" y="484" type="line" smooth="yes"/>
      <point x="105" y="657"/>
      <point x="152" y="704"/>
      <point x="308" y="704" type="curve" smooth="yes"/>
      <point x="508" y="704" type="line"/>
      <point x="57" y="10" type="line"/>
      <point x="57" y="0" type="line"/>
      <point x="598" y="0" type="line" smooth="yes"/>
      <point x="656" y="0"/>
      <point x="694" y="-38"/>
      <point x="694" y="-114" type="curve" smooth="yes"/>
      <point x="694" y="-151"/>
      <point x="684" y="-197"/>
    </contour>
  </outline>
</glyph>
<glyph name="jdotless" format="2">
  <advance width="441"/>
  <unicode hex="0237"/>
  <anchor x="220" y="-240" name="bottom"/>
  <anchor x="220" y="536" name="top"/>
  <outline>
    <contour>
      <point x="-30" y="-240" type="line"/>
      <point x="-3" y="-240" type="line" smooth="yes"/>
      <point x="194" y="-240"/>
      <point x="336" y="-187"/>
      <point x="336" y="-8" type="curve" smooth="yes"/>
      <point x="336" y="536" type="line"/>
      <point x="15" y="536" type="line"/>
      <point x="15" y="526" type="line"/>
      <point x="20" y="526" type="line" smooth="yes"/>
      <point x="69" y="526"/>
      <point x="110" y="517"/>
      <point x="110" y="462" type="curve" smooth="yes"/>
      <point x="110" y="-59" type="line" smooth="yes"/>
      <point x="110" y="-189"/>
      <point x="64" y="-230"/>
      <point x="-22" y="-230" type="curve" smooth="yes"/>
      <point x="-30" y="-230" type="line"/>
    </contour>
  </outline>
</glyph>
<glyph name="uni0239" format="2">
  <advance width="1125"/>
  <unicode hex="0239"/>
  <anchor x="563" y="-219" name="bottom"/>
  <anchor x="563" y="536" name="top"/>
  <outline>
    <contour>
      <point x="366" y="-220" type="line"/>
      <point x="755" y="-220" type="line"/>
      <point x="755" y="-210" type="line"/>
      <point x="732" y="-210" type="line" smooth="yes"/>
      <point x="707" y="-210"/>
      <point x="673" y="-199"/>
      <point x="673" y="-143" type="curve" smooth="yes"/>
      <point x="673" y="-67" type="line" smooth="yes"/>
      <point x="673" y="-14"/>
      <point x="673" y="90"/>
      <point x="673" y="166" type="curve"/>
      <point x="675" y="166" type="line"/>
      <point x="695" y="51"/>
      <point x="772" y="-8"/>
      <point x="872" y="-8" type="curve" smooth="yes"/>
      <point x="1003" y="-8"/>
      <point x="1075" y="97"/>
      <point x="1075" y="270" type="curve" smooth="yes"/>
      <point x="1075" y="436"/>
      <point x="999" y="552"/>
      <point x="816" y="552" type="curve" smooth="yes"/>
      <point x="680" y="552"/>
      <point x="569" y="489"/>
      <point x="560" y="385" type="curve"/>
      <point x="543" y="500"/>
      <point x="426" y="552"/>
      <point x="301" y="552" type="curve" smooth="yes"/>
      <point x="118" y="552"/>
      <point x="46" y="436"/>
      <point x="46" y="270" type="curve" smooth="yes"/>
      <point x="46" y="97"/>
      <point x="121" y="-8"/>
      <point x="252" y="-8" type="curve" smooth="yes"/>
      <point x="361" y="-8"/>
      <point x="426" y="51"/>
      <point x="446" y="166" type="curve"/>
      <point x="448" y="166" type="line"/>
      <point x="448" y="90"/>
      <point x="448" y="-14"/>
      <point x="448" y="-67" type="curve" smooth="yes"/>
      <point x="448" y="-151" type="line" smooth="yes"/>
      <point x="448" y="-193"/>
      <point x="418" y="-210"/>
      <point x="387" y="-210" type="curve" smooth="yes"/>
      <point x="366" y="-210" type="line"/>
    </contour>
    <contour>
      <point x="354" y="48" type="curve" smooth="yes"/>
      <point x="304" y="48"/>
      <point x="273" y="164"/>
      <point x="273" y="280" type="curve" smooth="yes"/>
      <point x="273" y="466"/>
      <point x="292" y="538"/>
      <point x="350" y="538" type="curve" smooth="yes"/>
      <point x="436" y="538"/>
      <point x="447" y="444"/>
      <point x="447" y="284" type="curve" smooth="yes"/>
      <point x="447" y="154"/>
      <point x="414" y="48"/>
    </contour>
    <contour>
      <point x="761" y="56" type="curve" smooth="yes"/>
      <point x="703" y="56"/>
      <point x="673" y="174"/>
      <point x="673" y="284" type="curve" smooth="yes"/>
      <point x="673" y="459"/>
      <point x="688" y="539"/>
      <point x="769" y="539" type="curve" smooth="yes"/>
      <point x="835" y="539"/>
      <point x="847" y="466"/>
      <point x="847" y="280" type="curve" smooth="yes"/>
      <point x="847" y="188"/>
      <point x="812" y="56"/>
    </contour>
  </outline>
</glyph>
<glyph name="uni0241" format="2">
  <advance width="683"/>
  <unicode hex="0241"/>
  <anchor x="341" y="0" name="bottom"/>
  <anchor x="341" y="714" name="top"/>
  <outline>
    <contour>
      <point x="99" y="0" type="line"/>
      <point x="546" y="0" type="line"/>
      <point x="546" y="10" type="line"/>
      <point x="491" y="10" type="line" smooth="yes"/>
      <point x="462" y="10"/>
      <point x="440" y="18"/>
      <point x="440" y="75" type="curve" smooth="yes"/>
      <point x="440" y="307" type="line"/>
      <point x="569" y="354"/>
      <point x="627" y="414"/>
      <point x="627" y="524" type="curve" smooth="yes"/>
      <point x="627" y="654"/>
      <point x="524" y="725"/>
      <point x="289" y="725" type="curve" smooth="yes"/>
      <point x="90" y="725"/>
      <point x="37" y="618"/>
      <point x="37" y="570" type="curve" smooth="yes"/>
      <point x="37" y="465"/>
      <point x="67" y="451"/>
      <point x="240" y="451" type="curve"/>
      <point x="240" y="651"/>
      <point x="258" y="715"/>
      <point x="315" y="715" type="curve" smooth="yes"/>
      <point x="365" y="715"/>
      <point x="381" y="676"/>
      <point x="381" y="553" type="curve" smooth="yes"/>
      <point x="381" y="397"/>
      <point x="335" y="327"/>
      <point x="205" y="292" type="curve"/>
      <point x="205" y="75" type="line" smooth="yes"/>
      <point x="205" y="18"/>
      <point x="183" y="10"/>
      <point x="154" y="10" type="curve" smooth="yes"/>
      <point x="99" y="10" type="line"/>
    </contour>
  </outline>
</glyph>
<glyph name="uni024A" format="2">
  <advance width="1015"/>
  <unicode hex="024A"/>
  <anchor x="508" y="-240" name="bottom"/>
  <anchor x="508" y="714" name="top"/>
  <outline>
    <contour>
      <point x="860" y="-240" type="curve" smooth="yes"/>
      <point x="968" y="-240"/>
      <point x="1000" y="-226"/>
      <point x="1024" y="-220" type="curve"/>
      <point x="1024" y="-210" type="line"/>
      <point x="1008" y="-212"/>
      <point x="992" y="-213"/>
      <point x="977" y="-213" type="curve" smooth="yes"/>
      <point x="911" y="-213"/>
      <point x="884" y="-176"/>
      <point x="884" y="-89" type="curve" smooth="yes"/>
      <point x="884" y="635" type="line" smooth="yes"/>
      <point x="884" y="685"/>
      <point x="901" y="704"/>
      <point x="939" y="704" type="curve" smooth="yes"/>
      <point x="991" y="704" type="line"/>
      <point x="991" y="714" type="line"/>
      <point x="643" y="714" type="line"/>
      <point x="643" y="577" type="line"/>
      <point x="641" y="577" type="line"/>
      <point x="596" y="709"/>
      <point x="504" y="723"/>
      <point x="431" y="723" type="curve" smooth="yes"/>
      <point x="193" y="723"/>
      <point x="63" y="580"/>
      <point x="63" y="359" type="curve" smooth="yes"/>
      <point x="63" y="137"/>
      <point x="173" y="-10"/>
      <point x="405" y="-10" type="curve" smooth="yes"/>
      <point x="581" y="-10"/>
      <point x="603" y="67"/>
      <point x="639" y="150" type="curve"/>
      <point x="641" y="150" type="line"/>
      <point x="640" y="97"/>
      <point x="641" y="41"/>
      <point x="641" y="0" type="curve" smooth="yes"/>
      <point x="641" y="-67" type="line" smooth="yes"/>
      <point x="641" y="-183"/>
      <point x="733" y="-240"/>
    </contour>
    <contour>
      <point x="478" y="12" type="curve" smooth="yes"/>
      <point x="371" y="12"/>
      <point x="307" y="69"/>
      <point x="307" y="358" type="curve" smooth="yes"/>
      <point x="307" y="609"/>
      <point x="357" y="700"/>
      <point x="460" y="700" type="curve" smooth="yes"/>
      <point x="601" y="700"/>
      <point x="642" y="605"/>
      <point x="642" y="358" type="curve" smooth="yes"/>
      <point x="642" y="75"/>
      <point x="575" y="12"/>
    </contour>
  </outline>
</glyph>
<glyph name="uni024C" format="2">
  <advance width="918"/>
  <unicode hex="024C"/>
  <anchor x="475" y="0" name="bottom"/>
  <anchor x="475" y="714" name="top"/>
  <anchor x="898" y="714" name="topright"/>
  <outline>
    <contour>
      <point x="24" y="333" type="line"/>
      <point x="182" y="333" type="line"/>
      <point x="182" y="343" type="line"/>
      <point x="24" y="343" type="line"/>
    </contour>
    <component base="R" xOffset="40"/>
  </outline>
</glyph>
<glyph name="uni0252" format="2">
  <advance width="788"/>
  <unicode hex="0252"/>
  <anchor x="395" y="0" name="bottom"/>
  <anchor x="395" y="536" name="top"/>
  <outline>
    <contour>
      <point x="494" y="-10" type="curve" smooth="yes"/>
      <point x="661" y="-10"/>
      <point x="741" y="76"/>
      <point x="741" y="277" type="curve" smooth="yes"/>
      <point x="741" y="469"/>
      <point x="663" y="550"/>
      <point x="492" y="550" type="curve" smooth="yes"/>
      <point x="399" y="550"/>
      <point x="354" y="507"/>
      <point x="339" y="382" type="curve"/>
      <point x="337" y="382" type="line"/>
      <point x="335" y="499"/>
      <point x="275" y="550"/>
      <point x="138" y="550" type="curve" smooth="yes"/>
      <point x="78" y="550"/>
      <point x="40" y="542"/>
      <point x="16" y="538" type="curve"/>
      <point x="16" y="528" type="line"/>
      <point x="31" y="529"/>
      <point x="45" y="532"/>
      <point x="60" y="532" type="curve" smooth="yes"/>
      <point x="93" y="532"/>
      <point x="112" y="518"/>
      <point x="112" y="467" type="curve" smooth="yes"/>
      <point x="112" y="4" type="line"/>
      <point x="286" y="4" type="line"/>
      <point x="342" y="128" type="line"/>
      <point x="344" y="128" type="line"/>
      <point x="380" y="13"/>
      <point x="422" y="-10"/>
    </contour>
    <contour>
      <point x="452" y="11" type="curve" smooth="yes"/>
      <point x="389" y="11"/>
      <point x="335" y="152"/>
      <point x="339" y="305" type="curve" smooth="yes"/>
      <point x="339" y="419"/>
      <point x="374" y="521"/>
      <point x="426" y="521" type="curve" smooth="yes"/>
      <point x="487" y="521"/>
      <point x="513" y="453"/>
      <point x="513" y="263" type="curve" smooth="yes"/>
      <point x="513" y="80"/>
      <point x="498" y="11"/>
    </contour>
  </outline>
</glyph>
<glyph name="uni0261" format="2">
  <advance width="785"/>
  <unicode hex="0261"/>
  <anchor x="393" y="-228" name="bottom"/>
  <anchor x="393" y="1000" name="top"/>
  <outline>
    <contour>
      <point x="330" y="-228" type="curve" smooth="yes"/>
      <point x="561" y="-228"/>
      <point x="675" y="-105"/>
      <point x="675" y="50" type="curve" smooth="yes"/>
      <point x="675" y="455" type="line" smooth="yes"/>
      <point x="675" y="519"/>
      <point x="723" y="526"/>
      <point x="755" y="526" type="curve" smooth="yes"/>
      <point x="773" y="526" type="line"/>
      <point x="773" y="536" type="line"/>
      <point x="449" y="536" type="line"/>
      <point x="449" y="356" type="line"/>
      <point x="447" y="356" type="line"/>
      <point x="424" y="491"/>
      <point x="351" y="550"/>
      <point x="254" y="550" type="curve" smooth="yes"/>
      <point x="118" y="550"/>
      <point x="46" y="448"/>
      <point x="46" y="275" type="curve" smooth="yes"/>
      <point x="46" y="97"/>
      <point x="118" y="-10"/>
      <point x="267" y="-10" type="curve" smooth="yes"/>
      <point x="373" y="-10"/>
      <point x="426" y="40"/>
      <point x="447" y="167" type="curve"/>
      <point x="449" y="167" type="line"/>
      <point x="449" y="80"/>
      <point x="449" y="28"/>
      <point x="449" y="-7" type="curve" smooth="yes"/>
      <point x="449" y="23" type="line" smooth="yes"/>
      <point x="449" y="-177"/>
      <point x="408" y="-218"/>
      <point x="321" y="-218" type="curve" smooth="yes"/>
      <point x="248" y="-218"/>
      <point x="213" y="-206"/>
      <point x="213" y="-10" type="curve"/>
      <point x="112" y="-13"/>
      <point x="69" y="-42"/>
      <point x="69" y="-94" type="curve" smooth="yes"/>
      <point x="69" y="-200"/>
      <point x="173" y="-228"/>
    </contour>
    <contour>
      <point x="355" y="30" type="curve" smooth="yes"/>
      <point x="302" y="30"/>
      <point x="274" y="154"/>
      <point x="274" y="282" type="curve" smooth="yes"/>
      <point x="274" y="381"/>
      <point x="306" y="489"/>
      <point x="353" y="489" type="curve" smooth="yes"/>
      <point x="401" y="489"/>
      <point x="448" y="401"/>
      <point x="448" y="277" type="curve" smooth="yes"/>
      <point x="448" y="127"/>
      <point x="404" y="30"/>
    </contour>
  </outline>
</glyph>
<glyph name="uni0265" format="2">
  <advance width="806"/>
  <unicode hex="0265"/>
  <anchor x="404" y="-221" name="bottom"/>
  <anchor x="404" y="536" name="top"/>
  <outline>
    <contour>
      <point x="459" y="-224" type="line"/>
      <point x="776" y="-224" type="line"/>
      <point x="776" y="-214" type="line"/>
      <point x="760" y="-214" type="line" smooth="yes"/>
      <point x="712" y="-214"/>
      <point x="685" y="-211"/>
      <point x="685" y="-152" type="curve" smooth="yes"/>
      <point x="685" y="460" type="line" smooth="yes"/>
      <point x="685" y="524"/>
      <point x="719" y="526"/>
      <point x="766" y="526" type="curve" smooth="yes"/>
      <point x="771" y="526" type="line"/>
      <point x="771" y="536" type="line"/>
      <point x="380" y="536" type="line"/>
      <point x="380" y="526" type="line"/>
      <point x="385" y="526" type="line"/>
      <point x="433" y="526"/>
      <point x="458" y="522"/>
      <point x="458" y="463" type="curve" smooth="yes"/>
      <point x="458" y="204" type="line" smooth="yes"/>
      <point x="458" y="151"/>
      <point x="451" y="44"/>
      <point x="386" y="44" type="curve" smooth="yes"/>
      <point x="330" y="44"/>
      <point x="318" y="90"/>
      <point x="318" y="157" type="curve" smooth="yes"/>
      <point x="318" y="536" type="line"/>
      <point x="18" y="536" type="line"/>
      <point x="18" y="526" type="line"/>
      <point x="23" y="526" type="line" smooth="yes"/>
      <point x="76" y="526"/>
      <point x="92" y="525"/>
      <point x="92" y="456" type="curve" smooth="yes"/>
      <point x="92" y="173" type="line" smooth="yes"/>
      <point x="92" y="40"/>
      <point x="156" y="-16"/>
      <point x="281" y="-16" type="curve" smooth="yes"/>
      <point x="384" y="-16"/>
      <point x="440" y="24"/>
      <point x="459" y="115" type="curve"/>
      <point x="461" y="115" type="line"/>
      <point x="459" y="50"/>
      <point x="459" y="3"/>
      <point x="459" y="-62" type="curve" smooth="yes"/>
    </contour>
  </outline>
</glyph>
<glyph name="uni0268" format="2">
  <advance width="439"/>
  <unicode hex="0268"/>
  <anchor x="219" y="0" name="bottom"/>
  <anchor x="219" y="783" name="top"/>
  <outline>
    <contour>
      <point x="14" y="0" type="line"/>
      <point x="414" y="0" type="line"/>
      <point x="414" y="10" type="line"/>
      <point x="401" y="10" type="line" smooth="yes"/>
      <point x="358" y="10"/>
      <point x="328" y="29"/>
      <point x="328" y="79" type="curve" smooth="yes"/>
      <point x="328" y="259" type="line"/>
      <point x="433" y="259" type="line"/>
      <point x="433" y="269" type="line"/>
      <point x="328" y="269" type="line"/>
      <point x="328" y="536" type="line"/>
      <point x="6" y="536" type="line"/>
      <point x="6" y="526" type="line"/>
      <point x="29" y="526" type="line" smooth="yes"/>
      <point x="71" y="526"/>
      <point x="102" y="507"/>
      <point x="102" y="461" type="curve" smooth="yes"/>
      <point x="102" y="269" type="line"/>
      <point x="4" y="269" type="line"/>
      <point x="4" y="259" type="line"/>
      <point x="102" y="259" type="line"/>
      <point x="102" y="85" type="line" smooth="yes"/>
      <point x="102" y="30"/>
      <point x="73" y="10"/>
      <point x="29" y="10" type="curve" smooth="yes"/>
      <point x="14" y="10" type="line"/>
    </contour>
    <contour>
      <point x="209" y="613" type="curve" smooth="yes"/>
      <point x="265" y="613"/>
      <point x="316" y="645"/>
      <point x="316" y="698" type="curve" smooth="yes"/>
      <point x="316" y="755"/>
      <point x="265" y="783"/>
      <point x="209" y="783" type="curve" smooth="yes"/>
      <point x="148" y="783"/>
      <point x="103" y="755"/>
      <point x="103" y="698" type="curve" smooth="yes"/>
      <point x="103" y="645"/>
      <point x="148" y="613"/>
    </contour>
  </outline>
</glyph>
<glyph name="uni026B" format="2">
  <advance width="564"/>
  <unicode hex="026B"/>
  <anchor x="282" y="0" name="bottom"/>
  <anchor x="282" y="760" name="top"/>
  <anchor x="464" y="760" name="topright"/>
  <anchor x="301" y="268" name="center"/>
  <outline>
    <contour>
      <point x="21" y="237" type="curve"/>
      <point x="31" y="237" type="line"/>
      <point x="42" y="315"/>
      <point x="74" y="317"/>
      <point x="95" y="317" type="curve" smooth="yes"/>
      <point x="185" y="317"/>
      <point x="356" y="227"/>
      <point x="438" y="227" type="curve" smooth="yes"/>
      <point x="532" y="227"/>
      <point x="566" y="322"/>
      <point x="573" y="425" type="curve"/>
      <point x="562" y="425" type="line"/>
      <point x="551" y="349"/>
      <point x="521" y="345"/>
      <point x="497" y="345" type="curve" smooth="yes"/>
      <point x="408" y="345"/>
      <point x="299" y="435"/>
      <point x="157" y="435" type="curve" smooth="yes"/>
      <point x="66" y="435"/>
      <point x="27" y="357"/>
    </contour>
    <component base="l" xOffset="77"/>
  </outline>
</glyph>
<glyph name="uni0272" format="2">
  <advance width="796"/>
  <unicode hex="0272"/>
  <anchor x="399" y="-228" name="bottom"/>
  <anchor x="399" y="536" name="top"/>
  <outline>
    <contour>
      <point x="37" y="-228" type="curve" smooth="yes"/>
      <point x="227" y="-228"/>
      <point x="329" y="-108"/>
      <point x="329" y="57" type="curve" smooth="yes"/>
      <point x="329" y="332" type="line" smooth="yes"/>
      <point x="329" y="385"/>
      <point x="336" y="492"/>
      <point x="401" y="492" type="curve" smooth="yes"/>
      <point x="457" y="492"/>
      <point x="469" y="446"/>
      <point x="469" y="379" type="curve" smooth="yes"/>
      <point x="469" y="0" type="line"/>
      <point x="768" y="0" type="line"/>
      <point x="768" y="10" type="line"/>
      <point x="764" y="10" type="line" smooth="yes"/>
      <point x="711" y="10"/>
      <point x="695" y="11"/>
      <point x="695" y="80" type="curve" smooth="yes"/>
      <point x="695" y="363" type="line" smooth="yes"/>
      <point x="695" y="496"/>
      <point x="631" y="552"/>
      <point x="506" y="552" type="curve" smooth="yes"/>
      <point x="403" y="552"/>
      <point x="347" y="512"/>
      <point x="328" y="421" type="curve"/>
      <point x="326" y="421" type="line"/>
      <point x="326" y="536" type="line"/>
      <point x="23" y="536" type="line"/>
      <point x="23" y="526" type="line"/>
      <point x="27" y="526" type="line" smooth="yes"/>
      <point x="75" y="526"/>
      <point x="102" y="523"/>
      <point x="102" y="464" type="curve" smooth="yes"/>
      <point x="102" y="-86" type="line" smooth="yes"/>
      <point x="102" y="-182"/>
      <point x="82" y="-218"/>
      <point x="43" y="-218" type="curve" smooth="yes"/>
      <point x="-10" y="-218"/>
      <point x="-18" y="-169"/>
      <point x="-18" y="-41" type="curve"/>
      <point x="-122" y="-44"/>
      <point x="-164" y="-73"/>
      <point x="-164" y="-127" type="curve" smooth="yes"/>
      <point x="-164" y="-199"/>
      <point x="-75" y="-228"/>
    </contour>
  </outline>
</glyph>
<glyph name="uni0291" format="2">
  <advance width="669"/>
  <unicode hex="0291"/>
  <anchor x="334" y="0" name="bottom"/>
  <anchor x="334" y="536" name="top"/>
  <outline>
    <contour>
      <point x="373" y="-86" type="line"/>
      <point x="379" y="-54"/>
      <point x="386" y="-26"/>
      <point x="393" y="0" type="curve"/>
      <point x="498" y="0" type="line" smooth="yes"/>
      <point x="610" y="0"/>
      <point x="661" y="36"/>
      <point x="661" y="104" type="curve" smooth="yes"/>
      <point x="661" y="167"/>
      <point x="618" y="207"/>
      <point x="553" y="207" type="curve" smooth="yes"/>
      <point x="470" y="207"/>
      <point x="422" y="151"/>
      <point x="385" y="10" type="curve"/>
      <point x="211" y="10" type="line"/>
      <point x="600" y="526" type="line"/>
      <point x="600" y="536" type="line"/>
      <point x="55" y="536" type="line"/>
      <point x="41" y="344" type="line"/>
      <point x="51" y="344" type="line"/>
      <point x="54" y="376" type="line" smooth="yes"/>
      <point x="63" y="494"/>
      <point x="93" y="526"/>
      <point x="205" y="526" type="curve" smooth="yes"/>
      <point x="389" y="526" type="line"/>
      <point x="0" y="10" type="line"/>
      <point x="0" y="0" type="line"/>
      <point x="381" y="0" type="line"/>
      <point x="374" y="-25"/>
      <point x="369" y="-53"/>
      <point x="363" y="-84" type="curve"/>
    </contour>
    <contour>
      <point x="395" y="10" type="line"/>
      <point x="431" y="143"/>
      <point x="476" y="197"/>
      <point x="553" y="197" type="curve" smooth="yes"/>
      <point x="610" y="197"/>
      <point x="649" y="160"/>
      <point x="649" y="104" type="curve" smooth="yes"/>
      <point x="649" y="44"/>
      <point x="600" y="10"/>
      <point x="497" y="10" type="curve" smooth="yes"/>
    </contour>
  </outline>
</glyph>
<glyph name="uni02A9" format="2">
  <advance width="1216"/>
  <unicode hex="02A9"/>
  <anchor x="609" y="-240" name="bottom"/>
  <anchor x="609" y="767" name="top"/>
  <outline>
    <contour>
      <point x="777" y="-240" type="line"/>
      <point x="802" y="-240" type="line" smooth="yes"/>
      <point x="989" y="-240"/>
      <point x="1123" y="-187"/>
      <point x="1123" y="-8" type="curve" smooth="yes"/>
      <point x="1123" y="363" type="line" smooth="yes"/>
      <point x="1123" y="496"/>
      <point x="1059" y="552"/>
      <point x="934" y="552" type="curve" smooth="yes"/>
      <point x="831" y="552"/>
      <point x="775" y="512"/>
      <point x="756" y="421" type="curve"/>
      <point x="754" y="421" type="line"/>
      <point x="754" y="536" type="line"/>
      <point x="348" y="536" type="line"/>
      <point x="348" y="646" type="line" smooth="yes"/>
      <point x="348" y="730"/>
      <point x="360" y="757"/>
      <point x="391" y="757" type="curve" smooth="yes"/>
      <point x="427" y="757"/>
      <point x="436" y="722"/>
      <point x="436" y="608" type="curve"/>
      <point x="560" y="608"/>
      <point x="587" y="649"/>
      <point x="587" y="691" type="curve" smooth="yes"/>
      <point x="587" y="722"/>
      <point x="554" y="767"/>
      <point x="382" y="767" type="curve" smooth="yes"/>
      <point x="191" y="767"/>
      <point x="122" y="687"/>
      <point x="122" y="557" type="curve" smooth="yes"/>
      <point x="122" y="536" type="line"/>
      <point x="19" y="536" type="line"/>
      <point x="19" y="526" type="line"/>
      <point x="122" y="526" type="line"/>
      <point x="122" y="67" type="line" smooth="yes"/>
      <point x="122" y="17"/>
      <point x="68" y="10"/>
      <point x="49" y="10" type="curve" smooth="yes"/>
      <point x="15" y="10" type="line"/>
      <point x="15" y="0" type="line"/>
      <point x="473" y="0" type="line"/>
      <point x="473" y="10" type="line"/>
      <point x="421" y="10" type="line" smooth="yes"/>
      <point x="394" y="10"/>
      <point x="348" y="17"/>
      <point x="348" y="67" type="curve" smooth="yes"/>
      <point x="348" y="526" type="line"/>
      <point x="455" y="526" type="line" smooth="yes"/>
      <point x="503" y="526"/>
      <point x="530" y="523"/>
      <point x="530" y="464" type="curve" smooth="yes"/>
      <point x="530" y="0" type="line"/>
      <point x="835" y="0" type="line"/>
      <point x="835" y="10" type="line"/>
      <point x="830" y="10" type="line" smooth="yes"/>
      <point x="782" y="10"/>
      <point x="757" y="14"/>
      <point x="757" y="73" type="curve" smooth="yes"/>
      <point x="757" y="332" type="line" smooth="yes"/>
      <point x="757" y="385"/>
      <point x="764" y="492"/>
      <point x="829" y="492" type="curve" smooth="yes"/>
      <point x="885" y="492"/>
      <point x="897" y="446"/>
      <point x="897" y="379" type="curve" smooth="yes"/>
      <point x="897" y="-56" type="line" smooth="yes"/>
      <point x="897" y="-198"/>
      <point x="852" y="-230"/>
      <point x="784" y="-230" type="curve" smooth="yes"/>
      <point x="777" y="-230" type="line"/>
    </contour>
  </outline>
</glyph>
<glyph name="uni02C0" format="2">
  <advance width="416"/>
  <unicode hex="02C0"/>
  <outline>
    <contour>
      <point x="183" y="477" type="line"/>
      <point x="193" y="477" type="line"/>
      <point x="193" y="543" type="line"/>
      <point x="334" y="544"/>
      <point x="376" y="603"/>
      <point x="376" y="648" type="curve" smooth="yes"/>
      <point x="376" y="717"/>
      <point x="304" y="760"/>
      <point x="191" y="760" type="curve" smooth="yes"/>
      <point x="65" y="760"/>
      <point x="28" y="712"/>
      <point x="28" y="671" type="curve" smooth="yes"/>
      <point x="28" y="643"/>
      <point x="49" y="619"/>
      <point x="127" y="619" type="curve"/>
      <point x="127" y="723"/>
      <point x="134" y="750"/>
      <point x="183" y="750" type="curve" smooth="yes"/>
      <point x="220" y="750"/>
      <point x="238" y="726"/>
      <point x="238" y="663" type="curve" smooth="yes"/>
      <point x="238" y="584"/>
      <point x="226" y="556"/>
      <point x="183" y="552" type="curve"/>
    </contour>
  </outline>
</glyph>
<glyph name="uni02CC" format="2">
  <advance width="110"/>
  <unicode hex="02CC"/>
  <outline>
    <contour>
      <point x="40" y="-241" type="line"/>
      <point x="70" y="-241" type="line"/>
      <point x="70" y="-52" type="line"/>
      <point x="40" y="-52" type="line"/>
    </contour>
  </outline>
</glyph>
<glyph name="hungarumlaut" format="2">
  <advance width="532"/>
  <unicode hex="02DD"/>
  <outline>
    <contour>
      <point x="40" y="606" type="line"/>
      <point x="50" y="606" type="line"/>
      <point x="103" y="640"/>
      <point x="216" y="721"/>
      <point x="249" y="756" type="curve"/>
      <point x="249" y="766" type="line"/>
      <point x="125" y="766" type="line"/>
      <point x="101" y="721"/>
      <point x="71" y="663"/>
      <point x="40" y="616" type="curve"/>
    </contour>
    <contour>
      <point x="283" y="606" type="line"/>
      <point x="293" y="606" type="line"/>
      <point x="346" y="640"/>
      <point x="459" y="721"/>
      <point x="492" y="756" type="curve"/>
      <point x="492" y="766" type="line"/>
      <point x="368" y="766" type="line"/>
      <point x="344" y="721"/>
      <point x="314" y="663"/>
      <point x="283" y="616" type="curve"/>
    </contour>
  </outline>
</glyph>
<glyph name="rhotichookmod" format="2">
  <advance width="323"/>
  <unicode hex="02DE"/>
  <outline>
    <contour>
      <point x="162" y="116" type="curve" smooth="yes"/>
      <point x="227" y="116"/>
      <point x="323" y="151"/>
      <point x="323" y="214" type="curve" smooth="yes"/>
      <point x="323" y="239"/>
      <point x="306" y="271"/>
      <point x="285" y="284" type="curve"/>
      <point x="255" y="248"/>
      <point x="165" y="222"/>
      <point x="112" y="222" type="curve" smooth="yes"/>
      <point x="68" y="222"/>
      <point x="43" y="245"/>
      <point x="32" y="289" type="curve" smooth="yes"/>
      <point x="-4" y="425" type="line"/>
      <point x="-161" y="380" type="line"/>
      <point x="-158" y="366" type="line"/>
      <point x="-18" y="407" type="line"/>
      <point x="28" y="248" type="line" smooth="yes"/>
      <point x="53" y="158"/>
      <point x="95" y="116"/>
    </contour>
  </outline>
</glyph>
<glyph name="uni02F3" format="2">
  <advance width="388"/>
  <unicode hex="02F3"/>
  <outline>
    <contour>
      <point x="193" y="-329" type="curve" smooth="yes"/>
      <point x="288" y="-329"/>
      <point x="336" y="-279"/>
      <point x="336" y="-206" type="curve" smooth="yes"/>
      <point x="336" y="-133"/>
      <point x="288" y="-83"/>
      <point x="193" y="-83" type="curve" smooth="yes"/>
      <point x="96" y="-83"/>
      <point x="48" y="-133"/>
      <point x="48" y="-206" type="curve" smooth="yes"/>
      <point x="48" y="-279"/>
      <point x="96" y="-329"/>
    </contour>
    <contour>
      <point x="191" y="-319" type="curve" smooth="yes"/>
      <point x="107" y="-319"/>
      <point x="60" y="-272"/>
      <point x="60" y="-206" type="curve" smooth="yes"/>
      <point x="60" y="-140"/>
      <point x="107" y="-93"/>
      <point x="191" y="-93" type="curve" smooth="yes"/>
      <point x="275" y="-93"/>
      <point x="324" y="-140"/>
      <point x="324" y="-206" type="curve" smooth="yes"/>
      <point x="324" y="-272"/>
      <point x="275" y="-319"/>
    </contour>
  </outline>
</glyph>
<glyph name="breveinvertedcomb" format="2">
  <unicode hex="0311"/>
  <anchor x="1" y="536" name="_top"/>
  <anchor x="1" y="788" name="top"/>
  <outline>
    <contour>
      <point x="-202" y="606" type="curve"/>
      <point x="-192" y="606" type="line"/>
      <point x="-169" y="654"/>
      <point x="-130" y="689"/>
      <point x="2" y="689" type="curve" smooth="yes"/>
      <point x="133" y="689"/>
      <point x="173" y="654"/>
      <point x="195" y="606" type="curve"/>
      <point x="205" y="606" type="line"/>
      <point x="184" y="745"/>
      <point x="102" y="788"/>
      <point x="2" y="788" type="curve" smooth="yes"/>
      <point x="-100" y="788"/>
      <point x="-182" y="745"/>
    </contour>
  </outline>
</glyph>
<glyph name="hookpalatalizedbelowcomb" format="2">
  <unicode hex="0321"/>
  <anchor x="78" y="0" name="_bottom"/>
  <anchor x="78" y="-197" name="bottom"/>
  <outline>
    <contour>
      <point x="97" y="-189" type="curve" smooth="yes"/>
      <point x="181" y="-189"/>
      <point x="213" y="-156"/>
      <point x="213" y="-95" type="curve" smooth="yes"/>
      <point x="213" y="-1" type="line"/>
      <point x="203" y="-1" type="line"/>
      <point x="203" y="-4" type="line" smooth="yes"/>
      <point x="203" y="-64"/>
      <point x="174" y="-88"/>
      <point x="97" y="-88" type="curve" smooth="yes"/>
      <point x="61" y="-88"/>
      <point x="31" y="-82"/>
      <point x="-7" y="-70" type="curve"/>
      <point x="-18" y="-85"/>
      <point x="-24" y="-100"/>
      <point x="-24" y="-118" type="curve" smooth="yes"/>
      <point x="-24" y="-162"/>
      <point x="27" y="-189"/>
    </contour>
  </outline>
</glyph>
<glyph name="dblarchinvertedbelowcomb" format="2">
  <unicode hex="032B"/>
  <anchor x="0" y="0" name="_bottom"/>
  <anchor x="0" y="-183" name="bottom"/>
  <outline>
    <contour>
      <point x="-91" y="-183" type="curve" smooth="yes"/>
      <point x="-38" y="-183"/>
      <point x="-11" y="-167"/>
      <point x="0" y="-129" type="curve"/>
      <point x="11" y="-167"/>
      <point x="38" y="-183"/>
      <point x="91" y="-183" type="curve" smooth="yes"/>
      <point x="156" y="-183"/>
      <point x="185" y="-148"/>
      <point x="187" y="-65" type="curve"/>
      <point x="177" y="-65" type="line"/>
      <point x="176" y="-114"/>
      <point x="149" y="-135"/>
      <point x="88" y="-135" type="curve" smooth="yes"/>
      <point x="32" y="-135"/>
      <point x="5" y="-114"/>
      <point x="5" y="-65" type="curve"/>
      <point x="-5" y="-65" type="line"/>
      <point x="-5" y="-114"/>
      <point x="-30" y="-135"/>
      <point x="-93" y="-135" type="curve" smooth="yes"/>
      <point x="-151" y="-135"/>
      <point x="-176" y="-114"/>
      <point x="-177" y="-65" type="curve"/>
      <point x="-187" y="-65" type="line"/>
      <point x="-185" y="-148"/>
      <point x="-156" y="-183"/>
    </contour>
  </outline>
</glyph>
<glyph name="circumflexbelowcomb" format="2">
  <unicode hex="032D"/>
  <anchor x="1" y="0" name="_bottom"/>
  <anchor x="1" y="-216" name="bottom"/>
  <outline>
    <contour>
      <point x="-231" y="-216" type="line"/>
      <point x="-211" y="-216" type="line"/>
      <point x="-133" y="-187"/>
      <point x="-35" y="-139"/>
      <point x="2" y="-122" type="curve"/>
      <point x="37" y="-139"/>
      <point x="136" y="-187"/>
      <point x="214" y="-216" type="curve"/>
      <point x="234" y="-216" type="line"/>
      <point x="234" y="-196" type="line"/>
      <point x="173" y="-158"/>
      <point x="111" y="-101"/>
      <point x="79" y="-56" type="curve"/>
      <point x="-76" y="-56" type="line"/>
      <point x="-108" y="-101"/>
      <point x="-170" y="-158"/>
      <point x="-231" y="-196" type="curve"/>
    </contour>
  </outline>
</glyph>
<glyph name="brevebelowcomb" format="2">
  <unicode hex="032E"/>
  <anchor x="-2" y="0" name="_bottom"/>
  <anchor x="-2" y="-225" name="bottom"/>
  <outline>
    <contour>
      <point x="-4" y="-225" type="curve" smooth="yes"/>
      <point x="96" y="-225"/>
      <point x="178" y="-182"/>
      <point x="199" y="-43" type="curve"/>
      <point x="189" y="-43" type="line"/>
      <point x="167" y="-91"/>
      <point x="127" y="-126"/>
      <point x="-4" y="-126" type="curve" smooth="yes"/>
      <point x="-136" y="-126"/>
      <point x="-175" y="-91"/>
      <point x="-198" y="-43" type="curve"/>
      <point x="-208" y="-43" type="line"/>
      <point x="-188" y="-182"/>
      <point x="-106" y="-225"/>
    </contour>
  </outline>
</glyph>
<glyph name="breveinvertedbelowcomb" format="2">
  <unicode hex="032F"/>
  <anchor x="-2" y="0" name="_bottom"/>
  <anchor x="-2" y="-225" name="bottom"/>
  <outline>
    <contour>
      <point x="-208" y="-225" type="curve"/>
      <point x="-198" y="-225" type="line"/>
      <point x="-175" y="-177"/>
      <point x="-136" y="-142"/>
      <point x="-4" y="-142" type="curve" smooth="yes"/>
      <point x="127" y="-142"/>
      <point x="167" y="-177"/>
      <point x="189" y="-225" type="curve"/>
      <point x="199" y="-225" type="line"/>
      <point x="178" y="-86"/>
      <point x="96" y="-43"/>
      <point x="-4" y="-43" type="curve" smooth="yes"/>
      <point x="-106" y="-43"/>
      <point x="-188" y="-86"/>
    </contour>
  </outline>
</glyph>
<glyph name="tildebelowcomb" format="2">
  <unicode hex="0330"/>
  <anchor x="2" y="0" name="_bottom"/>
  <anchor x="2" y="-270" name="bottom"/>
  <outline>
    <contour>
      <point x="113" y="-240" type="curve" smooth="yes"/>
      <point x="212" y="-240"/>
      <point x="252" y="-161"/>
      <point x="249" y="-56" type="curve"/>
      <point x="239" y="-56" type="line"/>
      <point x="246" y="-62"/>
      <point x="212" y="-119"/>
      <point x="143" y="-119" type="curve" smooth="yes"/>
      <point x="70" y="-119"/>
      <point x="-16" y="-46"/>
      <point x="-110" y="-46" type="curve" smooth="yes"/>
      <point x="-207" y="-46"/>
      <point x="-250" y="-123"/>
      <point x="-246" y="-230" type="curve"/>
      <point x="-236" y="-230" type="line"/>
      <point x="-243" y="-224"/>
      <point x="-211" y="-167"/>
      <point x="-140" y="-167" type="curve" smooth="yes"/>
      <point x="-64" y="-167"/>
      <point x="19" y="-240"/>
    </contour>
  </outline>
</glyph>
<glyph name="dbllowlinecomb" format="2">
  <unicode hex="0333"/>
  <anchor x="0" y="0" name="_bottom"/>
  <anchor x="0" y="-220" name="bottom"/>
  <outline>
    <contour>
      <point x="-245" y="-81" type="line"/>
      <point x="245" y="-81" type="line"/>
      <point x="245" y="-61" type="line"/>
      <point x="-245" y="-61" type="line"/>
    </contour>
    <contour>
      <point x="-245" y="-201" type="line"/>
      <point x="245" y="-201" type="line"/>
      <point x="245" y="-181" type="line"/>
      <point x="-245" y="-181" type="line"/>
    </contour>
  </outline>
</glyph>
<glyph name="dbloverlinecomb" format="2">
  <unicode hex="033F"/>
  <anchor x="0" y="536" name="_top"/>
  <anchor x="0" y="943" name="top"/>
  <outline>
    <contour>
      <point x="-245" y="904" type="line"/>
      <point x="245" y="904" type="line"/>
      <point x="245" y="924" type="line"/>
      <point x="-245" y="924" type="line"/>
    </contour>
    <contour>
      <point x="-245" y="776" type="line"/>
      <point x="245" y="776" type="line"/>
      <point x="245" y="796" type="line"/>
      <point x="-245" y="796" type="line"/>
    </contour>
  </outline>
</glyph>
<glyph name="arrowheadrightheadupbelowcomb" format="2">
  <unicode hex="0356"/>
  <anchor x="0" y="0" name="_bottom"/>
  <anchor x="0" y="-240" name="bottom"/>
  <outline>
    <contour>
      <point x="4" y="-240" type="line"/>
      <point x="22" y="-240" type="line"/>
      <point x="47" y="-213"/>
      <point x="85" y="-168"/>
      <point x="117" y="-89" type="curve"/>
      <point x="150" y="-168"/>
      <point x="188" y="-213"/>
      <point x="213" y="-240" type="curve"/>
      <point x="231" y="-240" type="line"/>
      <point x="231" y="-235" type="line"/>
      <point x="187" y="-179"/>
      <point x="155" y="-132"/>
      <point x="128" y="-57" type="curve"/>
      <point x="107" y="-57" type="line"/>
      <point x="80" y="-131"/>
      <point x="48" y="-179"/>
      <point x="4" y="-235" type="curve"/>
    </contour>
    <contour>
      <point x="-221" y="-240" type="line"/>
      <point x="-216" y="-240" type="line"/>
      <point x="-154" y="-200"/>
      <point x="-102" y="-171"/>
      <point x="-21" y="-146" type="curve"/>
      <point x="-21" y="-127" type="line"/>
      <point x="-102" y="-102"/>
      <point x="-154" y="-73"/>
      <point x="-216" y="-33" type="curve"/>
      <point x="-221" y="-33" type="line"/>
      <point x="-221" y="-47" type="line"/>
      <point x="-189" y="-72"/>
      <point x="-142" y="-107"/>
      <point x="-55" y="-136" type="curve"/>
      <point x="-142" y="-166"/>
      <point x="-189" y="-201"/>
      <point x="-221" y="-226" type="curve"/>
    </contour>
  </outline>
</glyph>
<glyph name="breveinverteddoublecomb" format="2">
  <unicode hex="0361"/>
  <anchor x="-410" y="586" name="_top"/>
  <anchor x="-1" y="831" name="top"/>
  <outline>
    <contour>
      <point x="-496" y="650" type="curve"/>
      <point x="-486" y="650" type="line"/>
      <point x="-404" y="690"/>
      <point x="-292" y="733"/>
      <point x="-6" y="733" type="curve" smooth="yes"/>
      <point x="290" y="733"/>
      <point x="404" y="690"/>
      <point x="485" y="650" type="curve"/>
      <point x="495" y="650" type="line"/>
      <point x="400" y="776"/>
      <point x="239" y="831"/>
      <point x="-1" y="831" type="curve" smooth="yes"/>
      <point x="-240" y="831"/>
      <point x="-403" y="777"/>
    </contour>
  </outline>
</glyph>
<glyph name="Omega" format="2">
  <advance width="990"/>
  <unicode hex="03A9"/>
  <anchor x="496" y="0" name="bottom"/>
  <anchor x="496" y="714" name="top"/>
  <anchor x="20" y="714" name="topleft"/>
  <outline>
    <contour>
      <point x="60" y="0" type="line"/>
      <point x="456" y="0" type="line"/>
      <point x="449" y="230" type="line"/>
      <point x="366" y="236"/>
      <point x="328" y="313"/>
      <point x="328" y="458" type="curve" smooth="yes"/>
      <point x="328" y="643"/>
      <point x="374" y="715"/>
      <point x="492" y="715" type="curve" smooth="yes"/>
      <point x="612" y="715"/>
      <point x="658" y="643"/>
      <point x="658" y="458" type="curve" smooth="yes"/>
      <point x="658" y="310"/>
      <point x="621" y="234"/>
      <point x="536" y="228" type="curve"/>
      <point x="529" y="0" type="line"/>
      <point x="927" y="0" type="line"/>
      <point x="936" y="237" type="line"/>
      <point x="926" y="237" type="line"/>
      <point x="925" y="230" type="line" smooth="yes"/>
      <point x="919" y="163"/>
      <point x="900" y="142"/>
      <point x="848" y="142" type="curve" smooth="yes"/>
      <point x="543" y="142" type="line"/>
      <point x="546" y="219" type="line"/>
      <point x="761" y="210"/>
      <point x="913" y="299"/>
      <point x="913" y="465" type="curve" smooth="yes"/>
      <point x="913" y="622"/>
      <point x="764" y="725"/>
      <point x="492" y="725" type="curve" smooth="yes"/>
      <point x="213" y="725"/>
      <point x="76" y="622"/>
      <point x="76" y="465" type="curve" smooth="yes"/>
      <point x="76" y="300"/>
      <point x="227" y="213"/>
      <point x="439" y="222" type="curve"/>
      <point x="442" y="137" type="line"/>
      <point x="143" y="137" type="line" smooth="yes"/>
      <point x="88" y="137"/>
      <point x="70" y="158"/>
      <point x="64" y="225" type="curve" smooth="yes"/>
      <point x="63" y="232" type="line"/>
      <point x="53" y="232" type="line"/>
    </contour>
  </outline>
</glyph>
<glyph name="epsilon" format="2">
  <advance width="648"/>
  <unicode hex="03B5"/>
  <anchor x="324" y="0" name="bottom"/>
  <anchor x="324" y="536" name="top"/>
  <outline>
    <contour>
      <point x="332" y="-10" type="curve" smooth="yes"/>
      <point x="484" y="-10"/>
      <point x="617" y="18"/>
      <point x="617" y="108" type="curve" smooth="yes"/>
      <point x="617" y="141"/>
      <point x="599" y="180"/>
      <point x="552" y="192" type="curve"/>
      <point x="554" y="63"/>
      <point x="515" y="3"/>
      <point x="401" y="3" type="curve" smooth="yes"/>
      <point x="329" y="3"/>
      <point x="262" y="23"/>
      <point x="262" y="142" type="curve" smooth="yes"/>
      <point x="262" y="236"/>
      <point x="296" y="279"/>
      <point x="319" y="288" type="curve"/>
      <point x="409" y="251"/>
      <point x="441" y="247"/>
      <point x="473" y="247" type="curve" smooth="yes"/>
      <point x="525" y="247"/>
      <point x="538" y="268"/>
      <point x="538" y="289" type="curve" smooth="yes"/>
      <point x="538" y="322"/>
      <point x="507" y="331"/>
      <point x="456" y="331" type="curve" smooth="yes"/>
      <point x="423" y="331"/>
      <point x="410" y="330"/>
      <point x="327" y="307" type="curve"/>
      <point x="302" y="308"/>
      <point x="281" y="345"/>
      <point x="281" y="396" type="curve" smooth="yes"/>
      <point x="281" y="519"/>
      <point x="309" y="542"/>
      <point x="349" y="542" type="curve" smooth="yes"/>
      <point x="399" y="542"/>
      <point x="413" y="515"/>
      <point x="413" y="381" type="curve"/>
      <point x="588" y="381"/>
      <point x="588" y="427"/>
      <point x="588" y="463" type="curve" smooth="yes"/>
      <point x="588" y="510"/>
      <point x="566" y="552"/>
      <point x="362" y="552" type="curve" smooth="yes"/>
      <point x="159" y="552"/>
      <point x="55" y="507"/>
      <point x="55" y="427" type="curve" smooth="yes"/>
      <point x="55" y="329"/>
      <point x="155" y="296"/>
      <point x="294" y="297" type="curve"/>
      <point x="294" y="295" type="line"/>
      <point x="122" y="295"/>
      <point x="34" y="230"/>
      <point x="34" y="130" type="curve" smooth="yes"/>
      <point x="34" y="29"/>
      <point x="144" y="-10"/>
    </contour>
  </outline>
</glyph>
<glyph name="nu" format="2">
  <advance width="675"/>
  <unicode hex="03BD"/>
  <anchor x="338" y="0" name="bottom"/>
  <anchor x="329" y="536" name="top"/>
  <outline>
    <contour>
      <point x="238" y="0" type="curve"/>
      <point x="376" y="0" type="line"/>
      <point x="553" y="171"/>
      <point x="618" y="255"/>
      <point x="618" y="411" type="curve" smooth="yes"/>
      <point x="618" y="478"/>
      <point x="607" y="546"/>
      <point x="521" y="546" type="curve" smooth="yes"/>
      <point x="463" y="546"/>
      <point x="435" y="513"/>
      <point x="436" y="452" type="curve"/>
      <point x="524" y="448"/>
      <point x="546" y="382"/>
      <point x="546" y="332" type="curve" smooth="yes"/>
      <point x="546" y="238"/>
      <point x="489" y="138"/>
      <point x="420" y="56" type="curve"/>
      <point x="287" y="556"/>
      <point x="232" y="543"/>
      <point x="126" y="543" type="curve" smooth="yes"/>
      <point x="63" y="543"/>
      <point x="-4" y="522"/>
      <point x="-58" y="493" type="curve"/>
      <point x="-51" y="484" type="line"/>
      <point x="-44" y="490"/>
      <point x="-35" y="492"/>
      <point x="-22" y="492" type="curve" smooth="yes"/>
      <point x="60" y="492"/>
      <point x="153" y="258"/>
    </contour>
  </outline>
</glyph>
<glyph name="rho" format="2">
  <advance width="788"/>
  <unicode hex="03C1"/>
  <anchor x="394" y="-240" name="bottom"/>
  <anchor x="394" y="536" name="top"/>
  <outline>
    <contour>
      <point x="92" y="-240" type="line"/>
      <point x="317" y="-240" type="line"/>
      <point x="317" y="-49" type="line" smooth="yes"/>
      <point x="317" y="-13"/>
      <point x="318" y="17"/>
      <point x="317" y="35" type="curve"/>
      <point x="339" y="7"/>
      <point x="383" y="-11"/>
      <point x="463" y="-11" type="curve" smooth="yes"/>
      <point x="618" y="-11"/>
      <point x="740" y="69"/>
      <point x="740" y="258" type="curve" smooth="yes"/>
      <point x="740" y="445"/>
      <point x="616" y="552"/>
      <point x="417" y="552" type="curve" smooth="yes"/>
      <point x="191" y="552"/>
      <point x="92" y="444"/>
      <point x="92" y="281" type="curve" smooth="yes"/>
    </contour>
    <contour>
      <point x="409" y="1" type="curve" smooth="yes"/>
      <point x="365" y="1"/>
      <point x="334" y="37"/>
      <point x="317" y="74" type="curve"/>
      <point x="317" y="296" type="line" smooth="yes"/>
      <point x="317" y="483"/>
      <point x="339" y="542"/>
      <point x="408" y="542" type="curve" smooth="yes"/>
      <point x="489" y="542"/>
      <point x="513" y="473"/>
      <point x="513" y="255" type="curve" smooth="yes"/>
      <point x="513" y="61"/>
      <point x="491" y="1"/>
    </contour>
  </outline>
</glyph>
<glyph name="uni03DE" format="2">
  <advance width="550"/>
  <unicode hex="03DE"/>
  <anchor x="275" y="0" name="bottom"/>
  <anchor x="275" y="714" name="top"/>
  <outline>
    <contour>
      <point x="390" y="-11" type="curve" smooth="yes"/>
      <point x="451" y="-11"/>
      <point x="542" y="16"/>
      <point x="542" y="92" type="curve" smooth="yes"/>
      <point x="542" y="124"/>
      <point x="527" y="146"/>
      <point x="500" y="154" type="curve"/>
      <point x="477" y="127"/>
      <point x="438" y="119"/>
      <point x="414" y="119" type="curve" smooth="yes"/>
      <point x="372" y="119"/>
      <point x="334" y="143"/>
      <point x="334" y="178" type="curve" smooth="yes"/>
      <point x="334" y="279"/>
      <point x="472" y="475"/>
      <point x="534" y="485" type="curve"/>
      <point x="534" y="427" type="line"/>
      <point x="212" y="427" type="line"/>
      <point x="247" y="478"/>
      <point x="292" y="573"/>
      <point x="292" y="620" type="curve" smooth="yes"/>
      <point x="292" y="664"/>
      <point x="257" y="715"/>
      <point x="158" y="715" type="curve" smooth="yes"/>
      <point x="55" y="715"/>
      <point x="4" y="670"/>
      <point x="4" y="614" type="curve" smooth="yes"/>
      <point x="4" y="582"/>
      <point x="19" y="561"/>
      <point x="45" y="553" type="curve"/>
      <point x="69" y="579"/>
      <point x="107" y="587"/>
      <point x="130" y="587" type="curve" smooth="yes"/>
      <point x="172" y="587"/>
      <point x="211" y="560"/>
      <point x="211" y="524" type="curve" smooth="yes"/>
      <point x="211" y="424"/>
      <point x="74" y="229"/>
      <point x="12" y="214" type="curve"/>
      <point x="12" y="272" type="line"/>
      <point x="328" y="272" type="line"/>
      <point x="297" y="224"/>
      <point x="254" y="132"/>
      <point x="254" y="87" type="curve" smooth="yes"/>
      <point x="254" y="41"/>
      <point x="290" y="-11"/>
    </contour>
  </outline>
</glyph>
<glyph name="uni03DF" format="2">
  <advance width="621"/>
  <unicode hex="03DF"/>
  <anchor x="311" y="-206" name="bottom"/>
  <anchor x="311" y="760" name="top"/>
  <outline>
    <contour>
      <point x="418" y="-206" type="curve" smooth="yes"/>
      <point x="509" y="-206"/>
      <point x="553" y="-151"/>
      <point x="553" y="-108" type="curve"/>
      <point x="480" y="-108"/>
      <point x="457" y="-91"/>
      <point x="457" y="-41" type="curve" smooth="yes"/>
      <point x="457" y="36"/>
      <point x="502" y="164"/>
      <point x="583" y="320" type="curve"/>
      <point x="583" y="450" type="line"/>
      <point x="80" y="296" type="line"/>
      <point x="109" y="357"/>
      <point x="340" y="496"/>
      <point x="340" y="644" type="curve" smooth="yes"/>
      <point x="340" y="695"/>
      <point x="301" y="760"/>
      <point x="203" y="760" type="curve" smooth="yes"/>
      <point x="112" y="760"/>
      <point x="67" y="704"/>
      <point x="67" y="662" type="curve"/>
      <point x="141" y="662"/>
      <point x="163" y="647"/>
      <point x="163" y="598" type="curve" smooth="yes"/>
      <point x="163" y="521"/>
      <point x="119" y="385"/>
      <point x="38" y="228" type="curve"/>
      <point x="38" y="99" type="line"/>
      <point x="538" y="251" type="line"/>
      <point x="504" y="191"/>
      <point x="281" y="62"/>
      <point x="281" y="-86" type="curve" smooth="yes"/>
      <point x="281" y="-140"/>
      <point x="320" y="-206"/>
    </contour>
  </outline>
</glyph>
<glyph name="uni03E0" format="2">
  <advance width="787"/>
  <unicode hex="03E0"/>
  <anchor x="394" y="0" name="bottom"/>
  <anchor x="394" y="714" name="top"/>
  <outline>
    <contour>
      <point x="250" y="-10" type="line"/>
      <point x="460" y="36"/>
      <point x="725" y="169"/>
      <point x="725" y="430" type="curve" smooth="yes"/>
      <point x="725" y="628"/>
      <point x="643" y="724"/>
      <point x="364" y="724" type="curve" smooth="yes"/>
      <point x="136" y="724"/>
      <point x="36" y="637"/>
      <point x="36" y="562" type="curve" smooth="yes"/>
      <point x="36" y="504"/>
      <point x="61" y="501"/>
      <point x="199" y="501" type="curve"/>
      <point x="199" y="662"/>
      <point x="235" y="714"/>
      <point x="342" y="714" type="curve" smooth="yes"/>
      <point x="415" y="714"/>
      <point x="472" y="666"/>
      <point x="495" y="502" type="curve"/>
      <point x="207" y="398" type="line"/>
      <point x="212" y="389" type="line"/>
      <point x="496" y="490" type="line"/>
      <point x="501" y="458"/>
      <point x="503" y="414"/>
      <point x="503" y="335" type="curve"/>
      <point x="281" y="254" type="line"/>
      <point x="286" y="245" type="line"/>
      <point x="503" y="322" type="line"/>
      <point x="503" y="321"/>
      <point x="503" y="321"/>
      <point x="503" y="320" type="curve" smooth="yes"/>
      <point x="505" y="115"/>
      <point x="366" y="40"/>
      <point x="250" y="0" type="curve"/>
    </contour>
  </outline>
</glyph>
<glyph name="uni03FA" format="2">
  <advance width="1122"/>
  <unicode hex="03FA"/>
  <anchor x="561" y="0" name="bottom"/>
  <anchor x="561" y="714" name="top"/>
  <outline>
    <contour>
      <point x="24" y="0" type="line"/>
      <point x="349" y="0" type="line"/>
      <point x="349" y="10" type="line"/>
      <point x="269" y="10" type="line" smooth="yes"/>
      <point x="209" y="10"/>
      <point x="193" y="28"/>
      <point x="193" y="85" type="curve" smooth="yes"/>
      <point x="193" y="672" type="line"/>
      <point x="467" y="232" type="line"/>
      <point x="546" y="232" type="line"/>
      <point x="763" y="713" type="line"/>
      <point x="763" y="76" type="line" smooth="yes"/>
      <point x="763" y="35"/>
      <point x="743" y="10"/>
      <point x="681" y="10" type="curve" smooth="yes"/>
      <point x="656" y="10" type="line"/>
      <point x="656" y="0" type="line"/>
      <point x="1097" y="0" type="line"/>
      <point x="1097" y="10" type="line"/>
      <point x="1066" y="10" type="line" smooth="yes"/>
      <point x="1002" y="10"/>
      <point x="992" y="36"/>
      <point x="992" y="85" type="curve" smooth="yes"/>
      <point x="992" y="639" type="line" smooth="yes"/>
      <point x="992" y="688"/>
      <point x="1010" y="704"/>
      <point x="1068" y="704" type="curve" smooth="yes"/>
      <point x="1097" y="704" type="line"/>
      <point x="1097" y="714" type="line"/>
      <point x="754" y="714" type="line"/>
      <point x="628" y="440" type="line"/>
      <point x="437" y="714" type="line"/>
      <point x="24" y="714" type="line"/>
      <point x="24" y="704" type="line"/>
      <point x="128" y="704" type="line" smooth="yes"/>
      <point x="174" y="704"/>
      <point x="183" y="678"/>
      <point x="183" y="633" type="curve" smooth="yes"/>
      <point x="183" y="80" type="line" smooth="yes"/>
      <point x="183" y="28"/>
      <point x="151" y="10"/>
      <point x="116" y="10" type="curve" smooth="yes"/>
      <point x="24" y="10" type="line"/>
    </contour>
  </outline>
</glyph>
<glyph name="uni03FB" format="2">
  <advance width="949"/>
  <unicode hex="03FB"/>
  <anchor x="475" y="-240" name="bottom"/>
  <anchor x="475" y="536" name="top"/>
  <outline>
    <contour>
      <point x="211" y="-240" type="curve" smooth="yes"/>
      <point x="269" y="-240"/>
      <point x="307" y="-210"/>
      <point x="307" y="-121" type="curve"/>
      <point x="163" y="-123"/>
      <point x="128" y="-92"/>
      <point x="128" y="-92" type="curve" smooth="yes"/>
      <point x="128" y="495" type="line"/>
      <point x="130" y="495" type="line"/>
      <point x="326" y="202" type="line"/>
      <point x="429" y="202" type="line"/>
      <point x="597" y="504" type="line"/>
      <point x="599" y="504" type="line"/>
      <point x="599" y="140" type="line" smooth="yes"/>
      <point x="599" y="60"/>
      <point x="630" y="-10"/>
      <point x="777" y="-10" type="curve" smooth="yes"/>
      <point x="842" y="-10"/>
      <point x="876" y="-2"/>
      <point x="913" y="3" type="curve"/>
      <point x="913" y="13" type="line"/>
      <point x="892" y="9"/>
      <point x="874" y="7"/>
      <point x="859" y="7" type="curve" smooth="yes"/>
      <point x="820" y="7"/>
      <point x="807" y="17"/>
      <point x="807" y="68" type="curve" smooth="yes"/>
      <point x="807" y="453" type="line" smooth="yes"/>
      <point x="807" y="498"/>
      <point x="816" y="526"/>
      <point x="856" y="526" type="curve" smooth="yes"/>
      <point x="877" y="526" type="line"/>
      <point x="877" y="536" type="line"/>
      <point x="602" y="536" type="line"/>
      <point x="495" y="340" type="line"/>
      <point x="370" y="536" type="line"/>
      <point x="15" y="536" type="line"/>
      <point x="15" y="526" type="line"/>
      <point x="71" y="526" type="line" smooth="yes"/>
      <point x="116" y="526"/>
      <point x="118" y="504"/>
      <point x="118" y="452" type="curve" smooth="yes"/>
      <point x="118" y="328" type="line" smooth="yes"/>
      <point x="118" y="132"/>
      <point x="108" y="5"/>
      <point x="108" y="-115" type="curve" smooth="yes"/>
      <point x="108" y="-209"/>
      <point x="157" y="-240"/>
    </contour>
  </outline>
</glyph>
<glyph name="afii10053" format="2">
  <advance width="825"/>
  <unicode hex="0404"/>
  <anchor x="412" y="0" name="bottom"/>
  <anchor x="412" y="714" name="top"/>
  <outline>
    <contour>
      <point x="499" y="-10" type="curve" smooth="yes"/>
      <point x="717" y="-10"/>
      <point x="775" y="80"/>
      <point x="775" y="149" type="curve" smooth="yes"/>
      <point x="775" y="182"/>
      <point x="754" y="197"/>
      <point x="738" y="204" type="curve"/>
      <point x="699" y="65"/>
      <point x="647" y="3"/>
      <point x="545" y="3" type="curve" smooth="yes"/>
      <point x="370" y="3"/>
      <point x="309" y="107"/>
      <point x="309" y="349" type="curve"/>
      <point x="547" y="349" type="line"/>
      <point x="547" y="359" type="line"/>
      <point x="309" y="359" type="line"/>
      <point x="309" y="615"/>
      <point x="357" y="714"/>
      <point x="473" y="714" type="curve" smooth="yes"/>
      <point x="561" y="714"/>
      <point x="596" y="649"/>
      <point x="596" y="496" type="curve"/>
      <point x="718" y="496"/>
      <point x="774" y="545"/>
      <point x="774" y="605" type="curve" smooth="yes"/>
      <point x="774" y="671"/>
      <point x="682" y="724"/>
      <point x="478" y="724" type="curve" smooth="yes"/>
      <point x="212" y="724"/>
      <point x="63" y="574"/>
      <point x="63" y="359" type="curve" smooth="yes"/>
      <point x="63" y="137"/>
      <point x="201" y="-10"/>
    </contour>
  </outline>
</glyph>
<glyph name="afii10025" format="2">
  <advance width="731"/>
  <unicode hex="0417"/>
  <anchor x="366" y="0" name="bottom"/>
  <anchor x="366" y="714" name="top"/>
  <outline>
    <contour>
      <point x="350" y="-11" type="curve" smooth="yes"/>
      <point x="601" y="-11"/>
      <point x="710" y="80"/>
      <point x="710" y="184" type="curve" smooth="yes"/>
      <point x="710" y="303"/>
      <point x="593" y="368"/>
      <point x="368" y="373" type="curve"/>
      <point x="570" y="380"/>
      <point x="680" y="431"/>
      <point x="680" y="539" type="curve" smooth="yes"/>
      <point x="680" y="637"/>
      <point x="578" y="724"/>
      <point x="363" y="724" type="curve" smooth="yes"/>
      <point x="146" y="724"/>
      <point x="64" y="650"/>
      <point x="64" y="593" type="curve" smooth="yes"/>
      <point x="64" y="487"/>
      <point x="166" y="486"/>
      <point x="248" y="486" type="curve"/>
      <point x="248" y="663"/>
      <point x="268" y="714"/>
      <point x="354" y="714" type="curve" smooth="yes"/>
      <point x="433" y="714"/>
      <point x="460" y="670"/>
      <point x="460" y="540" type="curve" smooth="yes"/>
      <point x="460" y="420"/>
      <point x="401" y="374"/>
      <point x="255" y="374" type="curve" smooth="yes"/>
      <point x="175" y="374" type="line"/>
      <point x="175" y="364" type="line"/>
      <point x="277" y="364" type="line" smooth="yes"/>
      <point x="426" y="364"/>
      <point x="495" y="294"/>
      <point x="495" y="171" type="curve" smooth="yes"/>
      <point x="495" y="63"/>
      <point x="439" y="-1"/>
      <point x="346" y="-1" type="curve" smooth="yes"/>
      <point x="216" y="-1"/>
      <point x="171" y="75"/>
      <point x="172" y="271" type="curve"/>
      <point x="73" y="271"/>
      <point x="25" y="226"/>
      <point x="25" y="162" type="curve" smooth="yes"/>
      <point x="25" y="57"/>
      <point x="130" y="-11"/>
    </contour>
  </outline>
</glyph>
<glyph name="afii10028" format="2">
  <advance width="911"/>
  <unicode hex="041A"/>
  <anchor x="456" y="0" name="bottom"/>
  <anchor x="456" y="714" name="top"/>
  <outline>
    <contour>
      <point x="26" y="0" type="line"/>
      <point x="475" y="0" type="line"/>
      <point x="475" y="10" type="line"/>
      <point x="431" y="10" type="line" smooth="yes"/>
      <point x="386" y="10"/>
      <point x="366" y="16"/>
      <point x="366" y="65" type="curve" smooth="yes"/>
      <point x="366" y="355" type="line"/>
      <point x="412" y="355"/>
      <point x="444" y="314"/>
      <point x="467" y="269" type="curve" smooth="yes"/>
      <point x="549" y="105" type="line" smooth="yes"/>
      <point x="566" y="73"/>
      <point x="617" y="0"/>
      <point x="716" y="0" type="curve" smooth="yes"/>
      <point x="911" y="0" type="line"/>
      <point x="911" y="10" type="line"/>
      <point x="912" y="10" type="line" smooth="yes"/>
      <point x="889" y="10"/>
      <point x="831" y="43"/>
      <point x="763" y="177" type="curve" smooth="yes"/>
      <point x="703" y="295" type="line" smooth="yes"/>
      <point x="670" y="354"/>
      <point x="598" y="408"/>
      <point x="524" y="410" type="curve"/>
      <point x="543" y="444"/>
      <point x="587" y="483"/>
      <point x="640" y="565" type="curve" smooth="yes"/>
      <point x="664" y="591"/>
      <point x="679" y="622"/>
      <point x="735" y="622" type="curve" smooth="yes"/>
      <point x="774" y="622"/>
      <point x="811" y="611"/>
      <point x="824" y="575" type="curve"/>
      <point x="865" y="585"/>
      <point x="883" y="608"/>
      <point x="883" y="645" type="curve" smooth="yes"/>
      <point x="883" y="692"/>
      <point x="851" y="720"/>
      <point x="793" y="720" type="curve" smooth="yes"/>
      <point x="750" y="720"/>
      <point x="725" y="715"/>
      <point x="628" y="557" type="curve" smooth="yes"/>
      <point x="589" y="501"/>
      <point x="551" y="456"/>
      <point x="527" y="433" type="curve" smooth="yes"/>
      <point x="481" y="386"/>
      <point x="435" y="370"/>
      <point x="366" y="365" type="curve"/>
      <point x="366" y="649" type="line" smooth="yes"/>
      <point x="366" y="698"/>
      <point x="376" y="704"/>
      <point x="425" y="704" type="curve" smooth="yes"/>
      <point x="475" y="704" type="line"/>
      <point x="475" y="714" type="line"/>
      <point x="26" y="714" type="line"/>
      <point x="26" y="704" type="line"/>
      <point x="67" y="704" type="line" smooth="yes"/>
      <point x="110" y="704"/>
      <point x="132" y="698"/>
      <point x="132" y="657" type="curve" smooth="yes"/>
      <point x="132" y="65" type="line" smooth="yes"/>
      <point x="132" y="24"/>
      <point x="110" y="10"/>
      <point x="67" y="10" type="curve" smooth="yes"/>
      <point x="26" y="10" type="line"/>
    </contour>
  </outline>
</glyph>
<glyph name="afii10037" format="2">
  <advance width="826"/>
  <unicode hex="0423"/>
  <anchor x="469" y="0" name="bottom"/>
  <anchor x="469" y="714" name="top"/>
  <outline>
    <contour>
      <point x="125" y="0" type="line"/>
      <point x="207" y="0" type="line" smooth="yes"/>
      <point x="343" y="0"/>
      <point x="400" y="32"/>
      <point x="449" y="133" type="curve" smooth="yes"/>
      <point x="695" y="643" type="line" smooth="yes"/>
      <point x="717" y="689"/>
      <point x="738" y="704"/>
      <point x="780" y="704" type="curve" smooth="yes"/>
      <point x="826" y="704" type="line"/>
      <point x="826" y="714" type="line"/>
      <point x="545" y="714" type="line"/>
      <point x="545" y="704" type="line"/>
      <point x="618" y="704" type="line" smooth="yes"/>
      <point x="664" y="704"/>
      <point x="686" y="695"/>
      <point x="686" y="668" type="curve" smooth="yes"/>
      <point x="686" y="654"/>
      <point x="680" y="634"/>
      <point x="668" y="611" type="curve" smooth="yes"/>
      <point x="564" y="405" type="line" smooth="yes"/>
      <point x="549" y="372"/>
      <point x="536" y="349"/>
      <point x="522" y="319" type="curve"/>
      <point x="510" y="336"/>
      <point x="497" y="349"/>
      <point x="483" y="365" type="curve" smooth="yes"/>
      <point x="339" y="572" type="line" smooth="yes"/>
      <point x="320" y="603"/>
      <point x="305" y="625"/>
      <point x="305" y="662" type="curve" smooth="yes"/>
      <point x="305" y="693"/>
      <point x="327" y="704"/>
      <point x="347" y="704" type="curve" smooth="yes"/>
      <point x="421" y="704" type="line"/>
      <point x="421" y="714" type="line"/>
      <point x="0" y="714" type="line"/>
      <point x="0" y="704" type="line"/>
      <point x="-1" y="704" type="line" smooth="yes"/>
      <point x="18" y="704"/>
      <point x="31" y="687"/>
      <point x="55" y="652" type="curve" smooth="yes"/>
      <point x="427" y="115" type="line"/>
      <point x="378" y="34"/>
      <point x="314" y="30"/>
      <point x="206" y="30" type="curve" smooth="yes"/>
      <point x="125" y="30" type="line"/>
    </contour>
  </outline>
</glyph>
<glyph name="afii10041" format="2">
  <advance width="931"/>
  <unicode hex="0427"/>
  <anchor x="465" y="0" name="bottom"/>
  <anchor x="465" y="714" name="top"/>
  <outline>
    <contour>
      <point x="470" y="0" type="line"/>
      <point x="907" y="0" type="line"/>
      <point x="907" y="10" type="line"/>
      <point x="862" y="10" type="line" smooth="yes"/>
      <point x="817" y="10"/>
      <point x="800" y="22"/>
      <point x="800" y="77" type="curve" smooth="yes"/>
      <point x="800" y="642" type="line" smooth="yes"/>
      <point x="800" y="693"/>
      <point x="818" y="704"/>
      <point x="862" y="704" type="curve" smooth="yes"/>
      <point x="907" y="704" type="line"/>
      <point x="907" y="714" type="line"/>
      <point x="476" y="714" type="line"/>
      <point x="476" y="704" type="line"/>
      <point x="504" y="704" type="line" smooth="yes"/>
      <point x="547" y="704"/>
      <point x="565" y="693"/>
      <point x="565" y="642" type="curve" smooth="yes"/>
      <point x="565" y="245" type="line"/>
      <point x="544" y="249"/>
      <point x="509" y="244"/>
      <point x="469" y="244" type="curve" smooth="yes"/>
      <point x="373" y="244"/>
      <point x="342" y="276"/>
      <point x="342" y="409" type="curve" smooth="yes"/>
      <point x="342" y="642" type="line" smooth="yes"/>
      <point x="342" y="693"/>
      <point x="361" y="704"/>
      <point x="404" y="704" type="curve" smooth="yes"/>
      <point x="430" y="704" type="line"/>
      <point x="430" y="714" type="line"/>
      <point x="21" y="714" type="line"/>
      <point x="21" y="704" type="line"/>
      <point x="46" y="704" type="line" smooth="yes"/>
      <point x="91" y="704"/>
      <point x="108" y="693"/>
      <point x="108" y="637" type="curve" smooth="yes"/>
      <point x="108" y="481" type="line" smooth="yes"/>
      <point x="108" y="260"/>
      <point x="225" y="225"/>
      <point x="381" y="225" type="curve" smooth="yes"/>
      <point x="481" y="225"/>
      <point x="544" y="241"/>
      <point x="565" y="238" type="curve"/>
      <point x="565" y="71" type="line" smooth="yes"/>
      <point x="565" y="20"/>
      <point x="547" y="10"/>
      <point x="504" y="10" type="curve" smooth="yes"/>
      <point x="470" y="10" type="line"/>
    </contour>
  </outline>
</glyph>
<glyph name="afii10077" format="2">
  <advance width="799"/>
  <unicode hex="043B"/>
  <anchor x="400" y="0" name="bottom"/>
  <anchor x="400" y="536" name="top"/>
  <outline>
    <contour>
      <point x="86" y="-7" type="curve" smooth="yes"/>
      <point x="145" y="-7"/>
      <point x="183" y="32"/>
      <point x="242" y="151" type="curve" smooth="yes"/>
      <point x="297" y="272"/>
      <point x="321" y="440"/>
      <point x="313" y="526" type="curve"/>
      <point x="471" y="526" type="line"/>
      <point x="471" y="73" type="line" smooth="yes"/>
      <point x="471" y="10"/>
      <point x="405" y="10"/>
      <point x="420" y="10" type="curve" smooth="yes"/>
      <point x="386" y="10" type="line"/>
      <point x="386" y="0" type="line"/>
      <point x="785" y="0" type="line"/>
      <point x="785" y="10" type="line"/>
      <point x="763" y="10" type="line" smooth="yes"/>
      <point x="774" y="10"/>
      <point x="698" y="10"/>
      <point x="698" y="73" type="curve" smooth="yes"/>
      <point x="698" y="463" type="line" smooth="yes"/>
      <point x="698" y="526"/>
      <point x="774" y="526"/>
      <point x="763" y="526" type="curve" smooth="yes"/>
      <point x="785" y="526" type="line"/>
      <point x="785" y="536" type="line"/>
      <point x="166" y="536" type="line"/>
      <point x="166" y="526" type="line"/>
      <point x="214" y="526" type="line" smooth="yes"/>
      <point x="291" y="526"/>
      <point x="300" y="499"/>
      <point x="300" y="465" type="curve" smooth="yes"/>
      <point x="300" y="415"/>
      <point x="303" y="405"/>
      <point x="288" y="341" type="curve" smooth="yes"/>
      <point x="261" y="234"/>
      <point x="220" y="94"/>
      <point x="132" y="94" type="curve" smooth="yes"/>
      <point x="100" y="94"/>
      <point x="82" y="111"/>
      <point x="79" y="134" type="curve"/>
      <point x="58" y="128"/>
      <point x="-1" y="123"/>
      <point x="-1" y="61" type="curve" smooth="yes"/>
      <point x="-1" y="17"/>
      <point x="37" y="-7"/>
    </contour>
  </outline>
</glyph>
<glyph name="afii10084" format="2">
  <advance width="678"/>
  <unicode hex="0442"/>
  <anchor x="339" y="0" name="bottom"/>
  <anchor x="339" y="536" name="top"/>
  <outline>
    <contour>
      <point x="136" y="0" type="line"/>
      <point x="543" y="0" type="line"/>
      <point x="543" y="10" type="line"/>
      <point x="524" y="10" type="line" smooth="yes"/>
      <point x="485" y="10"/>
      <point x="453" y="32"/>
      <point x="453" y="77" type="curve" smooth="yes"/>
      <point x="453" y="526" type="line"/>
      <point x="451" y="526" type="line" smooth="yes"/>
      <point x="592" y="526"/>
      <point x="639" y="487"/>
      <point x="653" y="364" type="curve" smooth="yes"/>
      <point x="657" y="329" type="line"/>
      <point x="667" y="329" type="line"/>
      <point x="660" y="536" type="line"/>
      <point x="18" y="536" type="line"/>
      <point x="11" y="329" type="line"/>
      <point x="21" y="329" type="line"/>
      <point x="25" y="364" type="line" smooth="yes"/>
      <point x="39" y="487"/>
      <point x="86" y="526"/>
      <point x="226" y="526" type="curve" smooth="yes"/>
      <point x="226" y="526" type="line"/>
      <point x="226" y="77" type="line" smooth="yes"/>
      <point x="226" y="32"/>
      <point x="187" y="10"/>
      <point x="150" y="10" type="curve" smooth="yes"/>
      <point x="136" y="10" type="line"/>
    </contour>
  </outline>
</glyph>
<glyph name="afii10086" format="2">
  <advance width="1047"/>
  <unicode hex="0444"/>
  <anchor x="523" y="-238" name="bottom"/>
  <anchor x="523" y="760" name="top"/>
  <outline>
    <contour>
      <point x="330" y="-238" type="line"/>
      <point x="720" y="-238" type="line"/>
      <point x="720" y="-228" type="line"/>
      <point x="707" y="-228" type="line" smooth="yes"/>
      <point x="658" y="-228"/>
      <point x="634" y="-212"/>
      <point x="634" y="-162" type="curve" smooth="yes"/>
      <point x="634" y="-2" type="line"/>
      <point x="860" y="7"/>
      <point x="998" y="117"/>
      <point x="998" y="269" type="curve" smooth="yes"/>
      <point x="998" y="417"/>
      <point x="853" y="527"/>
      <point x="634" y="535" type="curve"/>
      <point x="634" y="760" type="line"/>
      <point x="330" y="760" type="line"/>
      <point x="330" y="750" type="line"/>
      <point x="344" y="750" type="line" smooth="yes"/>
      <point x="386" y="750"/>
      <point x="418" y="731"/>
      <point x="418" y="685" type="curve" smooth="yes"/>
      <point x="418" y="538" type="line"/>
      <point x="187" y="529"/>
      <point x="48" y="420"/>
      <point x="48" y="269" type="curve" smooth="yes"/>
      <point x="48" y="117"/>
      <point x="196" y="7"/>
      <point x="418" y="-2" type="curve"/>
      <point x="418" y="-162" type="line" smooth="yes"/>
      <point x="418" y="-212"/>
      <point x="392" y="-228"/>
      <point x="344" y="-228" type="curve" smooth="yes"/>
      <point x="330" y="-228" type="line"/>
    </contour>
    <contour>
      <point x="417" y="8" type="line"/>
      <point x="306" y="25"/>
      <point x="266" y="95"/>
      <point x="266" y="271" type="curve" smooth="yes"/>
      <point x="266" y="443"/>
      <point x="306" y="510"/>
      <point x="417" y="527" type="curve"/>
    </contour>
    <contour>
      <point x="634" y="8" type="curve"/>
      <point x="634" y="525" type="line"/>
      <point x="741" y="506"/>
      <point x="780" y="439"/>
      <point x="780" y="269" type="curve" smooth="yes"/>
      <point x="780" y="93"/>
      <point x="741" y="25"/>
    </contour>
  </outline>
</glyph>
<glyph name="afii10093" format="2">
  <advance width="1119"/>
  <unicode hex="044B"/>
  <anchor x="559" y="0" name="bottom"/>
  <anchor x="559" y="536" name="top"/>
  <outline>
    <contour>
      <point x="15" y="0" type="line"/>
      <point x="429" y="0" type="line" smooth="yes"/>
      <point x="617" y="0"/>
      <point x="706" y="73"/>
      <point x="706" y="161" type="curve" smooth="yes"/>
      <point x="706" y="289"/>
      <point x="583" y="313"/>
      <point x="439" y="313" type="curve" smooth="yes"/>
      <point x="328" y="313" type="line"/>
      <point x="328" y="464" type="line" smooth="yes"/>
      <point x="328" y="496"/>
      <point x="350" y="526"/>
      <point x="413" y="526" type="curve" smooth="yes"/>
      <point x="428" y="526" type="line"/>
      <point x="428" y="536" type="line"/>
      <point x="15" y="536" type="line"/>
      <point x="15" y="526" type="line"/>
      <point x="27" y="526" type="line" smooth="yes"/>
      <point x="84" y="526"/>
      <point x="102" y="495"/>
      <point x="102" y="452" type="curve" smooth="yes"/>
      <point x="102" y="71" type="line" smooth="yes"/>
      <point x="102" y="35"/>
      <point x="88" y="10"/>
      <point x="27" y="10" type="curve" smooth="yes"/>
      <point x="15" y="10" type="line"/>
    </contour>
    <contour>
      <point x="328" y="10" type="line"/>
      <point x="328" y="303" type="line"/>
      <point x="365" y="303" type="line" smooth="yes"/>
      <point x="453" y="303"/>
      <point x="473" y="263"/>
      <point x="473" y="166" type="curve" smooth="yes"/>
      <point x="473" y="52"/>
      <point x="449" y="10"/>
      <point x="368" y="10" type="curve" smooth="yes"/>
    </contour>
    <contour>
      <point x="707" y="0" type="line"/>
      <point x="1104" y="0" type="line"/>
      <point x="1104" y="10" type="line"/>
      <point x="1091" y="10" type="line" smooth="yes"/>
      <point x="1047" y="10"/>
      <point x="1017" y="29"/>
      <point x="1017" y="73" type="curve" smooth="yes"/>
      <point x="1017" y="463" type="line" smooth="yes"/>
      <point x="1017" y="511"/>
      <point x="1047" y="526"/>
      <point x="1091" y="526" type="curve" smooth="yes"/>
      <point x="1104" y="526" type="line"/>
      <point x="1104" y="536" type="line"/>
      <point x="707" y="536" type="line"/>
      <point x="707" y="526" type="line"/>
      <point x="719" y="526" type="line" smooth="yes"/>
      <point x="764" y="526"/>
      <point x="790" y="512"/>
      <point x="790" y="464" type="curve" smooth="yes"/>
      <point x="790" y="73" type="line" smooth="yes"/>
      <point x="790" y="23"/>
      <point x="765" y="10"/>
      <point x="719" y="10" type="curve" smooth="yes"/>
      <point x="707" y="10" type="line"/>
    </contour>
  </outline>
</glyph>
<glyph name="uni0462" format="2">
  <advance width="877"/>
  <unicode hex="0462"/>
  <anchor x="438" y="0" name="bottom"/>
  <anchor x="438" y="714" name="top"/>
  <outline>
    <contour>
      <point x="129" y="0" type="line"/>
      <point x="531" y="0" type="line" smooth="yes"/>
      <point x="772" y="0"/>
      <point x="868" y="83"/>
      <point x="868" y="205" type="curve" smooth="yes"/>
      <point x="868" y="325"/>
      <point x="786" y="396"/>
      <point x="565" y="396" type="curve" smooth="yes"/>
      <point x="468" y="396" type="line"/>
      <point x="468" y="583" type="line"/>
      <point x="508" y="583" type="line" smooth="yes"/>
      <point x="621" y="583"/>
      <point x="662" y="551"/>
      <point x="674" y="453" type="curve" smooth="yes"/>
      <point x="677" y="431" type="line"/>
      <point x="687" y="431" type="line"/>
      <point x="682" y="593" type="line"/>
      <point x="468" y="593" type="line"/>
      <point x="468" y="643" type="line" smooth="yes"/>
      <point x="468" y="683"/>
      <point x="490" y="704"/>
      <point x="515" y="704" type="curve" smooth="yes"/>
      <point x="571" y="704" type="line"/>
      <point x="571" y="714" type="line"/>
      <point x="129" y="714" type="line"/>
      <point x="129" y="704" type="line"/>
      <point x="186" y="704" type="line" smooth="yes"/>
      <point x="213" y="704"/>
      <point x="236" y="694"/>
      <point x="236" y="631" type="curve" smooth="yes"/>
      <point x="236" y="593" type="line"/>
      <point x="17" y="593" type="line"/>
      <point x="10" y="431" type="line"/>
      <point x="20" y="431" type="line"/>
      <point x="23" y="452" type="line" smooth="yes"/>
      <point x="36" y="551"/>
      <point x="76" y="583"/>
      <point x="188" y="583" type="curve" smooth="yes"/>
      <point x="236" y="583" type="line"/>
      <point x="236" y="74" type="line" smooth="yes"/>
      <point x="236" y="35"/>
      <point x="221" y="10"/>
      <point x="177" y="10" type="curve" smooth="yes"/>
      <point x="129" y="10" type="line"/>
    </contour>
    <contour>
      <point x="468" y="10" type="line"/>
      <point x="468" y="386" type="line"/>
      <point x="506" y="386" type="line" smooth="yes"/>
      <point x="599" y="386"/>
      <point x="618" y="349"/>
      <point x="618" y="208" type="curve" smooth="yes"/>
      <point x="618" y="42"/>
      <point x="601" y="10"/>
      <point x="507" y="10" type="curve" smooth="yes"/>
    </contour>
  </outline>
</glyph>
<glyph name="uni0464" format="2">
  <advance width="1252"/>
  <unicode hex="0464"/>
  <anchor x="626" y="0" name="bottom"/>
  <anchor x="626" y="714" name="top"/>
  <outline>
    <contour>
      <point x="925" y="-10" type="curve" smooth="yes"/>
      <point x="1143" y="-10"/>
      <point x="1201" y="80"/>
      <point x="1201" y="149" type="curve" smooth="yes"/>
      <point x="1201" y="182"/>
      <point x="1180" y="197"/>
      <point x="1164" y="204" type="curve"/>
      <point x="1125" y="65"/>
      <point x="1073" y="3"/>
      <point x="971" y="3" type="curve" smooth="yes"/>
      <point x="796" y="3"/>
      <point x="735" y="107"/>
      <point x="735" y="342" type="curve"/>
      <point x="973" y="342" type="line"/>
      <point x="973" y="352" type="line"/>
      <point x="735" y="352" type="line"/>
      <point x="735" y="615"/>
      <point x="783" y="714"/>
      <point x="899" y="714" type="curve" smooth="yes"/>
      <point x="987" y="714"/>
      <point x="1022" y="649"/>
      <point x="1022" y="496" type="curve"/>
      <point x="1144" y="496"/>
      <point x="1200" y="545"/>
      <point x="1200" y="605" type="curve" smooth="yes"/>
      <point x="1200" y="671"/>
      <point x="1108" y="724"/>
      <point x="904" y="724" type="curve" smooth="yes"/>
      <point x="645" y="724"/>
      <point x="498" y="582"/>
      <point x="489" y="352" type="curve"/>
      <point x="365" y="352" type="line"/>
      <point x="365" y="666" type="line" smooth="yes"/>
      <point x="365" y="684"/>
      <point x="381" y="704"/>
      <point x="405" y="704" type="curve" smooth="yes"/>
      <point x="433" y="704" type="line"/>
      <point x="433" y="714" type="line"/>
      <point x="24" y="714" type="line"/>
      <point x="24" y="704" type="line"/>
      <point x="68" y="704" type="line" smooth="yes"/>
      <point x="98" y="704"/>
      <point x="132" y="684"/>
      <point x="132" y="655" type="curve" smooth="yes"/>
      <point x="132" y="57" type="line" smooth="yes"/>
      <point x="132" y="43"/>
      <point x="108" y="10"/>
      <point x="86" y="10" type="curve" smooth="yes"/>
      <point x="24" y="10" type="line"/>
      <point x="24" y="0" type="line"/>
      <point x="433" y="0" type="line"/>
      <point x="433" y="10" type="line"/>
      <point x="405" y="10" type="line" smooth="yes"/>
      <point x="381" y="10"/>
      <point x="365" y="43"/>
      <point x="365" y="56" type="curve" smooth="yes"/>
      <point x="365" y="342" type="line"/>
      <point x="489" y="342" type="line"/>
      <point x="489" y="120"/>
      <point x="640" y="-10"/>
    </contour>
  </outline>
</glyph>
<glyph name="uni0466" format="2">
  <advance width="945"/>
  <unicode hex="0466"/>
  <anchor x="505" y="0" name="bottom"/>
  <anchor x="505" y="714" name="top"/>
  <outline>
    <contour>
      <point x="8" y="0" type="line"/>
      <point x="251" y="0" type="line"/>
      <point x="251" y="10" type="line"/>
      <point x="170" y="10" type="line" smooth="yes"/>
      <point x="132" y="10"/>
      <point x="122" y="25"/>
      <point x="122" y="43" type="curve" smooth="yes"/>
      <point x="122" y="60"/>
      <point x="130" y="82"/>
      <point x="140" y="106" type="curve" smooth="yes"/>
      <point x="236" y="349" type="line"/>
      <point x="299" y="349" type="line"/>
      <point x="299" y="0" type="line"/>
      <point x="476" y="0" type="line"/>
      <point x="476" y="349" type="line"/>
      <point x="528" y="349" type="line"/>
      <point x="634" y="86" type="line" smooth="yes"/>
      <point x="643" y="65"/>
      <point x="647" y="51"/>
      <point x="647" y="40" type="curve" smooth="yes"/>
      <point x="647" y="18"/>
      <point x="631" y="10"/>
      <point x="597" y="10" type="curve" smooth="yes"/>
      <point x="570" y="10" type="line"/>
      <point x="570" y="0" type="line"/>
      <point x="945" y="0" type="line"/>
      <point x="945" y="10" type="line"/>
      <point x="950" y="10" type="line" smooth="yes"/>
      <point x="912" y="10"/>
      <point x="894" y="27"/>
      <point x="871" y="82" type="curve" smooth="yes"/>
      <point x="586" y="714" type="line"/>
      <point x="371" y="714" type="line"/>
      <point x="118" y="76" type="line" smooth="yes"/>
      <point x="95" y="15"/>
      <point x="51" y="10"/>
      <point x="21" y="10" type="curve" smooth="yes"/>
      <point x="8" y="10" type="line"/>
    </contour>
    <contour>
      <point x="239" y="359" type="line"/>
      <point x="344" y="632" type="line" smooth="yes"/>
      <point x="358" y="666"/>
      <point x="369" y="693"/>
      <point x="379" y="721" type="curve"/>
      <point x="390" y="696"/>
      <point x="400" y="671"/>
      <point x="414" y="639" type="curve" smooth="yes"/>
      <point x="522" y="359" type="line"/>
    </contour>
  </outline>
</glyph>
<glyph name="titlocomb.cy" format="2">
  <unicode hex="0483"/>
  <anchor x="2" y="536" name="_top"/>
  <anchor x="2" y="769" name="top"/>
  <outline>
    <contour>
      <point x="-163" y="568" type="curve" smooth="yes"/>
      <point x="-122" y="568"/>
      <point x="-115" y="583"/>
      <point x="-115" y="633" type="curve"/>
      <point x="163" y="633" type="line" smooth="yes"/>
      <point x="194" y="633"/>
      <point x="212" y="644"/>
      <point x="212" y="676" type="curve" smooth="yes"/>
      <point x="212" y="705"/>
      <point x="197" y="718"/>
      <point x="164" y="718" type="curve" smooth="yes"/>
      <point x="122" y="718"/>
      <point x="116" y="704"/>
      <point x="116" y="653" type="curve"/>
      <point x="-163" y="653" type="line" smooth="yes"/>
      <point x="-196" y="653"/>
      <point x="-211" y="640"/>
      <point x="-211" y="611" type="curve" smooth="yes"/>
      <point x="-211" y="582"/>
      <point x="-196" y="568"/>
    </contour>
  </outline>
</glyph>
<glyph name="palatalizationcomb.cy" format="2">
  <unicode hex="0484"/>
  <anchor x="28" y="536" name="_top"/>
  <anchor x="28" y="796" name="top"/>
  <outline>
    <contour>
      <point x="-197" y="612" type="line"/>
      <point x="-176" y="612" type="line" smooth="yes"/>
      <point x="45" y="612"/>
      <point x="57" y="692"/>
      <point x="149" y="692" type="curve" smooth="yes"/>
      <point x="212" y="692"/>
      <point x="231" y="647"/>
      <point x="239" y="618" type="curve" smooth="yes"/>
      <point x="241" y="612" type="line"/>
      <point x="252" y="612" type="line"/>
      <point x="246" y="704"/>
      <point x="174" y="804"/>
      <point x="76" y="804" type="curve" smooth="yes"/>
      <point x="-6" y="804"/>
      <point x="-79" y="749"/>
      <point x="-190" y="749" type="curve" smooth="yes"/>
      <point x="-197" y="749" type="line"/>
    </contour>
  </outline>
</glyph>
<glyph name="uni0495" format="2">
  <advance width="774"/>
  <unicode hex="0495"/>
  <anchor x="387" y="-240" name="bottom"/>
  <anchor x="387" y="536" name="top"/>
  <outline>
    <contour>
      <point x="391" y="-240" type="curve" smooth="yes"/>
      <point x="595" y="-240"/>
      <point x="734" y="-173"/>
      <point x="734" y="49" type="curve" smooth="yes"/>
      <point x="734" y="224"/>
      <point x="625" y="309"/>
      <point x="438" y="309" type="curve" smooth="yes"/>
      <point x="393" y="309"/>
      <point x="356" y="304"/>
      <point x="328" y="299" type="curve"/>
      <point x="328" y="526" type="line"/>
      <point x="433" y="526" type="line" smooth="yes"/>
      <point x="533" y="526"/>
      <point x="569" y="494"/>
      <point x="583" y="397" type="curve" smooth="yes"/>
      <point x="588" y="355" type="line"/>
      <point x="598" y="355" type="line"/>
      <point x="598" y="536" type="line"/>
      <point x="15" y="536" type="line"/>
      <point x="15" y="526" type="line"/>
      <point x="28" y="526" type="line" smooth="yes"/>
      <point x="72" y="526"/>
      <point x="102" y="515"/>
      <point x="102" y="459" type="curve" smooth="yes"/>
      <point x="102" y="73" type="line" smooth="yes"/>
      <point x="102" y="28"/>
      <point x="84" y="10"/>
      <point x="28" y="10" type="curve" smooth="yes"/>
      <point x="15" y="10" type="line"/>
      <point x="15" y="0" type="line"/>
      <point x="416" y="0" type="line"/>
      <point x="416" y="10" type="line"/>
      <point x="392" y="10" type="line" smooth="yes"/>
      <point x="352" y="10"/>
      <point x="328" y="25"/>
      <point x="328" y="73" type="curve" smooth="yes"/>
      <point x="328" y="290" type="line"/>
      <point x="348" y="294"/>
      <point x="363" y="297"/>
      <point x="390" y="297" type="curve" smooth="yes"/>
      <point x="485" y="297"/>
      <point x="506" y="232"/>
      <point x="506" y="52" type="curve" smooth="yes"/>
      <point x="506" y="-161"/>
      <point x="490" y="-230"/>
      <point x="408" y="-230" type="curve" smooth="yes"/>
      <point x="345" y="-230"/>
      <point x="316" y="-185"/>
      <point x="316" y="-44" type="curve"/>
      <point x="205" y="-44"/>
      <point x="180" y="-80"/>
      <point x="180" y="-117" type="curve" smooth="yes"/>
      <point x="180" y="-187"/>
      <point x="246" y="-240"/>
    </contour>
  </outline>
</glyph>
<glyph name="uni0499" format="2">
  <advance width="650"/>
  <unicode hex="0499"/>
  <anchor x="325" y="-218" name="bottom"/>
  <anchor x="325" y="536" name="top"/>
  <outline>
    <contour>
      <point x="334" y="-218" type="curve" smooth="yes"/>
      <point x="410" y="-218"/>
      <point x="448" y="-190"/>
      <point x="448" y="-142" type="curve" smooth="yes"/>
      <point x="448" y="-86"/>
      <point x="401" y="-58"/>
      <point x="292" y="-11" type="curve"/>
      <point x="489" y="-13"/>
      <point x="618" y="39"/>
      <point x="618" y="151" type="curve" smooth="yes"/>
      <point x="618" y="254"/>
      <point x="494" y="290"/>
      <point x="296" y="292" type="curve"/>
      <point x="296" y="294" type="line"/>
      <point x="480" y="285"/>
      <point x="601" y="308"/>
      <point x="601" y="428" type="curve" smooth="yes"/>
      <point x="601" y="509"/>
      <point x="509" y="552"/>
      <point x="329" y="552" type="curve" smooth="yes"/>
      <point x="110" y="552"/>
      <point x="66" y="480"/>
      <point x="66" y="437" type="curve" smooth="yes"/>
      <point x="66" y="403"/>
      <point x="77" y="367"/>
      <point x="213" y="367" type="curve"/>
      <point x="213" y="458"/>
      <point x="212" y="542"/>
      <point x="301" y="542" type="curve" smooth="yes"/>
      <point x="353" y="542"/>
      <point x="373" y="508"/>
      <point x="373" y="418" type="curve" smooth="yes"/>
      <point x="373" y="326"/>
      <point x="338" y="296"/>
      <point x="241" y="296" type="curve" smooth="yes"/>
      <point x="205" y="296" type="line"/>
      <point x="205" y="286" type="line"/>
      <point x="249" y="286" type="line" smooth="yes"/>
      <point x="353" y="286"/>
      <point x="389" y="253"/>
      <point x="389" y="153" type="curve" smooth="yes"/>
      <point x="389" y="47"/>
      <point x="358" y="-1"/>
      <point x="286" y="-1" type="curve" smooth="yes"/>
      <point x="211" y="-1"/>
      <point x="178" y="64"/>
      <point x="178" y="207" type="curve"/>
      <point x="62" y="207"/>
      <point x="42" y="169"/>
      <point x="42" y="115" type="curve" smooth="yes"/>
      <point x="42" y="44"/>
      <point x="112" y="-5"/>
      <point x="270" y="-11" type="curve"/>
      <point x="304" y="-46"/>
      <point x="320" y="-86"/>
      <point x="320" y="-114" type="curve" smooth="yes"/>
      <point x="320" y="-151"/>
      <point x="298" y="-161"/>
      <point x="272" y="-161" type="curve" smooth="yes"/>
      <point x="258" y="-161"/>
      <point x="243" y="-157"/>
      <point x="225" y="-151" type="curve"/>
      <point x="220" y="-161"/>
      <point x="218" y="-167"/>
      <point x="218" y="-173" type="curve" smooth="yes"/>
      <point x="218" y="-213"/>
      <point x="285" y="-218"/>
    </contour>
  </outline>
</glyph>
<glyph name="uni04A7" format="2">
  <advance width="1152"/>
  <unicode hex="04A7"/>
  <anchor x="576" y="-240" name="bottom"/>
  <anchor x="576" y="536" name="top"/>
  <outline>
    <contour>
      <point x="771" y="-240" type="curve" smooth="yes"/>
      <point x="973" y="-240"/>
      <point x="1112" y="-173"/>
      <point x="1112" y="49" type="curve" smooth="yes"/>
      <point x="1112" y="224"/>
      <point x="1002" y="309"/>
      <point x="816" y="309" type="curve" smooth="yes"/>
      <point x="771" y="309"/>
      <point x="733" y="304"/>
      <point x="707" y="299" type="curve"/>
      <point x="707" y="463" type="line" smooth="yes"/>
      <point x="707" y="509"/>
      <point x="736" y="526"/>
      <point x="780" y="526" type="curve" smooth="yes"/>
      <point x="793" y="526" type="line"/>
      <point x="793" y="536" type="line"/>
      <point x="17" y="536" type="line"/>
      <point x="17" y="526" type="line"/>
      <point x="29" y="526" type="line" smooth="yes"/>
      <point x="74" y="526"/>
      <point x="101" y="511"/>
      <point x="101" y="465" type="curve" smooth="yes"/>
      <point x="101" y="73" type="line" smooth="yes"/>
      <point x="101" y="24"/>
      <point x="75" y="10"/>
      <point x="29" y="10" type="curve" smooth="yes"/>
      <point x="17" y="10" type="line"/>
      <point x="17" y="0" type="line"/>
      <point x="387" y="0" type="line"/>
      <point x="387" y="10" type="line"/>
      <point x="383" y="10" type="line" smooth="yes"/>
      <point x="344" y="10"/>
      <point x="327" y="24"/>
      <point x="327" y="73" type="curve" smooth="yes"/>
      <point x="327" y="526" type="line"/>
      <point x="480" y="526" type="line"/>
      <point x="480" y="73" type="line" smooth="yes"/>
      <point x="480" y="24"/>
      <point x="465" y="10"/>
      <point x="425" y="10" type="curve" smooth="yes"/>
      <point x="420" y="10" type="line"/>
      <point x="420" y="0" type="line"/>
      <point x="793" y="0" type="line"/>
      <point x="793" y="10" type="line"/>
      <point x="780" y="10" type="line" smooth="yes"/>
      <point x="736" y="10"/>
      <point x="707" y="30"/>
      <point x="707" y="73" type="curve" smooth="yes"/>
      <point x="707" y="290" type="line"/>
      <point x="726" y="294"/>
      <point x="742" y="297"/>
      <point x="767" y="297" type="curve" smooth="yes"/>
      <point x="857" y="297"/>
      <point x="885" y="238"/>
      <point x="885" y="52" type="curve" smooth="yes"/>
      <point x="885" y="-162"/>
      <point x="869" y="-230"/>
      <point x="788" y="-230" type="curve" smooth="yes"/>
      <point x="723" y="-230"/>
      <point x="694" y="-186"/>
      <point x="694" y="-44" type="curve"/>
      <point x="583" y="-44"/>
      <point x="558" y="-80"/>
      <point x="558" y="-117" type="curve" smooth="yes"/>
      <point x="558" y="-187"/>
      <point x="624" y="-240"/>
    </contour>
  </outline>
</glyph>
<glyph name="uni04A8" format="2">
  <advance width="1057"/>
  <unicode hex="04A8"/>
  <anchor x="529" y="0" name="bottom"/>
  <anchor x="529" y="714" name="top"/>
  <outline>
    <contour>
      <point x="896" y="-59" type="curve" smooth="yes"/>
      <point x="991" y="-59"/>
      <point x="1022" y="-12"/>
      <point x="1022" y="31" type="curve" smooth="yes"/>
      <point x="1022" y="59"/>
      <point x="1008" y="80"/>
      <point x="987" y="84" type="curve"/>
      <point x="983" y="-21"/>
      <point x="950" y="-51"/>
      <point x="887" y="-51" type="curve" smooth="yes"/>
      <point x="806" y="-51"/>
      <point x="755" y="-19"/>
      <point x="722" y="21" type="curve"/>
      <point x="872" y="75"/>
      <point x="977" y="188"/>
      <point x="977" y="338" type="curve" smooth="yes"/>
      <point x="977" y="541"/>
      <point x="843" y="584"/>
      <point x="709" y="584" type="curve" smooth="yes"/>
      <point x="537" y="584"/>
      <point x="435" y="497"/>
      <point x="435" y="345" type="curve" smooth="yes"/>
      <point x="435" y="217"/>
      <point x="511" y="87"/>
      <point x="640" y="10" type="curve"/>
      <point x="613" y="4"/>
      <point x="579" y="1"/>
      <point x="541" y="1" type="curve" smooth="yes"/>
      <point x="360" y="1"/>
      <point x="305" y="95"/>
      <point x="305" y="358" type="curve" smooth="yes"/>
      <point x="305" y="621"/>
      <point x="380" y="715"/>
      <point x="606" y="715" type="curve" smooth="yes"/>
      <point x="655" y="715"/>
      <point x="725" y="711"/>
      <point x="760" y="616" type="curve"/>
      <point x="770" y="630"/>
      <point x="773" y="641"/>
      <point x="773" y="653" type="curve" smooth="yes"/>
      <point x="773" y="703"/>
      <point x="669" y="725"/>
      <point x="578" y="725" type="curve" smooth="yes"/>
      <point x="195" y="725"/>
      <point x="63" y="580"/>
      <point x="63" y="359" type="curve" smooth="yes"/>
      <point x="63" y="137"/>
      <point x="191" y="-10"/>
      <point x="531" y="-10" type="curve" smooth="yes"/>
      <point x="574" y="-10"/>
      <point x="614" y="-6"/>
      <point x="653" y="1" type="curve"/>
      <point x="722" y="-36"/>
      <point x="803" y="-59"/>
    </contour>
    <contour>
      <point x="700" y="46" type="curve"/>
      <point x="639" y="141"/>
      <point x="645" y="282"/>
      <point x="645" y="358" type="curve" smooth="yes"/>
      <point x="645" y="570"/>
      <point x="673" y="574"/>
      <point x="706" y="574" type="curve" smooth="yes"/>
      <point x="740" y="574"/>
      <point x="768" y="581"/>
      <point x="768" y="375" type="curve" smooth="yes"/>
      <point x="768" y="186"/>
      <point x="751" y="91"/>
    </contour>
  </outline>
</glyph>
<glyph name="uni04AF" format="2">
  <advance width="727"/>
  <unicode hex="04AF"/>
  <anchor x="365" y="-239" name="bottom"/>
  <anchor x="365" y="536" name="top"/>
  <outline>
    <contour>
      <point x="194" y="-239" type="line"/>
      <point x="587" y="-239" type="line"/>
      <point x="587" y="-229" type="line"/>
      <point x="569" y="-229" type="line" smooth="yes"/>
      <point x="518" y="-229"/>
      <point x="500" y="-203"/>
      <point x="500" y="-154" type="curve" smooth="yes"/>
      <point x="500" y="103" type="line"/>
      <point x="580" y="440" type="line" smooth="yes"/>
      <point x="597" y="508"/>
      <point x="620" y="524"/>
      <point x="647" y="524" type="curve" smooth="yes"/>
      <point x="729" y="524" type="line"/>
      <point x="729" y="534" type="line"/>
      <point x="488" y="534" type="line"/>
      <point x="488" y="524" type="line"/>
      <point x="569" y="524" type="line" smooth="yes"/>
      <point x="571" y="524"/>
      <point x="578" y="518"/>
      <point x="578" y="492" type="curve" smooth="yes"/>
      <point x="578" y="480"/>
      <point x="578" y="465"/>
      <point x="573" y="445" type="curve" smooth="yes"/>
      <point x="535" y="288" type="line" smooth="yes"/>
      <point x="507" y="181"/>
      <point x="518" y="214"/>
      <point x="495" y="123" type="curve"/>
      <point x="484" y="159"/>
      <point x="463" y="206"/>
      <point x="446" y="245" type="curve" smooth="yes"/>
      <point x="357" y="448" type="line" smooth="yes"/>
      <point x="357" y="447"/>
      <point x="343" y="475"/>
      <point x="343" y="504" type="curve" smooth="yes"/>
      <point x="343" y="510"/>
      <point x="349" y="524"/>
      <point x="377" y="524" type="curve" smooth="yes"/>
      <point x="420" y="524" type="line"/>
      <point x="420" y="534" type="line"/>
      <point x="8" y="534" type="line"/>
      <point x="8" y="524" type="line"/>
      <point x="78" y="524"/>
      <point x="97" y="520"/>
      <point x="111" y="486" type="curve" smooth="yes"/>
      <point x="280" y="82" type="line"/>
      <point x="280" y="-148" type="line" smooth="yes"/>
      <point x="280" y="-203"/>
      <point x="264" y="-229"/>
      <point x="211" y="-229" type="curve" smooth="yes"/>
      <point x="194" y="-229" type="line"/>
    </contour>
  </outline>
</glyph>
<glyph name="uni04B1" format="2">
  <advance width="727"/>
  <unicode hex="04B1"/>
  <anchor x="365" y="-239" name="bottom"/>
  <anchor x="365" y="536" name="top"/>
  <outline>
    <contour>
      <point x="118" y="-22" type="line"/>
      <point x="648" y="-22" type="line"/>
      <point x="648" y="-12" type="line"/>
      <point x="118" y="-12" type="line"/>
    </contour>
    <component base="uni04AF"/>
  </outline>
</glyph>
<glyph name="uni04B2" format="2">
  <advance width="917"/>
  <unicode hex="04B2"/>
  <anchor x="458" y="0" name="bottom"/>
  <anchor x="458" y="714" name="top"/>
  <outline>
    <contour>
      <point x="893" y="-210" type="curve"/>
      <point x="903" y="-210" type="line"/>
      <point x="903" y="10" type="line"/>
      <point x="881" y="10" type="line" smooth="yes"/>
      <point x="829" y="10"/>
      <point x="803" y="23"/>
      <point x="777" y="63" type="curve" smooth="yes"/>
      <point x="538" y="431" type="line"/>
      <point x="682" y="606" type="line" smooth="yes"/>
      <point x="737" y="681"/>
      <point x="769" y="704"/>
      <point x="811" y="704" type="curve" smooth="yes"/>
      <point x="863" y="704" type="line"/>
      <point x="863" y="714" type="line"/>
      <point x="588" y="714" type="line"/>
      <point x="588" y="704" type="line"/>
      <point x="621" y="704" type="line" smooth="yes"/>
      <point x="683" y="704"/>
      <point x="699" y="696"/>
      <point x="699" y="669" type="curve" smooth="yes"/>
      <point x="699" y="649"/>
      <point x="695" y="642"/>
      <point x="671" y="613" type="curve" smooth="yes"/>
      <point x="532" y="438" type="line"/>
      <point x="414" y="616" type="line" smooth="yes"/>
      <point x="402" y="632"/>
      <point x="396" y="647"/>
      <point x="396" y="661" type="curve" smooth="yes"/>
      <point x="396" y="689"/>
      <point x="427" y="704"/>
      <point x="489" y="704" type="curve" smooth="yes"/>
      <point x="481" y="704" type="line"/>
      <point x="481" y="714" type="line"/>
      <point x="45" y="714" type="line"/>
      <point x="45" y="704" type="line"/>
      <point x="59" y="704" type="line" smooth="yes"/>
      <point x="107" y="704"/>
      <point x="130" y="691"/>
      <point x="155" y="651" type="curve" smooth="yes"/>
      <point x="367" y="327" type="line"/>
      <point x="190" y="108" type="line" smooth="yes"/>
      <point x="135" y="33"/>
      <point x="103" y="10"/>
      <point x="61" y="10" type="curve" smooth="yes"/>
      <point x="13" y="10" type="line"/>
      <point x="13" y="0" type="line"/>
      <point x="284" y="0" type="line"/>
      <point x="284" y="10" type="line"/>
      <point x="251" y="10" type="line" smooth="yes"/>
      <point x="189" y="10"/>
      <point x="173" y="18"/>
      <point x="173" y="45" type="curve" smooth="yes"/>
      <point x="173" y="65"/>
      <point x="177" y="72"/>
      <point x="201" y="101" type="curve" smooth="yes"/>
      <point x="374" y="317" type="line"/>
      <point x="507" y="114" type="line" smooth="yes"/>
      <point x="524" y="89"/>
      <point x="532" y="69"/>
      <point x="532" y="53" type="curve" smooth="yes"/>
      <point x="532" y="24"/>
      <point x="507" y="10"/>
      <point x="456" y="10" type="curve" smooth="yes"/>
      <point x="465" y="10" type="line"/>
      <point x="465" y="0" type="line"/>
      <point x="684" y="0" type="line" smooth="yes"/>
      <point x="843" y="0"/>
      <point x="893" y="-50"/>
    </contour>
  </outline>
</glyph>
<glyph name="uni04B5" format="2">
  <advance width="1100"/>
  <unicode hex="04B5"/>
  <anchor x="551" y="0" name="bottom"/>
  <anchor x="551" y="536" name="top"/>
  <outline>
    <contour>
      <point x="1078" y="-210" type="line"/>
      <point x="1088" y="-210" type="line"/>
      <point x="1088" y="10" type="line"/>
      <point x="1008" y="10" type="line" smooth="yes"/>
      <point x="970" y="10"/>
      <point x="977" y="32"/>
      <point x="977" y="28" type="curve" smooth="yes"/>
      <point x="977" y="463" type="line" smooth="yes"/>
      <point x="977" y="512"/>
      <point x="1003" y="526"/>
      <point x="1049" y="526" type="curve" smooth="yes"/>
      <point x="1061" y="526" type="line"/>
      <point x="1061" y="536" type="line"/>
      <point x="691" y="536" type="line"/>
      <point x="691" y="526" type="line"/>
      <point x="695" y="526" type="line" smooth="yes"/>
      <point x="734" y="526"/>
      <point x="751" y="512"/>
      <point x="751" y="463" type="curve" smooth="yes"/>
      <point x="751" y="10" type="line"/>
      <point x="453" y="10" type="line"/>
      <point x="453" y="526" type="line"/>
      <point x="459" y="526" type="line" smooth="yes"/>
      <point x="600" y="526"/>
      <point x="627" y="487"/>
      <point x="641" y="364" type="curve" smooth="yes"/>
      <point x="645" y="329" type="line"/>
      <point x="655" y="329" type="line"/>
      <point x="648" y="536" type="line"/>
      <point x="30" y="536" type="line"/>
      <point x="23" y="329" type="line"/>
      <point x="33" y="329" type="line"/>
      <point x="37" y="364" type="line" smooth="yes"/>
      <point x="51" y="487"/>
      <point x="78" y="526"/>
      <point x="218" y="526" type="curve" smooth="yes"/>
      <point x="226" y="526" type="line"/>
      <point x="226" y="73" type="line" smooth="yes"/>
      <point x="226" y="27"/>
      <point x="197" y="10"/>
      <point x="153" y="10" type="curve" smooth="yes"/>
      <point x="134" y="10" type="line"/>
      <point x="134" y="0" type="line"/>
      <point x="869" y="0" type="line" smooth="yes"/>
      <point x="1018" y="0"/>
      <point x="1072" y="-47"/>
      <point x="1077" y="-187" type="curve" smooth="yes"/>
    </contour>
  </outline>
</glyph>
<glyph name="uni04B9" format="2">
  <advance width="790"/>
  <unicode hex="04B9"/>
  <anchor x="396" y="0" name="bottom"/>
  <anchor x="396" y="536" name="top"/>
  <outline>
    <contour>
      <point x="382" y="113" type="line"/>
      <point x="392" y="113" type="line"/>
      <point x="392" y="365" type="line"/>
      <point x="382" y="365" type="line"/>
    </contour>
    <component base="afii10089"/>
  </outline>
</glyph>
<glyph name="uni04BC" format="2">
  <advance width="1039"/>
  <unicode hex="04BC"/>
  <anchor x="620" y="0" name="bottom"/>
  <anchor x="620" y="714" name="top"/>
  <outline>
    <contour>
      <point x="675" y="-10" type="curve" smooth="yes"/>
      <point x="845" y="-10"/>
      <point x="956" y="60"/>
      <point x="956" y="131" type="curve" smooth="yes"/>
      <point x="956" y="164"/>
      <point x="938" y="175"/>
      <point x="913" y="183" type="curve"/>
      <point x="897" y="53"/>
      <point x="802" y="2"/>
      <point x="706" y="2" type="curve" smooth="yes"/>
      <point x="560" y="2"/>
      <point x="462" y="37"/>
      <point x="458" y="363" type="curve"/>
      <point x="975" y="363" type="line"/>
      <point x="975" y="366" type="line" smooth="yes"/>
      <point x="975" y="569"/>
      <point x="895" y="725"/>
      <point x="613" y="725" type="curve" smooth="yes"/>
      <point x="378" y="725"/>
      <point x="235" y="597"/>
      <point x="222" y="376" type="curve"/>
      <point x="168" y="382"/>
      <point x="136" y="426"/>
      <point x="136" y="468" type="curve" smooth="yes"/>
      <point x="136" y="489"/>
      <point x="140" y="501"/>
      <point x="148" y="515" type="curve"/>
      <point x="141" y="521"/>
      <point x="123" y="529"/>
      <point x="104" y="529" type="curve" smooth="yes"/>
      <point x="45" y="529"/>
      <point x="11" y="504"/>
      <point x="11" y="453" type="curve" smooth="yes"/>
      <point x="11" y="388"/>
      <point x="82" y="362"/>
      <point x="222" y="364" type="curve"/>
      <point x="225" y="101"/>
      <point x="372" y="-10"/>
    </contour>
    <contour>
      <point x="458" y="373" type="line"/>
      <point x="458" y="661"/>
      <point x="489" y="715"/>
      <point x="601" y="715" type="curve" smooth="yes"/>
      <point x="696" y="715"/>
      <point x="725" y="660"/>
      <point x="729" y="373" type="curve"/>
    </contour>
  </outline>
</glyph>
<glyph name="uni04C4" format="2">
  <advance width="810"/>
  <unicode hex="04C4"/>
  <anchor x="406" y="-240" name="bottom"/>
  <anchor x="406" y="536" name="top"/>
  <outline>
    <contour>
      <point x="416" y="-240" type="curve" smooth="yes"/>
      <point x="618" y="-240"/>
      <point x="758" y="-173"/>
      <point x="758" y="49" type="curve" smooth="yes"/>
      <point x="758" y="237"/>
      <point x="618" y="302"/>
      <point x="433" y="302" type="curve"/>
      <point x="451" y="319"/>
      <point x="481" y="350"/>
      <point x="514" y="400" type="curve" smooth="yes"/>
      <point x="533" y="426"/>
      <point x="572" y="441"/>
      <point x="609" y="441" type="curve" smooth="yes"/>
      <point x="653" y="441"/>
      <point x="678" y="420"/>
      <point x="682" y="388" type="curve"/>
      <point x="731" y="389"/>
      <point x="761" y="424"/>
      <point x="761" y="456" type="curve" smooth="yes"/>
      <point x="761" y="498"/>
      <point x="725" y="542"/>
      <point x="653" y="542" type="curve" smooth="yes"/>
      <point x="598" y="542"/>
      <point x="556" y="515"/>
      <point x="511" y="418" type="curve" smooth="yes"/>
      <point x="487" y="367"/>
      <point x="464" y="339"/>
      <point x="438" y="320" type="curve" smooth="yes"/>
      <point x="407" y="293"/>
      <point x="364" y="290"/>
      <point x="327" y="274" type="curve"/>
      <point x="327" y="457" type="line" smooth="yes"/>
      <point x="327" y="514"/>
      <point x="342" y="526"/>
      <point x="371" y="526" type="curve" smooth="yes"/>
      <point x="393" y="526" type="line"/>
      <point x="393" y="536" type="line"/>
      <point x="19" y="536" type="line"/>
      <point x="19" y="526" type="line"/>
      <point x="53" y="526" type="line" smooth="yes"/>
      <point x="80" y="526"/>
      <point x="101" y="512"/>
      <point x="101" y="465" type="curve" smooth="yes"/>
      <point x="101" y="77" type="line" smooth="yes"/>
      <point x="101" y="20"/>
      <point x="76" y="10"/>
      <point x="45" y="10" type="curve" smooth="yes"/>
      <point x="19" y="10" type="line"/>
      <point x="19" y="0" type="line"/>
      <point x="393" y="0" type="line"/>
      <point x="393" y="10" type="line"/>
      <point x="371" y="10" type="line" smooth="yes"/>
      <point x="336" y="10"/>
      <point x="327" y="30"/>
      <point x="327" y="73" type="curve" smooth="yes"/>
      <point x="327" y="265" type="line"/>
      <point x="383" y="282"/>
      <point x="406" y="292"/>
      <point x="429" y="292" type="curve" smooth="yes"/>
      <point x="520" y="292"/>
      <point x="530" y="234"/>
      <point x="530" y="52" type="curve" smooth="yes"/>
      <point x="530" y="-162"/>
      <point x="514" y="-230"/>
      <point x="434" y="-230" type="curve" smooth="yes"/>
      <point x="368" y="-230"/>
      <point x="339" y="-186"/>
      <point x="339" y="-44" type="curve"/>
      <point x="229" y="-44"/>
      <point x="203" y="-80"/>
      <point x="203" y="-117" type="curve" smooth="yes"/>
      <point x="203" y="-187"/>
      <point x="270" y="-240"/>
    </contour>
  </outline>
</glyph>
